<svg width="2044" height="914" xmlns="http://www.w3.org/2000/svg" xmlns:xlink="http://www.w3.org/1999/xlink" overflow="hidden"><defs><clipPath id="clip0"><rect x="1177" y="782" width="2044" height="914"/></clipPath></defs><g clip-path="url(#clip0)" transform="translate(-1177 -782)"><path d="M222.598 476.816C159.068 473.793 95.8135 443.835 52.9102 396.562 37.234 379.247 18.2575 345.991 9.45683 320.981-2.91912 284.976-4.01921 223.687 6.98164 186.033 16.3324 154.427 28.9833 117.598 33.3837 111.002 35.3088 107.704 43.5594 92.8622 51.26 78.0207 58.9606 63.4541 69.6865 44.4901 75.1869 36.2448 80.6873 27.9996 87.5628 16.4562 90.5881 10.6846 98.8387-5.25626 107.639-5.80594 129.091 8.48582 142.567 17.5556 194.821 41.7417 200.872 41.7417 203.072 41.7417 207.197 42.841 209.947 44.4901 218.748 49.1624 254.776 55.7586 291.353 59.6064 389.536 70.0503 391.736 70.3252 432.989 85.7163 445.915 90.6635 461.042 96.1603 466.817 98.359 472.317 100.558 492.394 109.078 511.37 117.323 530.072 125.568 547.398 132.439 549.873 132.439 561.424 132.439 584.251 115.399 591.402 101.657 595.802 92.8622 602.952 91.488 605.428 98.9087 606.253 101.382 615.053 115.399 624.679 129.966 647.781 164.871 676.933 194.828 739.363 247.323 746.513 253.37 747.063 255.019 745.963 269.31 744.313 288.824 725.612 329.226 710.486 345.716 707.735 348.74 705.26 352.587 705.26 354.237 705.26 355.886 695.085 367.979 682.709 380.896 663.182 401.784 657.132 406.456 635.405 416.9 586.726 439.987 546.023 443.285 487.444 428.169 467.367 422.947 442.89 415.526 433.264 411.678 423.364 407.831 410.713 404.533 404.937 404.533 395.587 404.533 392.286 406.456 378.535 420.748 336.732 463.623 291.078 480.114 222.598 476.816Z" fill="#C91A24" fill-rule="evenodd" transform="matrix(1 0 0 -1 1181 1260)"/><path d="M13.1965 321.432C-0.832454 315.388-0.557376 320.059-1.38261 159.336-1.93277 40.6494-1.38261 8.23026 1.36817 4.65866 4.94418-0.0118981 14.0218-1.11085 44.0053-0.561375 55.0084-0.286637 58.5844 0.812317 59.6847 4.65866 60.5099 7.40604 61.6102 64.2769 62.1604 131.038 62.4355 197.8 63.5358 252.473 64.361 252.473 68.2121 252.473 72.3383 244.78 77.8398 226.373 81.1408 215.658 85.542 202.745 87.4676 197.525 89.3931 192.305 93.2442 181.865 95.4448 174.172 105.348 143.676 110.849 126.643 116.351 112.356 119.652 104.114 124.603 89.8276 127.629 80.7612 130.93 71.6949 135.056 60.7053 136.982 56.0348 138.907 51.6389 143.308 39.001 146.609 28.0114 155.687-1.66033 155.412-1.66033 186.221-1.66033 218.955-1.66033 219.505-1.38559 234.084 40.9241 244.812 71.4201 264.893 127.742 285.524 185.162 291.025 200.272 298.452 222.252 302.303 233.791 306.155 245.604 310.556 254.396 311.931 253.572 313.307 252.748 314.407 200.547 314.407 132.962 314.407 67.0243 315.507 10.7029 316.883 7.1313 319.083 1.63653 321.834 0.26284 334.213-1.11085 352.093-3.03402 374.649 0.26284 377.95 5.48287 379.325 7.68078 380.426 74.9917 380.426 154.941 380.426 288.189 379.875 301.376 375.474 309.893 369.147 322.806 361.445 324.454 319.908 322.806L285.524 321.432 276.996 311.542C268.469 301.926 259.391 280.771 236.01 215.383 229.133 195.877 221.431 174.722 218.955 168.678 216.754 162.633 213.178 153.017 210.978 147.523 198.599 114.005 192.547 103.015 187.046 104.938 184.57 105.762 178.793 119.774 174.117 135.709 173.017 140.38 169.166 150.82 165.865 159.062 162.839 167.304 157.062 182.964 153.486 193.404 149.91 204.119 142.483 224.999 136.982 240.11 131.48 255.22 125.978 270.606 124.878 274.452 118.826 292.035 110.849 306.596 103.147 314.014 94.8947 321.707 94.0694 321.982 56.6588 322.806 35.7529 323.355 16.2224 322.806 13.1965 321.432Z" fill="#C91A24" fill-rule="evenodd" transform="matrix(1 0 0 -1 2190 1259)"/><path d="M106.534 322.471C104.336 320.266 101.315 315.029 99.9417 310.619 98.2937 306.485 91.4269 288.018 84.5602 269.826 69.1787 229.033 57.9172 196.508 48.8531 167.843 45.0077 155.715 36.2183 129.806 29.0768 109.961 22.2101 90.3908 15.3433 70.5454 14.2446 65.8597 12.8713 61.4496 8.47657 48.495 4.63118 37.4698-8.00364 3.56728-4.98227-0.843168 30.7248-1.39443 44.4584-1.67006 50.5011-0.567538 55.1705 3.29165 61.2132 8.25299 75.7708 41.8799 78.7921 58.1421 79.6161 63.1034 81.8135 68.3404 83.7362 69.7185 85.3842 71.0967 111.753 72.7505 142.516 73.3017L198.548 74.1286 205.14 66.411C208.711 62.2765 211.732 55.6614 211.732 52.0782 211.732 45.7387 213.655 40.5017 225.466 13.2143 230.959 0.810975 237.277-1.67006 265.842-1.67006 300.451-1.67006 301.275 2.74039 277.653 64.4816 269.413 85.4295 263.92 102.794 261.173 114.095 258.426 126.223 248.264 154.888 240.573 173.355 238.65 178.041 234.805 189.066 232.058 198.162 229.586 207.258 224.917 221.04 221.895 228.482 211.183 255.218 205.964 269.826 203.218 281.954 199.098 300.697 187.287 322.747 180.42 324.676 177.399 325.503 160.094 326.33 142.516 326.33 118.619 326.33 109.555 325.228 106.534 322.471ZM154.052 225.45C158.721 213.597 162.292 202.297 162.292 200.367 162.292 198.713 163.94 193.752 166.137 189.342 172.729 175.836 179.596 150.478 179.871 138.075L180.145 126.498 144.713 125.671C122.19 125.12 108.182 125.947 105.984 127.877 101.315 131.735 103.238 145.517 112.027 169.221 115.873 179.144 119.718 190.996 121.091 195.682 122.19 200.643 123.838 205.88 124.937 207.534 126.035 209.187 128.782 217.456 130.979 226.001 135.924 245.571 140.044 253.288 143.34 249.981 144.988 248.327 149.657 237.577 154.052 225.45Z" fill="#C91A24" fill-rule="evenodd" transform="matrix(1 0 0 -1 2729 1261)"/><path d="M759.629 657.371C756.605 655.997 747.256 649.126 739.283 641.706 721.411 625.766 658.996 554.038 649.098 537.824 642.224 527.106 620.777 498.25 613.079 489.455 610.879 487.257 600.706 474.34 589.983 460.599 579.259 447.133 566.062 430.644 560.563 424.598 555.063 418.277 544.615 405.91 536.917 397.116 516.845 373.756 475.327 340.502 458.28 333.907 420.886 319.341 353.522 310.547 319.978 315.769 291.658 320.166 274.336 335.831 280.11 351.495 281.484 354.793 284.784 358.366 287.258 359.19 290.008 360.015 294.407 361.939 297.432 363.587 302.931 366.61 317.778 369.359 358.196 375.405 383.492 379.252 395.865 382 440.408 394.367 473.952 403.711 498.973 419.101 522.069 444.934 548.74 474.615 562.487 515.288 552.589 536.175 544.065 554.038 526.468 549.916 497.048 522.983 474.777 502.647 441.783 489.18 392.566 480.111 350.498 472.416 276.26 459.5 248.765 454.828 209.996 448.507 174.802 435.316 148.132 417.177 116.237 395.467 62.346 329.784 40.8996 286.638 36.7753 277.843 29.9014 264.377 25.7771 256.133 17.5285 240.468 11.4795 219.856 7.63015 195.397 6.53034 187.153 4.05575 174.786 2.40603 167.915 0.756304 160.77-0.618466 126.692-0.618466 88.7667-0.618466 27.7565-0.0685581 21.1608 4.88061 11.5421 7.63015 5.77087 12.3044 0.27446 14.779-0.824823 23.8524-4.39749 44.199 13.191 68.9449 45.8947 75.8187 54.9638 88.7416 69.2545 97.8151 77.7739 115.412 93.9883 125.585 98.1106 172.603 108.829 196.249 114.325 217.695 119.272 237.217 123.944 244.915 125.868 256.464 128.341 263.337 129.44 270.211 130.814 279.285 133.013 283.409 134.662 287.808 136.311 294.407 137.685 298.531 137.685 302.656 137.685 310.904 139.609 316.953 141.807 323.002 144.006 332.901 145.655 338.95 145.929 344.724 145.929 354.622 147.578 360.946 149.777 366.995 151.701 379.368 155.548 388.441 158.296 431.609 170.663 488.25 195.397 502.822 208.039 505.022 210.237 508.046 211.886 509.146 211.886 510.246 211.886 518.495 217.383 527.293 224.253 546.54 239.094 568.261 263.278 593.832 297.905 604.005 311.921 613.354 324.563 614.729 325.937 615.828 327.586 617.753 330.884 618.853 333.357 619.678 336.105 625.177 345.449 630.951 353.969 643.599 373.481 644.973 376.229 663.67 413.88 672.194 430.644 679.893 446.034 680.992 448.232 682.092 450.431 687.866 461.424 693.365 472.416 699.139 483.134 704.913 493.028 706.288 493.852 707.663 494.677 708.763 496.875 708.763 499.074 708.763 501.273 712.337 508.143 716.736 514.739 721.136 521.334 726.91 530.953 729.934 536.175 732.684 541.396 738.458 551.015 742.582 557.336 746.706 563.932 750.006 569.978 750.006 571.352 750.006 572.726 756.33 581.795 764.303 591.414 787.125 619.995 793.724 640.332 784.1 653.798 779.701 660.119 770.078 661.493 759.629 657.371Z" fill="#C91A24" fill-rule="evenodd" transform="matrix(1 0 0 -1 1178 1694)"/><path d="M590.5 191.156C584.451 184.536 582.527 180.399 543.215 100.411 523.421 60.1413 516.273 48.2811 510.5 45.5229 504.727 42.7647 450.844 41.6614 254.281 40.834 117.374 40.2823 3.83507 39.179 2.1856 38.6274-0.0137096 37.7999-1.38827 32.0077-1.38827 22.3541-1.38827-3.57299-26.1305-1.36643 275.174-1.36643 533.867-1.36643 539.641-1.36643 546.239 4.14996 552.836 9.11471 557.235 17.1135 578.403 62.0721 583.077 72.0016 589.125 83.0344 591.874 86.62 599.572 96.5495 606.17 91.0331 618.266 64.2786 641.084 14.6311 644.932 8.01144 652.63 3.3225 660.053-1.09061 680.121-1.36643 902.251-1.09061 1035.03-0.81479 1147.47 0.0126689 1151.87 1.11595 1160.12 2.77086 1160.12 3.04668 1160.12 20.6991L1160.12 38.6274 924.519 40.2823C794.76 41.3856 686.994 42.7647 685.07 43.5922 680.671 45.2471 682.321 42.2131 639.709 126.614 621.84 161.367 605.07 191.431 601.771 193.638 596.823 196.672 595.448 196.396 590.5 191.156Z" fill="#C91A24" fill-rule="evenodd" transform="matrix(1 0 0 -1 2060 1374)"/><path d="M40.8315 186.977C34.4926 184.494 24.5707 178.149 18.2317 172.908 4.45132 161.322-0.785229 142.288 4.45132 121.874 9.68786 101.184 23.7439 92.3569 68.3923 81.3226 92.9214 75.2536 110.285 67.2537 112.765 60.9089 116.348 50.978 114.419 38.2884 108.355 32.7712 96.5043 22.0127 67.2899 17.5989 47.9973 23.9437 35.8706 27.8057 20.4366 34.9781 14.9244 39.6677 6.10496 46.5642-3.54131 35.8057-0.785229 22.0127 0.59281 13.7369 29.256 1.87491 51.8558-0.0561132 85.2044-3.09057 106.977 0.495607 120.758 10.9783 137.294 23.6678 144.736 35.8057 144.736 50.4262 144.736 67.5296 138.672 80.2191 126.27 88.219 116.348 94.8397 77.2117 109.184 68.9435 109.184 63.1558 109.184 44.9656 117.736 38.0755 124.081 25.6731 134.839 31.7365 151.667 51.8558 161.874 61.2265 166.839 66.1874 167.391 79.9678 166.287 89.0629 165.46 101.19 162.701 106.702 160.494 121.585 154.15 127.924 154.977 131.506 163.253 136.192 173.184 132.058 178.149 114.143 185.598 95.1263 193.322 58.4704 194.149 40.8315 186.977Z" fill="#C91A24" fill-rule="evenodd" transform="matrix(1 0 0 -1 2044 1591)"/><path d="M83.6736 189.224C80.0869 187.845 77.3278 185.362 77.3278 183.983 77.3278 182.604 69.8784 165.503 60.7736 145.919 40.3566 103.166 38.1494 98.2014 30.4241 78.8936 24.906 65.1024 12.4903 38.0715 0.902302 13.2472-4.33988 2.2142-1.58084-1.0957 13.0421-1.0957 23.8024-1.0957 32.0795 6.90323 36.494 21.7978 38.1494 27.5901 42.5639 35.3132 45.8747 38.899 52.2205 45.7946 53.0482 45.7946 97.4689 45.7946L142.993 45.7946 147.683 35.5891C162.582 3.04168 163.134 1.93838 171.135 0.283427 181.896-1.92318 190.449 0.835077 190.449 6.62741 190.449 12.1439 184.103 31.1759 181.344 33.9341 180.24 34.7616 176.102 42.7605 172.239 51.0353 168.1 59.5858 160.099 76.1354 154.305 88.2717 148.235 100.132 143.545 111.717 143.545 113.923 143.545 116.13 141.889 121.371 139.682 125.232 137.475 129.37 130.026 144.816 122.852 159.71 107.953 190.879 101.056 196.119 83.6736 189.224ZM101.056 145.919C101.883 143.161 104.366 137.369 106.574 133.231 108.505 128.818 110.436 124.129 110.436 123.026 110.436 121.647 114.851 111.165 120.369 99.5805 134.44 69.7914 134.164 69.5156 99.952 68.4123 70.7061 67.5848 60.7736 70.0672 60.7736 78.342 60.7736 80.8244 64.6362 91.0299 69.3266 100.96 77.8796 119.44 82.57 129.921 87.8122 143.161 91.399 151.436 98.8484 153.091 101.056 145.919Z" fill="#C91A24" fill-rule="evenodd" transform="matrix(1 0 0 -1 2262 1591)"/><path d="M8.09637 187.483C5.06308 186.657 1.75404 185.28 0.651025 184.179-1.83076 181.977-2.93377 2.76266-0.45199 0.285045 1.75404-1.91728 121.983-1.3667 125.567 1.11092 129.152 3.31324 126.119 16.5272 121.707 19.2801 119.777 20.3813 99.6466 21.4824 76.4833 21.4824 53.5957 21.4824 32.9142 22.3083 30.4324 23.1342 26.5719 24.5106 26.0204 34.1458 26.0204 101.867 26.0204 149.493 24.9173 180.876 23.2628 184.179 20.2295 189.41 18.2993 189.96 8.09637 187.483Z" fill="#C91A24" fill-rule="evenodd" transform="matrix(1 0 0 -1 2547 1589)"/><path d="M4.20988 187.343C-2.11956 184.867-2.11956 184.317-2.11956 125.723-2.11956 75.3815-1.29399 64.3779 3.1091 50.0732 9.43854 29.7166 19.0703 16.5123 34.4811 6.33393 45.4888-0.543321 47.9656-1.0935 77.6864-1.0935 112.636-1.0935 124.194 2.75776 138.229 18.713 155.016 37.4191 156.942 48.6978 157.768 125.448 158.318 190.094 157.492 193.12 140.43 188.443L131.349 185.693 129.698 122.697C128.047 55.0248 126.671 46.7721 112.911 34.3931 94.4732 17.3375 69.981 15.4119 50.1671 29.1664 30.9036 42.6458 25.6749 64.1028 25.3997 131.5 25.3997 173.038 24.5742 182.116 20.9967 185.693 16.3184 190.644 13.0161 190.919 4.20988 187.343Z" fill="#C91A24" fill-rule="evenodd" transform="matrix(1 0 0 -1 2762 1589)"/><path d="M1.20353 183.234C-4.04013 177.183-3.48817 8.05493 1.75549 2.0048 4.23933-1.02026 13.6227-1.57028 52.2602-0.745258 99.4532 0.354765 114.08 3.10482 138.091 15.2051 149.406 20.9802 162.377 35.8305 169.001 50.4058 178.108 71.0312 179.212 116.957 170.933 134.558 158.513 160.683 132.295 179.384 100.557 184.884 90.6217 186.534 64.9554 187.909 43.7048 187.909 10.8629 187.909 4.23933 187.084 1.20353 183.234ZM99.4532 158.758C120.704 152.433 128.983 146.108 138.919 130.157 146.646 116.957 147.75 112.832 147.75 95.5068 147.75 64.9811 137.815 47.1057 112.424 31.9804 100.005 24.5553 98.0732 24.2803 63.5755 24.2803L27.6978 24.2803 26.8699 91.6567C26.5939 128.507 26.8699 160.408 27.4218 162.333 29.3537 167.008 81.2383 164.533 99.4532 158.758Z" fill="#C91A24" fill-rule="evenodd" transform="matrix(1 0 0 -1 3038 1590)"/><path d="M362.309 48.9284C360.109 48.3832 284.747 47.838 194.807 47.5655L31.1565 46.7477 15.479 39.115C-0.473566 31.4824-0.473566 31.2098-0.473566 19.4883-0.473566-3.40957-59.3329-1.50141 589.22-0.138443 1241.35 1.22453 1179.19-1.22882 1178.09 23.5772 1177.54 33.3906 1175.61 39.3876 1172.04 43.204 1166.54 48.3832 1160.49 48.3832 766.348 48.9284 546.313 49.201 364.509 49.201 362.309 48.9284Z" fill="#C91A24" fill-rule="evenodd" transform="matrix(1 0 0 -1 2034 1670)"/></g></svg>