<svg xmlns="http://www.w3.org/2000/svg" width="1780" height="1356" overflow="hidden"><defs><clipPath id="a"><path d="M1307 418h1780v1356H1307z"/></clipPath></defs><g fill="#F18624" fill-rule="evenodd" clip-path="url(#a)" transform="translate(-1307 -418)"><path d="M2455.875 419.33c-7.743 1.548-21.423 18.325-21.423 26.583 0 9.033-8.775 35.874-17.034 52.135-14.197 28.132-40.523 52.649-73.301 68.394-14.454 6.71-28.134 10.065-63.493 15.227-20.907 3.097-27.101 34.325-9.809 49.295 3.872 3.355 9.293 5.936 12.131 5.936 8.26 0 41.039 7.743 50.846 12.13 12.648 5.678 28.65 13.937 34.845 18.067 12.904 8.517 38.715 36.906 46.458 51.101 9.033 16.002 19.357 44.134 19.357 52.135 0 12.646 17.809 29.164 31.23 29.164 14.713 0 30.715-19.615 30.715-37.681 0-3.614 1.549-9.807 3.613-13.422 1.806-3.87 6.194-12.646 9.55-19.614 10.582-21.68 12.131-23.744 33.295-43.617 26.326-24.777 50.33-36.907 83.109-42.069 25.81-4.129 29.423-5.678 36.908-13.937 3.872-4.129 4.904-9.033 4.904-20.131-.516-19.356-6.194-23.744-37.683-29.938-12.904-2.323-26.842-6.195-30.714-8.26-4.129-2.064-9.291-3.613-11.614-3.613-5.162 0-37.941-20.904-46.201-29.421-6.969-6.969-21.938-26.326-21.938-28.132 0-1.033-2.581-5.42-5.679-10.324-6.452-9.291-16.518-38.455-18.841-54.199-2.839-18.325-20.132-29.938-39.231-25.809M2126.471 573.656c-17.833 3.359-36.44 6.976-41.35 7.752-4.91 1.033-10.079 2.584-11.629 3.617-1.293 1.291-6.72 3.358-11.63 4.651-41.35 12.403-98.205 44.442-133.87 75.19-33.08 28.423-67.71 68.473-67.71 77.775 0 3.618 4.136 5.168 20.158 7.752 26.36 4.392 53.497 17.828 74.43 36.69 15.506 13.954 24.292 18.605 24.292 12.404 0-4.393 23.001-36.433 39.282-54.779 34.631-39.274 87.869-67.698 153.77-82.683 16.798-3.619 24.293-11.111 25.843-25.84 1.551-13.435-5.168-41.858-11.888-51.16-4.135-5.685-22.742-18.346-26.102-17.829-.775.259-15.764 3.1-33.596 6.46M2160.854 719.796c-40.043 5.944-101.788 47.306-126.33 85.046-12.143 18.355-15.501 25.592-25.318 50.409-8.526 21.714-8.526 22.489-8.526 64.626.26 47.047 3.1 61.523 19.635 94.095 26.093 51.183 76.728 90.993 134.08 105.21 24.543 6.205 71.045 6.722 89.388 1.034 6.976-2.068 14.726-3.877 17.051-3.877 6.2 0 40.56-16.286 57.352-27.143 37.718-24.04 68.72-67.986 81.895-115.809 10.076-35.932 5.942-104.952-7.492-130.027-1.55-2.585-5.425-10.599-8.783-17.32-11.368-23.783-13.434-26.368-35.394-48.34-21.701-21.714-41.593-35.415-64.844-44.98-6.459-2.585-15.759-6.462-20.667-8.789-6.718-3.101-19.377-4.135-51.67-4.652-23.509-.259-45.985 0-50.377.517M1846.887 765.437c-5.15 2.579-7.21 6.446-20.6 37.13-8.24 18.565-11.846 29.137-19.571 58.017-5.408 19.853-5.923 27.589-5.923 85.089 0 44.093 1.03 66.783 3.348 74.776 1.803 6.447 4.12 16.245 5.408 21.918 5.407 23.98 9.013 34.81 11.844 34.81 1.803 0 6.953-4.9 11.846-10.83 15.708-20.113 29.87-31.458 52.274-42.03 16.737-7.993 26.008-10.314 55.363-14.44 10.558-1.289 20.344-3.609 21.373-4.64 1.287-1.29.515-5.674-1.802-10.056-2.317-4.384-4.12-12.12-4.12-17.277s-1.803-13.407-3.863-18.565c-7.983-19.081-3.605-74.26 9.27-113.711 3.09-9.282 4.635-18.822 3.863-22.433-2.576-9.798-32.446-37.903-49.441-46.154-24.206-11.861-57.424-17.276-69.27-11.604M2486.529 858.241c-5.945 6.202-6.204 8.785-8.013 49.61-1.81 45.475-4.913 71.571-9.566 80.098-1.551 3.1-2.844 7.234-2.844 9.56 0 7.234-23.01 52.968-34.384 68.212-19.131 26.097-36.453 44.184-56.877 59.945-11.375 8.269-21.458 15.245-22.75 15.245-4.395 0-2.327 10.335 4.136 20.671 14.736 23.512 20.682 51.418 18.097 87.591-1.034 13.435-3.36 27.646-5.429 31.522-4.136 8.01-4.912 17.83-1.292 17.83 7.238 0 50.671-24.29 61.013-34.366 1.809-1.808 10.857-9.302 19.906-16.795 26.887-21.963 58.686-59.428 78.593-92.242 9.306-15.503 28.179-54.26 30.507-63.304 1.034-3.617 3.36-10.593 5.428-15.503 24.043-62.528 28.18-183.71 6.98-207.738-2.585-2.584-8.789-7.494-13.961-10.853-8.53-5.426-12.667-6.201-36.452-6.201-25.335 0-27.145.258-33.092 6.718"/><path d="M1923.312 1026.56c-35.663 7.745-60.73 23.236-80.63 50.087-13.438 18.59-13.954 24.528-2.584 46.216 37.472 71.517 91.483 125.737 162.55 163.174 47.292 24.786 85.539 37.695 146.786 49.055 33.854 6.196 110.09 2.324 143.426-7.745 42.382-12.393 46.517-14.717 52.72-27.885 13.954-30.207 14.471-32.53 14.471-64.805 0-30.465-2.325-42.342-11.887-58.091-1.293-2.066-3.36-6.196-4.652-9.037-1.292-2.84-5.944-9.036-10.595-13.426l-8.27-8.004-11.887 5.939c-33.855 17.04-67.45 24.528-110.348 24.528-36.697 0-37.214-.258-86.056-13.943-24.551-6.971-70.809-34.854-95.101-57.575-16.54-15.491-33.079-36.404-46.259-58.866-6.718-11.361-13.696-21.43-15.247-22.463-4.134-2.839-13.438-2.065-36.437 2.841M1317.036 1475.999c-9.865 5.362-9.65 1.502-9.65 147.772v138.977l4.717 3.217c4.074 3.003 16.512 3.432 90.924 3.432 83.849 0 86.207-.214 91.783-4.504 5.146-4.075 5.575-5.576 5.575-21.232 0-15.871-.429-17.159-6.219-22.091-8.363-6.864-23.803-8.364-82.346-7.721l-45.462.428-1.072-116.672c-.644-64.127-1.502-116.887-1.716-117.102-6.434-6.648-37.313-9.651-46.534-4.504M2119.812 1475.407c-2.581 1.073-5.593 3.863-6.884 6.224-1.72 2.789-2.365 48.502-2.365 141.642 0 136.707 0 137.566 4.517 142.073 4.302 4.292 5.807 4.507 71.416 3.648 60.014-.858 68.188-1.287 76.793-4.936 29.039-12.233 48.399-34.553 53.346-61.379 1.291-6.438 2.582-12.662 2.797-13.735 1.075-3.863-4.732-27.685-8.389-35.41-5.163-10.731-17.424-25.754-23.232-28.329-8.174-3.649-8.174-8.156-.215-14.809 3.872-3.218 10.326-12.017 14.412-19.528 6.884-12.877 7.314-14.594 7.099-36.055 0-21.246-.431-23.178-7.099-35.411-12.907-24.037-29.47-35.625-61.306-42.922-14.627-3.434-112.93-4.292-120.89-1.073m115.082 60.091c20.651 12.662 20.436 40.561-.214 53.438-6.884 4.292-9.896 4.507-37.43 4.078l-29.684-.645-.645-27.684c-.215-15.452 0-29.187.43-30.689.86-2.146 8.389-2.79 30.76-2.79 25.813 0 30.545.644 36.783 4.292m-2.151 115.031c3.658.858 10.541 4.936 15.488 9.443 8.175 7.511 8.605 8.584 8.605 20.388 0 14.594-6.238 24.895-17.854 29.83-9.035 3.65-66.9 6.01-70.125 2.79-2.581-2.574-3.442-54.296-1.076-60.305 1.076-3.005 5.808-3.434 29.9-3.434 15.703 0 31.405.644 35.062 1.288M1776.15 1496.073c-11.78 1.502-13.493 5.579-14.136 33.899l-.642 25.318-13.923 2.79c-18.42 3.861-21.419 7.509-21.419 26.819 0 12.229.857 15.448 5.14 20.597 4.285 4.935 7.283 6.222 17.564 7.08l12.638 1.072 1.07 56.857c1.072 52.352 1.5 57.715 5.57 66.726 11.137 23.601 29.344 34.115 60.401 34.115 19.063 0 30.843-3.434 34.27-10.085 2.999-5.792.643-29.178-3.641-34.543-2.57-3.647-6.639-5.15-15.207-6.008-16.279-1.716-22.704-4.505-25.49-11.156-1.713-3.861-2.14-21.456-1.926-50.849l.642-45.057 16.493-.643c15.207-.644 17.135-1.073 23.132-7.08 5.783-5.793 6.425-7.939 6.425-19.31 0-22.743-7.068-28.964-35.34-30.252l-10.71-.644-1.072-26.176c-.856-20.382-1.927-27.033-4.497-29.822-3.641-3.433-22.705-5.578-35.341-3.648M1584.514 1558.813c-21.716 6.407-31.176 11.531-50.311 27.548-13.976 11.958-27.091 39.079-32.466 67.481-5.376 29.683 10.105 70.257 35.906 93.96 20.425 19.007 38.055 25.413 69.661 25.413 32.68 0 49.45-5.552 70.09-22.85 35.261-29.896 47.947-83.07 30.531-128.555-18.49-48.476-74.821-77.092-123.411-62.997m49.45 57.658c6.45 4.058 9.46 6.833 16.771 15.162 2.579 2.776 4.514 10.677 6.019 23.063 3.226 28.615-1.72 41.001-21.93 56.163-7.525 5.552-26.015 8.969-35.261 6.407-12.47-3.417-28.38-16.016-33.54-26.48-5.16-10.678-8.17-37.798-4.3-40.147 1.29-.855 2.365-3.417 2.365-5.979 0-6.193 12.04-20.502 23.65-27.762 8.815-5.766 10.965-6.193 24.725-5.339 10.105.427 17.416 2.136 21.501 4.912M1950.392 1560.294c-26.832 8.978-43.146 21.377-57.957 44.038-9.874 15.178-13.953 26.722-16.958 49.168-4.508 32.495 4.938 63.064 27.476 87.649 20.822 23.087 42.288 32.066 76.632 32.066 35.633 0 53.235-7.055 77.276-30.998 22.325-22.233 34.775-63.064 29.193-95.558-5.366-31.211-16.314-51.306-36.491-67.339-11.162-8.979-16.743-11.972-37.35-20.736-12.235-5.132-43.79-4.277-61.821 1.71m59.03 57.933c12.88 9.834 19.105 22.447 20.178 41.686.644 12.613 0 19.027-2.79 26.509-5.153 13.468-19.319 25.653-34.774 30.142-10.733 3.207-12.666 3.207-21.466.214-19.963-6.84-32.413-20.95-37.135-41.9-4.294-20.309 4.507-43.611 21.25-55.368 10.518-7.483 15.67-8.765 31.555-8.124 12.879.641 16.528 1.711 23.182 6.841M2412.262 1558.566c-49.255 16.462-78.807 55.8-79.45 105.828-.429 31.641 11.35 59.862 34.264 82.31 19.702 19.028 39.833 26.511 71.742 26.511 33.407 0 53.752-7.91 74.096-28.649 12.421-12.613 20.988-26.51 28.269-45.538 5.782-15.393 6.21-56.014.856-66.276-1.927-3.848-3.426-8.338-3.426-10.262 0-7.91-17.561-33.138-30.624-44.255-11.351-9.408-14.991-11.331-34.05-17.746-18.418-6.2-46.043-7.055-61.677-1.923m55.252 59.221c4.925 3.207 11.564 9.834 14.776 14.751 5.568 8.125 5.996 10.476 5.996 30.359 0 20.524-.428 22.021-6.424 31.214-7.495 10.903-21.201 21.166-28.482 21.38-2.784 0-6.853 1.069-9.209 2.137-7.495 4.062-32.337-7.269-42.188-19.241-16.49-19.882-14.777-56.014 3.212-73.117 13.278-12.401 19.703-14.753 37.263-14.111 13.492.428 17.775 1.71 25.056 6.628M2636.358 1560.311c-19.485 6.417-31.69 14.117-45.609 28.448-23.554 24.171-34.903 60.534-29.335 93.903 4.282 25.455 10.064 37.86 26.337 56.898 12.848 14.973 25.695 23.529 43.896 29.732 12.206 4.064 17.13 4.492 38.971 3.422 23.769-1.069 28.265-2.139 48.18-10.909 13.489-5.989 34.045-28.02 41.968-44.918 8.779-19.252 11.349-35.508 9.85-65.026-1.071-22.032-1.713-25.241-8.779-39.358-8.779-17.326-16.916-27.379-29.764-37.006-26.338-19.678-64.666-25.667-95.715-15.186m47.536 50.908c10.707 3.422 24.197 15.829 28.694 26.524 4.282 10.267 4.282 40.428 0 50.694-4.069 10.054-19.058 24.813-26.338 26.097-3.212.64-8.351 1.925-11.563 2.994-12.848 4.064-35.545-6.203-46.465-21.176-8.138-11.123-12.206-32.513-8.566-45.561 5.782-21.604 17.13-34.224 35.76-39.144 13.061-3.422 17.986-3.637 28.478-.428M2873.863 1558.652c-5.368 1.929-13.313 5.787-17.821 8.573-10.092 6.43-14.172 6.43-15.89 0-2.362-9.216-18.251-12.645-35.643-7.287-5.583 1.715-9.233 4.286-10.522 7.715-2.577 6.645-2.577 187.322 0 193.966s6.442 7.93 25.337 8.573c11.166.214 16.32-.643 20.613-3.43l5.798-3.643v-123.88l7.086-9.216c10.736-13.932 17.393-18.003 29.631-17.79 8.589 0 11.81 1.286 17.178 6.43 3.651 3.43 7.73 8.573 8.804 11.574 1.502 3.429 2.147 25.719 1.932 60.011-.43 56.797 1.074 71.8 7.73 76.729 5.153 3.858 42.085 2.786 46.165-1.286 2.147-2.144 3.006-18.218 3.865-66.441 1.289-71.37.858-69.227 17.822-81.873 6.656-4.929 11.166-6.429 18.681-6.429 11.165 0 17.178 3.429 23.405 13.717 4.294 6.858 4.508 10.073 4.508 70.727v63.654l5.583 5.359c5.153 5.358 6.442 5.573 23.619 4.93 15.46-.643 18.896-1.5 21.472-5.144 2.792-3.644 3.221-15.86 2.577-80.587l-.644-76.085-7.515-14.575c-12.884-25.291-32.423-37.507-60.981-37.721-19.539 0-36.932 6.43-50.674 18.646-5.583 4.93-10.951 9.216-11.595 9.216-.859 0-5.368-3.858-10.307-8.573-13.313-12.646-25.767-17.789-44.662-18.646-10.735-.429-19.11.428-25.552 2.786"/></g></svg>