<svg width="1837" height="1670" xmlns="http://www.w3.org/2000/svg" xmlns:xlink="http://www.w3.org/1999/xlink" overflow="hidden"><defs><clipPath id="clip0"><rect x="1286" y="396" width="1837" height="1670"/></clipPath></defs><g clip-path="url(#clip0)" transform="translate(-1286 -396)"><path d="M280.101 737.296C263.602 727.125 238.578 695.514 218.229 658.68 213.554 649.884 206.13 636.964 202.28 629.817 198.155 622.67 191.83 611.125 187.98 603.979 179.731 588.31 177.531 586.661 142.332 571.817 96.6841 552.301 32.6118 521.514 7.31282 506.945-5.33665 499.524-4.51169 492.102 10.0627 485.505 16.3874 482.481 35.3616 470.936 51.861 459.666 130.508 406.339 185.505 346.14 220.979 275.495 228.679 260.377 234.728 247.183 234.728 246.083 234.728 244.983 236.378 240.311 238.578 235.638 249.853 210.348 267.727 147.95 267.727 134.481 267.727 130.358 269.102 123.486 271.027 119.088 272.677 114.69 274.877 88.0262 275.702 55.0405 277.352 1.43862 277.627-1.3102 282.851-2.13484 285.876-2.40972 302.925 5.83672 321.075 16.5571 356.273 37.4481 485.243 101.77 491.843 101.77 492.668 101.77 502.292 106.168 513.292 111.116 528.966 118.538 536.941 124.585 547.39 136.68 555.09 145.476 570.489 163.069 581.489 175.988 623.562 224.642 689.559 285.116 734.107 316.178 780.031 348.339 793.505 357.41 794.33 357.41 794.88 357.41 800.655 360.983 807.254 365.382 828.979 379.675 906.525 420.083 921.375 424.481 924.399 425.581 928.799 428.329 930.724 430.803 934.024 434.377 932.924 436.301 924.125 443.998 907.9 458.017 863.352 488.253 827.329 509.694 788.83 532.784 717.058 568.519 684.61 580.614 646.111 595.182 623.837 603.154 593.588 613.324 575.439 619.372 557.84 626.244 554.265 628.443L547.94 632.566 556.465 643.012C572.414 663.353 564.44 676.547 532.816 683.144 522.366 685.343 508.892 687.268 502.842 687.268 488.543 687.268 415.671 696.888 387.347 702.386 347.199 710.083 329.324 716.955 311.175 731.798 296.876 743.618 291.926 744.443 280.101 737.296Z" fill="#015B7E" fill-rule="evenodd" transform="matrix(1 0 0 -1 1821 1138)"/><path d="M220.922 484.391C203.034 470.083 166.158 431.561 135.06 394.69 88.5515 339.384 41.4925 256.837 12.3215 178.693 10.3951 173.465 6.54229 163.559 4.0655 156.68 1.58871 150.077-0.612877 137.695-0.888075 129.44-1.16327 115.407-0.612877 114.306 9.56947 105.501 40.6669 79.0864 95.4314 47.9938 141.665 30.6589 189.274 13.049 217.62 6.72037 277.063 1.21726 320.544-2.91008 328.249-2.91008 373.382 1.21726 400.352 3.69366 428.697 6.99553 436.127 8.37131 443.833 10.0222 457.318 12.4986 466.399 13.8744 517.861 21.3036 520.063 24.3303 520.063 81.5628 520.063 104.676 518.412 129.165 515.935 142.097 513.733 153.929 511.807 167.687 511.807 172.639 511.807 185.572 500.524 228.771 490.617 254.361 456.217 342.41 401.452 407.072 316.416 459.352 288.346 476.411 249.818 495.122 242.112 495.122 237.159 495.122 229.178 490.995 220.922 484.391ZM158.727 280.5C163.681 277.749 171.111 270.045 175.239 263.716 181.569 254.085 182.945 249.133 182.945 234.825 182.945 218.866 182.119 216.664 173.588 207.859 161.479 195.477 145.518 186.947 133.959 186.947 121.851 187.223 99.009 200.155 91.5787 211.436 80.5707 227.671 85.5243 259.589 100.66 272.521 117.172 286.829 142.766 290.406 158.727 280.5Z" fill="#015B7E" fill-rule="evenodd" transform="matrix(1 0 0 -1 1495 1198)"/><path d="M292.15 255.063C266.026 246.523 188.204 207.679 154.106 186.191 148.331 182.885 143.106 179.854 142.556 179.854 140.906 179.854 106.258 156.162 92.7836 145.693 83.159 138.255 32.0112 94.7274 19.6367 83.4323 17.1619 81.2284 11.3871 75.7185 6.43732 71.5862-7.58707 58.6381-4.01223 53.6792 14.687 59.74 28.9863 64.4234 57.8601 70.4842 94.4335 76.2695 131.007 82.3303 239.627 82.3303 274.001 76.2695 339.173 64.9744 394.445 45.69 429.094 22.5487 435.694 18.1409 441.743 14.5595 442.843 14.5595 443.943 14.5595 448.893 10.9781 453.843 6.29472 463.192-2.24551 470.892-4.44944 470.892 1.06039 470.892 2.98883 468.142 10.1516 465.117 17.0389 461.818 23.9262 457.418 33.5684 455.493 37.9762 434.869 87.2892 397.195 150.652 356.497 204.924 319.374 254.512 310.574 261.4 292.15 255.063Z" fill="#015B7E" fill-rule="evenodd" transform="matrix(1 0 0 -1 2511 1026)"/><path d="M694.552 378.885C620.574 367.06 564.748 351.935 521.021 331.31 460.244 302.71 409.918 274.66 365.916 244.96 359.041 240.285 351.341 235.335 348.866 233.685 343.09 230.11 303.764 202.884 279.288 185.834 225.111 147.334 153.059 100.309 95.5822 65.6586 73.3065 52.1835 51.5808 38.9835 47.4557 36.5084 43.3305 33.7584 37.2803 30.4584 33.7052 28.8084 11.7045 19.1833-2.59598 10.9333-1.77096 8.45828-0.120903 3.23325 151.409 2.95825 196.786 8.18328 242.987 13.4083 295.239 21.9334 349.416 33.4834 394.242 43.1085 481.42 71.1586 527.346 90.9587 532.021 93.1588 537.247 94.8088 538.897 94.8088 540.547 94.8088 545.772 96.4588 550.722 98.6588 555.672 100.859 565.298 104.709 572.173 107.184 579.048 109.659 588.398 113.509 592.799 115.434 597.474 117.359 603.524 119.834 606.549 120.384 609.574 121.209 620.849 124.784 631.3 128.634 695.102 150.634 716.278 153.934 790.805 153.659 853.232 153.384 888.708 149.534 930.785 138.534 937.11 136.884 949.485 133.859 958.56 131.384 988.811 123.959 1051.24 104.434 1071.31 96.1838 1077.36 93.7088 1084.79 90.6837 1087.81 89.5837 1108.17 81.3337 1192.32 37.8834 1222.02 20.0083 1241.82 8.18328 1259.7-1.44177 1261.62-1.44177 1264.37-1.44177 1265.2 5.98327 1265.2 29.6334L1265.2 60.4336 1246.22 87.6587C1198.09 156.684 1127.97 232.86 1069.94 279.335 1034.19 307.935 976.986 340.935 946.185 350.835 942.335 351.935 932.435 355.51 924.184 358.535 865.332 380.81 763.304 389.885 694.552 378.885Z" fill="#015B7E" fill-rule="evenodd" transform="matrix(1 0 0 -1 1857 1444)"/><path d="M-0.753621 267.932C-0.753621 263.536 25.6618 211.613 36.6682 194.58 66.1103 148.975 103.257 106.393 135.451 80.8431 191.859 36.6122 230.656 17.1066 289.54 3.91972 320.083-3.22317 401.806-3.22317 432.899 3.91972 462.891 10.5132 483.253 16.0077 493.985 20.678 498.937 22.8759 504.441 24.5242 506.092 24.5242 510.769 24.5242 588.089 57.7661 601.847 65.7332 608.726 69.5794 616.431 73.7003 619.182 74.7992 625.236 76.997 628.538 84.9641 624.411 87.4366 622.484 88.5355 596.619 89.6344 566.902 90.1839 536.91 90.4586 501.414 91.8322 487.656 93.4806 426.02 100.074 416.114 101.448 402.906 104.195 394.927 105.569 375.115 109.415 358.331 112.437 341.821 115.459 318.157 120.953 306.05 124.525 293.943 128.096 281.561 131.668 278.534 132.492 268.903 134.964 232.032 148.151 223.502 152.272 219.099 154.195 208.368 158.591 200.113 161.887 185.53 167.931 156.913 180.569 131.323 192.932 104.358 205.844 45.4733 242.932 18.2324 264.086 7.22603 272.328-0.753621 273.976-0.753621 267.932Z" fill="#015B7E" fill-rule="evenodd" transform="matrix(1 0 0 -1 1287 1390)"/><path d="M271.916 355.336C262.837 352.586 258.986 348.736 205.065 283.835 133.811 198.308 84.2917 148.807 35.5974 113.057 22.3921 103.431 8.63669 93.2561 4.78516 89.956L-2.09256 84.1809 5.33538 69.0556C13.8638 51.4553 20.7415 28.0798 20.7415 15.7045 20.7415 11.3045 22.3921 4.97933 24.593 2.22928 28.1694-2.72082 28.9948-2.44582 43.3004 7.17938 81.2655 32.2049 152.519 98.7562 195.711 149.357 247.431 209.858 277.143 251.659 298.602 294.835 309.606 316.561 312.632 325.361 312.907 336.636 312.907 347.636 311.807 351.761 307.955 354.786 302.453 358.911 285.121 359.186 271.916 355.336Z" fill="#015B7E" fill-rule="evenodd" transform="matrix(1 0 0 -1 2576 1778)"/><path d="M267.553 232.481C249.421 225.336 243.102 220.114 192.826 170.369 168.65 146.184 132.935 113.754 113.155 98.089 78.5386 70.331 10.4058 23.6098 4.91123 23.6098 3.26286 23.6098 0.790297 21.1364-0.583349 18.388-4.70429 10.6928-0.30862 8.49414 28.2632 3.27236 60.6812-2.49908 84.8574-2.49908 96.1217 3.54719 129.364 20.5867 227.717 114.854 276.069 176.141 284.586 186.859 292.278 195.929 293.102 196.753 298.048 200.876 304.092 212.419 304.092 218.19 304.092 225.61 292.553 237.978 285.685 237.978 282.937 237.703 274.696 235.504 267.553 232.481Z" fill="#015B7E" fill-rule="evenodd" transform="matrix(1 0 0 -1 2427 1661)"/><path d="M206.267 143.98C198.025 139.562 174.945 126.308 155.436 114.711 135.653 102.838 111.749 88.7559 101.858 83.2335 91.9662 77.711 80.4261 71.3603 75.7552 68.5991 71.359 65.8378 62.017 60.5915 55.148 57.002 48.2789 53.1363 38.3875 47.6139 33.167 44.5765 27.9465 41.2631 18.3298 36.0168 12.0102 32.7033-2.55255 24.9719-5.57494 17.5167 3.21782 10.3375 12.5598 3.43448 28.496-0.707334 49.6527-0.983455 72.1833-1.25958 75.7552 0.39715 131.532 39.6063 154.612 55.6214 174.12 68.8752 174.945 68.8752 178.242 68.8752 230.996 111.122 242.811 123.547 252.702 133.488 256 139.01 255.175 143.704 254.351 149.779 252.977 150.331 237.865 150.883 224.402 151.435 218.632 150.055 206.267 143.98Z" fill="#015B7E" fill-rule="evenodd" transform="matrix(1 0 0 -1 2278 1632)"/><path d="M1353.11 554.745C1344.04 548.963 1333.6 535.195 1325.9 519.226 1321.23 510.139 1295.66 467.186 1285.21 451.767 1232.98 373.845 1172.51 313.27 1098.01 264.259 1055.13 236.174 1032.04 224.609 992.727 211.118 959.74 200.104 931.976 192.945 890.467 184.96 858.854 178.902 770.613 178.902 745.048 184.685 701.614 194.597 680.448 204.234 671.651 217.726 667.802 223.508 667.802 225.986 670.551 233.145 676.874 248.013 686.22 250.491 722.506 246.912 861.053 233.696 932.8 246.912 949.294 288.213 952.868 297.024 953.143 301.43 950.943 309.69 944.071 335.572 929.776 342.731 869.575 350.991 826.416 356.774 813.221 359.252 777.76 366.411 719.757 378.526 716.184 379.352 670.276 393.67 639.213 403.582 622.995 411.016 589.732 430.565 517.16 473.519 461.907 500.778 427.27 510.965 389.884 521.979 377.514 525.283 357.172 529.964 302.743 542.63 250.513 542.905 196.359 531.341 129.834 516.748 33.6215 460.027 5.03251 418.45-4.58878 404.408-4.58878 404.133 11.3551 370.816 33.8964 324.008 77.0548 265.36 116.09 228.464 182.339 165.686 255.736 116.95 339.304 80.0545 348.375 76.1997 359.646 71.2436 364.044 69.3162 368.717 67.1134 377.789 63.534 384.661 60.7806 391.534 58.3025 400.055 54.9984 403.354 53.6217 416.824 48.3902 456.409 36.2751 486.372 28.0148 539.152 13.697 618.596 2.40798 684.296-0.345443 757.418-3.37421 881.67 15.0737 931.151 36.2751 936.099 38.4778 942.422 40.1299 944.896 40.1299 947.645 40.1299 950.943 41.2313 952.318 42.3326 953.967 43.434 962.489 47.2888 971.56 50.8682 986.405 56.6504 1051.55 88.0395 1065.02 96.0244 1089.49 110.618 1139.25 147.238 1165.64 170.091 1226.39 222.131 1290.71 298.952 1339.09 377.7 1383.08 448.738 1388.57 463.056 1389.95 513.443 1391.05 545.659 1390.77 547.861 1385 553.919 1377.3 562.179 1365.21 562.454 1353.11 554.745Z" fill="#015B7E" fill-rule="evenodd" transform="matrix(1 0 0 -1 1572 2065)"/></g></svg>