<svg width="2475" height="2475" xmlns="http://www.w3.org/2000/svg" xmlns:xlink="http://www.w3.org/1999/xlink" overflow="hidden"><defs><clipPath id="clip0"><rect x="963" y="0" width="2475" height="2475"/></clipPath></defs><g clip-path="url(#clip0)" transform="translate(-963 0)"><rect x="963" y="0" width="2475" height="2475" fill="#F18A4F"/><path d="M271.989 472.468C229.919 461.917 198.698 449.782 169.328 432.636 90.7456 386.737 35.9757 316.568 11.8982 231.364 9.51686 223.451 6.3418 212.108 4.48968 206.304 2.90214 200.501 0.785433 174.65 0.256255 148.798-0.8021 111.076-0.272922 97.8869 3.43132 81.532 13.7503 33.786 20.8942 12.1553 28.8318 3.45024 33.3298-1.56176 33.859-1.56176 38.8862 2.92266 41.5321 5.29677 52.3802 21.3879 62.6992 38.2705 73.2827 55.153 87.5705 78.1027 94.979 88.9181 102.123 99.7334 108.738 110.285 109.796 112.395 110.59 114.506 122.232 132.707 135.461 152.491 160.597 190.477 192.083 238.751 196.581 246.664 198.169 249.038 207.165 263.019 216.69 277.528 232.036 301.005 242.355 317.096 252.938 335.034 254.791 338.199 258.495 344.003 260.876 347.696 263.257 351.652 269.343 361.413 274.106 369.326 278.604 377.24 284.689 385.418 287.07 387.264 290.246 390.166 305.327 391.221 350.572 391.749 418.571 392.804 418.042 393.067 406.135 370.645 391.583 343.739 379.941 323.163 368.564 303.643 361.949 292.564 356.657 283.067 356.657 282.54 356.657 282.012 353.747 277 350.572 271.46 337.342 250.621 320.409 216.592 321.467 213.691 322.261 211.316 328.875 210.261 341.576 210.261 369.358 210.261 373.326 208.679 371.739 198.655 370.416 191.005 361.155 163.571 348.72 131.124 345.545 123.211 340.253 108.438 337.078 98.1507 333.638 88.1267 329.405 76.52 327.553 72.5631 325.7 68.6063 324.907 63.5943 325.965 60.9564 328.346 55.153 331.521 58.0547 385.497 116.616 472.283 210.525 497.418 239.542 495.831 243.235 494.773 246.4 489.216 247.192 470.695 247.192 457.73 247.192 446.353 248.247 445.559 249.566 444.765 250.621 450.322 259.326 457.995 268.823 465.668 278.319 483.66 300.741 497.948 318.679 525.2 352.444 554.57 387 558.803 389.902 564.624 394.123 557.216 404.674 541.076 415.226 501.917 440.813 454.291 460.861 403.754 472.468 380.47 478.008 293.421 478.008 271.989 472.468Z" fill-rule="evenodd" transform="matrix(1 0 0 -1 1060 1378)"/><path d="M56.5488 222.47C53.379 218.779 50.7376 213.77 50.7376 211.134 50.7376 208.497 49.1528 200.325 47.0396 192.943 44.9265 185.562 41.2285 171.853 38.5871 162.362 30.9269 132.572 21.1537 96.455 15.3425 74.8375 13.2294 67.1922 10.8521 58.4925 10.3238 55.5925 9.53139 52.6926 6.62582 41.0929 3.45611 30.0205 0.55054 18.9481-1.29846 8.13929-0.50603 5.76663 1.60711 0.230416 11.9087-1.61499 30.3986 0.494045 53.379 2.86671 56.8129 5.76663 62.3599 27.1206 78.4726 91.7097 85.3403 113.327 87.9817 109.373 89.3024 107.264 90.359 83.5372 90.359 56.3834 90.359-1.87862 88.2458 1.54856 125.226 1.54856 155.866 1.54856 159.3 3.65759 165.375 25.8024 168.017 35.0295 173.564 53.7471 177.79 67.4558 182.016 81.4282 185.45 94.346 185.45 96.7187 185.45 101.728 192.846 112.273 196.544 112.273 198.393 112.273 198.922 105.682 197.601 91.9734 193.11 38.4566 192.582 9.45744 196.016 5.503 198.393 2.60308 204.469 1.54856 217.412 1.54856 249.373 1.54856 247.26-1.61499 252.542 58.7561 267.334 236.969 266.542 218.779 259.146 223.788 250.693 229.851 185.186 230.379 179.375 224.579 174.356 219.57 170.394 207.97 157.715 161.044 147.414 123.872 143.452 113.591 139.225 112.8 135.263 112.009 134.735 113.327 136.056 123.345 137.112 129.409 138.433 153.135 139.49 175.544 141.603 229.588 143.716 226.688 97.755 227.742 63.6806 228.533 62.3599 228.533 56.5488 222.47Z" fill-rule="evenodd" transform="matrix(1 0 0 -1 1865 1280)"/><path d="M99.076 222.772C95.3778 218.806 92.4721 214.841 92.4721 213.519 92.4721 211.668 82.4341 189.461 61.5657 145.047 43.6031 106.714 37.2633 93.2312 29.867 76.576 25.9046 67.0588 16.9233 48.2886 10.3194 34.2771 3.4513 20.2656-1.56768 7.57592-0.775206 5.98971 0.545577 2.02419 15.0742-0.355336 37.2633-0.355336 50.9995-0.355336 56.2826 0.702345 61.8299 5.1966 65.5281 8.10466 68.698 12.3345 68.698 14.1851 68.698 16.0357 71.0754 23.1736 73.9811 29.7828L79.0001 41.9438 104.887 41.9438C119.152 41.9438 132.36 40.8863 134.473 39.5645 136.322 38.2426 138.699 31.1047 139.492 23.9667 141.341 3.87476 145.832 0.702345 173.832 1.49545 204.474 2.55292 204.739 2.81729 199.72 34.2771 197.606 48.0243 193.908 75.7829 191.531 96.1393 189.153 116.496 185.455 143.99 183.342 157.208 181.229 170.427 179.644 186.024 179.644 191.576 179.644 206.91 174.889 220.921 168.285 225.68 164.058 228.588 155.341 229.645 133.945 229.645 106.472 229.645 105.152 229.381 99.076 222.772ZM126.548 136.588C127.605 133.151 129.454 123.634 130.511 114.909 132.624 96.668 129.982 92.1737 117.567 92.1737 107.265 92.1737 101.718 97.7255 105.152 104.599 111.227 116.231 116.246 129.714 116.246 134.208 116.246 143.726 123.114 145.312 126.548 136.588Z" fill-rule="evenodd" transform="matrix(1 0 0 -1 2132 1281)"/><path d="M35.0322 224.355C31.8517 221.182 29.7314 215.628 29.7314 210.603 29.7314 206.106 27.8761 191.56 25.7558 178.336 21.5152 153.74 17.5396 128.614 9.85343 78.8919 7.46807 63.5521 3.75751 42.1293 1.63719 31.0211-0.483124 20.1775-1.54328 9.06935-0.748163 6.68903 1.37215 1.39945 19.3949-1.50982 38.2127 0.077053 55.4403 1.92841 61.5362 8.27591 61.5362 25.7315 61.8012 32.3435 63.9215 47.9478 66.5719 60.3783 70.2825 78.3629 72.1378 82.8591 76.1134 82.8591 81.6792 82.8591 83.5345 79.9498 89.3654 59.0559 92.0158 50.3281 95.7263 37.8976 97.5816 31.5501 99.7019 24.9381 101.292 17.7972 101.292 15.1524 101.292 6.42456 114.014-0.451906 130.182-0.187426 154.565 0.077053 166.227 2.72185 167.022 8.80487 167.287 11.7141 163.046 28.6408 156.951 46.6254 151.12 64.3455 146.349 80.4788 146.349 82.5946 146.349 84.4459 151.12 89.2066 156.951 93.1738 162.781 96.8765 170.202 104.546 173.648 110.1 187.96 132.846 191.406 176.22 180.804 198.701 169.142 223.562 150.59 229.645 86.4499 229.645 43.7785 229.645 39.8029 229.116 35.0322 224.355ZM120.11 174.104C124.086 171.989 125.146 168.286 125.146 157.971 125.146 139.193 117.46 131.788 97.5816 131.788 89.6304 131.788 82.2093 132.846 81.4142 134.433 78.7638 138.664 85.6548 169.873 90.1605 173.575 95.1962 177.543 112.954 177.807 120.11 174.104Z" fill-rule="evenodd" transform="matrix(1 0 0 -1 2353 1281)"/><path d="M35.6801 226.471C31.4401 223.032 22.6951 186.793 22.6951 173.039 22.6951 168.806 20.8401 155.845 18.7201 143.942 16.6001 132.303 12.8901 110.084 10.5051 94.742 8.38506 79.4001 4.67506 58.7679 2.55506 48.7163 0.435059 38.6647-1.15494 24.3808-1.15494 16.4454-1.15494 2.69056-0.889941 2.42605 7.59006 0.838952 12.0951 0.0454051 23.7551-0.483626 33.2951 0.0454051 54.7601 1.10347 55.2901 1.89701 60.5901 48.1873 63.7701 75.1679 65.6251 83.3678 69.3351 86.013 75.4301 90.2452 83.9101 85.484 86.5601 75.9614 87.6201 72.5227 91.0651 63.0001 94.2451 55.0647 97.4251 47.1292 100.87 37.0776 101.93 32.5808 106.435 15.6518 112.53 4.80669 119.42 2.16153 127.9-1.01266 168.445-1.27717 173.48 1.89701 177.455 4.54217 175.865 15.6518 168.975 31.2583 166.855 36.284 163.41 44.484 161.555 49.2453 159.435 53.7421 156.255 61.6776 154.135 66.4388 137.44 105.587 136.645 109.29 144.33 118.813 151.75 128.335 173.745 161.135 173.745 162.458 173.745 163.252 175.865 166.955 178.78 170.923 193.62 192.348 210.845 219.593 210.845 221.71 210.845 226.735 197.33 229.645 174.01 229.645 154.93 229.645 149.365 228.587 144.065 224.619 140.355 221.71 125.78 202.135 111.47 180.974 97.1601 159.548 83.9101 142.355 82.0551 142.355 77.2851 142.355 77.2851 154.787 82.3201 181.239 84.4401 192.613 86.2951 206.897 86.2951 213.245 86.2951 222.768 85.2351 224.884 79.4051 227 69.8651 230.703 40.4501 230.174 35.6801 226.471Z" fill-rule="evenodd" transform="matrix(1 0 0 -1 2542 1281)"/><path d="M0.781966 223.977C-3.1746 221.601-1.59197 207.611 6.32115 176.463 7.90378 169.864 11.069 157.458 13.1792 148.747 22.4112 110.472 25.0489 100.442 28.7417 87.7715 33.2258 71.4058 33.4895 48.1769 29.2692 23.3643 26.3677 7.26254 26.6315 4.09497 29.7967 2.24723 35.8635-1.71223 78.0668-0.92034 82.8147 3.03912 85.1886 4.88687 88.8814 17.0292 91.7829 32.6031 97.3221 64.0148 99.9598 69.2941 135.833 125.782 138.47 129.742 141.636 135.285 143.218 138.189 144.801 141.092 148.23 147.163 150.868 151.387 153.769 155.874 159.044 164.585 162.473 171.184 166.166 177.783 171.442 187.286 174.343 192.301 177.508 197.317 181.992 205.499 184.366 210.515 188.851 218.962 188.851 219.49 184.103 222.921 178.036 227.408 135.041 227.936 127.392 223.977 124.49 222.393 115.786 208.403 108.137 192.829 86.5075 150.067 78.8581 136.605 75.9566 136.077 74.6378 135.813 73.0552 139.772 72.5276 144.788 72.0001 149.803 70.1537 163.265 68.0435 174.88 65.9333 186.23 64.087 199.956 64.087 205.499 64.087 221.865 55.6463 226.617 27.4228 226.617 15.0256 226.617 2.89213 225.561 0.781966 223.977Z" fill-rule="evenodd" transform="matrix(1 0 0 -1 2770 1278)"/><path d="M7.57172 224.536C4.65269 219.527-1.45074 194.746-1.45074 186.573-1.45074 173.919 2.52976 172.074 28.5357 172.074L52.4187 172.074 50.5611 159.683C49.765 152.565 48.4382 142.81 47.6421 137.801 46.846 132.792 44.4577 116.711 42.3347 102.211 39.9464 87.7113 36.4967 65.3027 34.3737 52.1211 25.882-1.13237 25.3513-0.0778438 57.4606-0.341475 85.0587-0.605106 90.3661 2.8221 92.7544 21.5399 96.2041 48.1667 102.573 92.7203 106.023 112.756 108.146 124.356 110.534 140.174 111.33 148.083 113.984 171.81 114.249 172.074 144.766 172.074L171.303 172.074 175.549 182.091C177.937 187.364 180.325 198.173 181.121 206.082 182.183 217.945 181.387 221.109 177.406 224.009 171.303 228.491 10.4908 229.018 7.57172 224.536Z" fill-rule="evenodd" transform="matrix(1 0 0 -1 2970 1279)"/><path d="M90.323 227.13C88.9974 226.602 80.5132 224.492 71.7638 222.645 41.0086 216.049 25.6309 201.012 11.3138 163.549-2.2079 127.932-5.91974 60.3934 4.15526 37.4408 17.9421 6.83719 59.5678-6.88165 108.882 2.61601 146.531 10.0031 161.378 19.5007 173.574 44.3002 184.18 65.9337 188.687 83.8737 192.664 118.171 199.822 178.586 185.24 211.564 146.796 221.854 133.009 225.547 95.6257 228.977 90.323 227.13ZM129.563 161.174C134.6 151.676 134.6 149.566 131.418 130.834 129.563 119.754 127.176 104.716 126.116 97.3288 123.465 80.7079 115.245 64.087 106.496 58.5467 96.4211 51.6872 72.029 52.4787 64.8704 59.6019 59.5678 64.8784 59.3026 66.989 61.1586 89.414 63.0145 113.686 70.173 146.4 76.0059 157.481 82.6342 169.616 89.2625 172.782 107.291 171.991 123.995 171.463 124.26 171.463 129.563 161.174Z" fill-rule="evenodd" transform="matrix(1 0 0 -1 3144 1280)"/><path d="M524.354 458.631C523.033 456.783 520.391 449.919 518.542 443.319 514.844 428.535 508.239 405.831 504.012 391.839 502.163 386.031 498.729 374.679 496.351 366.759 493.973 358.839 488.426 340.887 484.199 327.159 479.708 313.431 474.424 296.271 472.311 288.879 470.197 281.751 464.649 264.327 460.422 250.599 455.931 236.871 450.912 220.239 448.799 213.639 440.345 185.919 428.192 146.847 418.946 116.487 413.398 98.5346 406.794 81.6386 404.152 78.7346 399.925 73.9826 395.434 73.7186 342.862 73.7186 311.953 73.7186 284.743 74.5106 282.365 75.3026 276.289 77.6786 277.081 86.9186 285.799 115.695 289.762 129.687 295.31 148.695 297.952 158.199 307.198 192.519 317.501 228.159 322.256 241.887 326.747 255.351 324.898 260.103 317.237 254.823 314.331 252.711 296.895 236.343 278.402 218.391 234.548 175.359 155.03 101.175 146.048 94.8386 135.481 87.4466 133.103 91.9346 129.933 123.087 128.612 137.343 125.706 162.159 123.593 177.999 121.479 194.103 119.102 213.111 118.045 220.239 112.497 263.799 110.384 269.079 102.194 256.671 94.2688 244.791 90.5703 238.983 88.721 235.023 87.9285 232.911 69.7001 202.023 48.3015 166.383 0.220705 85.5986-3.21364 78.4706 1.01325 71.6066 3.91923 66.8546 24.5253 53.1266 48.8298 39.6626 66.5299 29.8946 95.3255 18.8066 116.196 13.2626 162.163 1.38257 174.315-0.201638 217.905-0.201638 260.438-0.201638 285.535 2.70257 321.728 12.2066 351.58 19.8626 388.301 35.1746 409.436 48.9026 432.684 63.9506 468.876 102.231 489.482 133.383 499.785 148.695 507.975 161.631 507.975 162.423 507.975 162.951 510.881 168.231 514.315 173.511 527.26 194.367 543.639 237.135 551.565 271.719 558.169 299.703 558.433 378.639 552.093 406.359 542.582 447.279 536.506 461.799 528.845 461.799 528.053 461.799 525.939 460.215 524.354 458.631Z" fill-rule="evenodd" transform="matrix(1 0 0 -1 1186 1574)"/><path d="M11.9307 140.373C10.3366 137.457 7.94545 116.776 6.61702 94.5037 5.2886 72.4969 2.89743 45.4524 1.30332 34.5816-0.556474 23.7108-1.08784 12.3097-0.290789 9.12798 1.56901 2.23429 10.6023-0.947413 17.2444 2.49943 22.2924 5.15085 23.8866 12.5748 27.8718 55.2627 29.2003 70.6409 31.5914 84.1631 32.9198 85.4889 35.5767 88.1403 44.3443 63.4821 50.7207 34.3165 56.3001 9.65827 62.9422-0.151987 74.101-0.151987 83.6657-0.151987 88.1823 5.94628 91.6362 22.9154 93.496 31.3999 96.4186 43.5964 98.544 49.9598 100.67 56.5884 102.264 64.5426 102.264 67.9895 102.264 76.474 106.78 84.6934 111.297 84.6934 116.079 84.6934 118.205 73.0272 118.205 47.8387 118.47 15.4914 124.05-0.151987 135.74-0.151987 141.319-0.151987 147.696 8.06741 146.102 13.3703 145.305 16.0217 143.445 35.377 141.851 56.0581 139.194 97.9505 133.88 137.192 130.692 142.494 127.504 147.532 103.592 146.737 99.3411 141.169 95.8872 137.192 92.699 125.525 86.5882 93.9734 82.3373 73.2923 76.7579 57.1187 73.304 56.0581 69.5844 54.7324 62.4109 71.1712 62.4109 80.9814 62.4109 88.1403 55.5031 117.836 50.9864 130.563 46.7355 142.494 41.9531 145.676 27.8718 145.676 17.5101 145.676 14.0562 144.616 11.9307 140.373Z" fill-rule="evenodd" transform="matrix(1 0 0 -1 1861 1474)"/><path d="M2.69161 142.252C-0.223258 140.657-0.753234 130.025-0.753234 95.2036-0.223258 8.54966 8.25636-3.67759 65.2288 0.575363 80.0681 1.6386 82.983 2.70184 90.9326 10.9419 96.2324 16.2581 100.472 23.9666 101.532 29.8144 103.917 43.6365 107.097 112.747 106.037 128.696 104.977 140.391 104.182 142.252 98.0873 143.847 84.043 147.302 82.983 144.378 81.6581 92.5455 80.0681 40.181 77.9482 31.9409 64.6988 25.2957 58.8691 22.6376 53.8343 22.3718 44.8247 23.9666 25.7456 27.688 23.6257 34.3332 23.3607 91.7481 23.3607 124.177 22.3007 139.328 20.1808 141.455 16.471 145.176 7.72639 145.442 2.69161 142.252Z" fill-rule="evenodd" transform="matrix(1 0 0 -1 2029 1473)"/><path d="M0.914119 138.035C-1.46105 130.637-1.46105 34.7252 1.17803 20.1931 4.08101 1.69767 8.56745-0.151875 48.9454-0.151875 85.3646-0.151875 91.4345 1.43345 88.5315 10.9454 85.8925 19.1362 77.1835 22.3068 57.3904 22.5711 47.098 22.8353 35.75 23.8922 32.3192 25.2133L26.2493 27.5913 26.2493 81.4922C26.2493 140.942 25.4576 143.848 10.4148 143.848 4.87274 143.848 2.23366 142.263 0.914119 138.035Z" fill-rule="evenodd" transform="matrix(1 0 0 -1 2159 1473)"/><path d="M2.27427 142.45C0.423629 140.593-0.89826 136.881-0.89826 133.699-0.89826 125.214 4.3893 121.767 17.6082 121.767 24.2176 121.767 31.0915 120.441 32.9421 118.585 35.3215 116.199 36.1147 99.7592 36.1147 60.2508 36.1147 8.54516 36.379 5.09812 41.1378 2.44654 48.276-1.26566 55.943-1.0005 59.3799 3.24202 60.9662 5.09812 62.2881 27.6365 62.8168 59.4553 63.0812 88.6226 64.4031 114.608 65.725 117.26 67.5756 120.707 71.2769 121.767 81.852 121.767 89.519 121.767 97.186 123.093 99.0366 124.949 103.531 129.457 103.002 142.184 97.9791 144.04 89.7834 147.222 5.71119 145.897 2.27427 142.45Z" fill-rule="evenodd" transform="matrix(1 0 0 -1 2238 1474)"/><path d="M0.888713 143.763C-0.16292 142.967-0.951645 111.413-0.951645 73.7609-0.951645 8.797-0.688737 5.08478 4.04361 2.4332 10.6163-1.01387 19.2923-1.01387 21.3956 2.4332 24.2876 6.94089 25.0763 135.808 22.4472 140.846 19.8181 145.619 4.56943 147.74 0.888713 143.763Z" fill-rule="evenodd" transform="matrix(1 0 0 -1 2360 1474)"/><path d="M17.6076 142.613C2.70391 135.748-1.02201 127.299-1.02201 101.159-1.02201 76.8667 0.840951 73.4342 16.543 65.2488 23.9949 61.5522 32.2451 60.232 46.3503 60.232 57.7942 60.232 67.109 58.9118 68.972 57.0635 74.2947 51.7826 72.964 32.7715 67.109 27.4906 62.8508 23.53 57.5281 23.0019 34.3742 23.53 5.09914 24.5862 0.308677 23.2659 0.308677 15.3447 0.308677 6.63123 11.4864 2.14249 35.4387 0.29419 62.3186-1.55411 82.2788 2.40654 90.7952 11.384 95.8518 16.6649 96.6502 20.6255 96.9164 44.3894 97.1825 71.0578 96.9164 71.0578 89.1984 77.3948 83.0772 82.4116 76.9561 83.9959 58.8588 85.3161 30.6483 87.6925 24.261 91.1251 24.261 104.591 24.261 121.49 25.8578 122.018 62.0524 123.602L94.7873 124.923 95.5857 131.788C96.6502 141.557 86.2709 145.518 54.8667 146.574 33.0435 147.366 26.3901 146.574 17.6076 142.613Z" fill-rule="evenodd" transform="matrix(1 0 0 -1 2406 1476)"/><path d="M11.2787 136.684C2.01028 130.36 1.48066 129.043-0.108219 110.862-1.16747 100.323-1.43228 73.9742-0.637843 52.3684 0.421406 14.4265 0.686218 13.1091 7.57134 6.2585 14.4565-0.592115 14.9861-0.592115 48.3524 0.19834 88.0743 0.988795 90.7224 1.51577 92.8409 10.4743 96.0187 22.3311 88.6039 25.2294 60.5338 23.385 29.5508 21.5406 24.5193 24.439 25.5786 42.356L26.373 54.7398 54.1783 56.0572C81.7188 57.3746 81.9836 57.3746 82.7781 64.2252 84.1021 74.5011 77.7466 77.3995 51.0006 79.2439L26.373 81.0883 25.5786 94.7895C24.2545 116.132 29.0211 119.294 61.5931 119.294 87.8095 119.294 93.9002 121.138 93.9002 129.833 93.9002 137.738 83.0429 140.899 51.795 142.217 22.136 143.534 20.812 143.271 11.2787 136.684Z" fill-rule="evenodd" transform="matrix(1 0 0 -1 2524 1472)"/><path d="M2.6292 143.741C0.261055 142.159-0.791453 124.234-1.05458 75.2021-1.58083 4.55464-0.791453 0.864101 11.0493 0.864101 24.7319 0.864101 25.5213 2.44576 25.5213 28.5432 25.5213 56.7494 27.8894 61.2308 41.8351 57.2766 49.2027 55.1678 52.0971 51.2136 63.1484 29.0704 74.9892 5.87269 77.0942 3.23659 85.5142 0.864101 95.25-1.772 101.828 0.864101 101.828 7.19074 101.828 8.7724 97.0918 19.3168 91.303 30.652 85.5142 41.7237 80.778 52.2681 80.778 53.8497 80.778 55.4314 84.988 61.4944 89.9874 67.5574 98.9337 77.8382 99.1969 79.1563 99.1969 98.6634 99.1969 138.996 90.2505 145.85 37.8882 145.85 20.2587 145.85 4.47109 144.795 2.6292 143.741ZM71.5685 115.271C74.726 110.262 75.7785 105.254 74.726 97.3454 72.621 82.5832 65.5166 77.311 47.8871 77.311 29.4682 77.311 25.5213 81.2652 25.5213 99.7179 25.5213 121.597 26.0475 122.125 47.8871 122.125 65.7797 122.125 67.3585 121.597 71.5685 115.271Z" fill-rule="evenodd" transform="matrix(1 0 0 -1 2632 1475)"/><path d="M0.509217 143.034C-2.67 140.133-1.61026 132.221 3.95337 115.077 6.86766 106.11 11.3715 92.1311 13.756 84.2186 16.1404 76.3062 21.1741 59.6901 25.1482 47.2939 29.1222 34.8978 33.3611 21.7104 34.156 17.4904 35.2157 13.5342 38.13 7.99551 41.0443 5.09428 47.1378-0.971921 61.7092-2.02691 68.0676 3.24804 71.7767 6.14927 78.93 25.1391 92.7066 69.7125 95.3559 78.4162 98.5351 86.8561 99.8598 88.4386 103.834 93.9773 115.491 132.748 114.696 138.023 114.166 142.507 112.047 143.562 103.304 143.562 93.2365 143.562 92.4416 142.771 87.1429 131.693 83.9637 125.1 79.7248 114.022 77.6053 106.637 60.6494 49.6677 60.6494 49.4039 55.0858 50.4589 52.1715 50.9864 49.5222 55.9976 47.4027 64.4376 45.8131 71.8225 42.3689 84.2186 39.9845 92.1311 37.6001 100.044 34.4209 111.121 32.8313 116.923 29.3871 130.638 23.5586 141.188 18.5248 143.298 12.6962 145.408 2.6287 145.408 0.509217 143.034Z" fill-rule="evenodd" transform="matrix(1 0 0 -1 2746 1474)"/><path d="M1.48892 141.159C-1.37889 135.894-2.42172 15.0649 0.185371 7.95726 2.53176 1.63937 13.4816-2.3093 19.7386 1.11288 24.4314 3.74534 24.6921 7.43077 24.6921 71.6626 24.6921 120.889 23.9099 140.37 21.5636 142.739 16.8708 147.477 4.35672 146.687 1.48892 141.159Z" fill-rule="evenodd" transform="matrix(1 0 0 -1 2881 1475)"/><path d="M30.1323 139.198C22.2298 136.279 15.6444 133.89 15.381 133.89 12.22 133.89 4.84437 115.575 1.94679 100.711-2.53128 77.0878-2.53128 62.7546 2.21021 40.7239 6.42486 19.7549 10.1127 13.1191 22.2298 5.6871 29.8689 0.909359 35.4006-0.152361 56.4739-0.152361 86.24-0.152361 94.9327 1.97108 96.7766 9.13769 99.1474 18.6932 92.0351 22.4092 70.1716 22.6746 45.147 22.9401 39.8787 24.5326 33.0299 33.2918 26.4445 41.7856 23.5469 67.7978 25.9177 92.4828 27.7616 108.674 28.5518 110.267 37.2446 115.575 45.4105 120.618 49.0983 121.149 69.1179 120.087 95.9864 118.495 98.6205 119.026 98.6205 127.52 98.6205 141.853 56.7374 149.285 30.1323 139.198Z" fill-rule="evenodd" transform="matrix(1 0 0 -1 2926 1473)"/><path d="M0.758841 141.556C-1.15115 139.445-1.69686 114.903-1.42401 71.6261-0.60544-0.414946-0.60544-0.151059 13.8559-0.151059 17.6759-0.151059 22.0416 0.904487 23.4059 1.96003 27.4987 4.5989 27.4987 140.237 23.6788 142.875 18.7673 146.042 3.76026 145.25 0.758841 141.556Z" fill-rule="evenodd" transform="matrix(1 0 0 -1 3045 1474)"/><path d="M24.8948 138.052C16.1837 133.572 11.1682 128.565 5.8887 118.815-0.974626 106.43-1.50257 103.795-1.50257 70.0658-1.50257 19.4718 5.36075 6.82326 34.9259 1.02603 41.7892-0.291522 55.5158-0.555032 65.2829 0.49901 80.0654 1.81656 85.0809 3.66114 92.2082 9.98539 106.463 22.3704 110.422 36.6 110.422 76.9171 110.686 111.437 110.686 111.964 102.767 123.031 91.4163 139.106 80.5934 143.849 56.5717 143.849 40.9973 143.849 33.87 142.531 24.8948 138.052ZM73.2021 115.39C81.6493 105.903 85.6089 91.6737 85.6089 69.5388 85.6089 36.0729 76.3698 22.6339 53.932 22.6339 28.8545 22.6339 22.2551 32.1203 22.2551 67.6942 22.2551 94.3088 27.5346 111.7 37.3016 117.234 45.4848 121.977 68.4506 120.923 73.2021 115.39Z" fill-rule="evenodd" transform="matrix(1 0 0 -1 3089 1473)"/><path d="M16.9223 142.707C1.8429 135.077-1.59626 127.185-1.59626 101.665-1.33171 82.723-0.538059 77.7244 3.69476 72.9888 11.8958 64.0438 24.3297 60.0975 44.171 60.0975 58.4568 60.0975 63.2187 59.0452 66.6579 55.3619 73.0071 48.5217 72.2134 35.1042 65.3351 28.527 60.3086 23.7914 56.0758 23.2652 31.208 23.2652 4.48841 23.2652 2.63655 23.0021 1.04925 17.7404-2.91902 5.90145 14.0122-0.149566 48.6684-0.149566 85.7055 0.113521 95.2294 8.53233 97.0812 42.9968L98.404 65.3593 88.6156 74.5673C78.8272 83.5123 78.2981 83.7754 56.8695 83.7754 30.6789 83.7754 23.5361 88.2479 23.5361 104.296 23.5361 120.871 25.1234 121.66 59.7795 123.239L90.9966 124.554 91.7902 131.394C92.5839 137.445 90.9966 139.024 81.7373 142.707 67.7161 148.232 28.0334 148.232 16.9223 142.707Z" fill-rule="evenodd" transform="matrix(1 0 0 -1 3223 1476)"/></g></svg>