<svg width="1785" height="1690" xmlns="http://www.w3.org/2000/svg" xmlns:xlink="http://www.w3.org/1999/xlink" overflow="hidden"><defs><clipPath id="clip0"><rect x="1293" y="468" width="1785" height="1690"/></clipPath><clipPath id="clip1"><rect x="1292" y="467" width="1786" height="1368"/></clipPath><clipPath id="clip2"><rect x="1292" y="467" width="1786" height="1368"/></clipPath><clipPath id="clip3"><rect x="1292" y="467" width="1786" height="1368"/></clipPath><clipPath id="clip4"><rect x="1292" y="467" width="1786" height="1368"/></clipPath></defs><g clip-path="url(#clip0)" transform="translate(-1293 -468)"><g clip-path="url(#clip1)"><g clip-path="url(#clip2)"><g clip-path="url(#clip3)"><g clip-path="url(#clip4)"><path d="M392.267 915.395C248.695 913.755 200.916 911.886 188.269 906.976 185.224 905.806 175.387 902.297 166.252 899.257 138.147 890.13 114.024 874.701 82.1707 845.929 59.218 825.113 43.7601 804.765 30.6443 778.57 4.41273 725.478-1.20858 699.516-1.20858 631.924-0.974199 576.96 1.83614 557.08 15.1863 519.425 29.2389 479.664 42.8231 457.679 69.7575 431.251 102.078 399.442 136.039 380.263 180.54 368.803 196.466 364.593 199.042 365.529 216.14 381.433 225.039 389.852 235.345 398.974 238.624 401.547 249.866 410.435 245.416 416.048 224.805 418.854 184.521 424.468 139.553 445.985 110.51 473.583 92.2413 490.891 84.0445 503.521 68.8206 538.603 48.4444 585.381 47.2732 663.966 66.0102 720.332 86.6205 782.078 145.174 837.743 203.727 851.074 250.803 861.833 254.551 862.064 464.403 862.064L663.951 862.064 666.294 855.985C667.699 852.712 668.636 832.363 668.636 810.612 668.636 775.062 668.168 770.851 664.42 768.747 662.078 767.577 594.157 766.408 495.319 766.408 404.446 766.174 317.085 765.472 300.924 764.77 255.252 762.666 233.471 754.48 210.284 730.857 194.123 714.485 184.755 694.839 178.665 664.434L173.747 639.876 178.9 617.189C185.224 589.59 195.061 570.178 210.753 554.274 224.103 540.943 248.695 527.845 266.964 524.57 273.521 523.401 337.226 521.764 408.661 520.829 554.106 518.957 545.207 519.893 585.725 500.714 621.325 483.641 657.628 446.686 672.149 413.007 682.923 387.514 685.733 374.416 692.057 316.646 694.165 297.468 694.165 286.242 692.057 268.701 690.652 256.07 688.544 237.827 687.373 228.238 684.796 205.785 679.878 189.179 667.699 161.815 660.907 146.612 651.772 134.216 636.315 119.481 619.452 103.577 615.704 101.004 612.425 103.109 611.02 104.045 610.083 133.046 610.083 181.461L610.083 258.175 587.364 278.991C574.951 290.217 556.682 307.058 546.846 316.412 537.243 325.534 525.299 336.059 520.848 339.801 512.417 346.584 474.475 381.199 434.659 418.854 404.68 447.154 405.383 446.686 398.824 443.179 395.779 441.541 385.943 433.823 376.809 426.104 339.335 393.828 326.921 383.538 295.303 359.214 263.216 334.188 258.766 330.68 222.697 301.444 206.537 288.346 190.845 276.184 188.035 274.781 184.052 272.676 162.506 272.442 101.844 273.612 57.3442 274.547 18.9338 275.716 16.3572 276.418 13.7809 277.12 9.79937 276.184 7.22307 274.314 3.0074 271.273 2.77303 264.958 2.07052 136.321 1.13364 10.0232 1.3677 1.36919 5.34931-0.267924 12.3759-3.54245 503.282-0.0338755 523.425 3.47439 590.878 14.7008 635.612 35.0488 672.383 70.8331 703.065 100.77 719.694 128.135 735.386 175.614 748.736 215.608 751.078 236.19 749.908 303.549 748.736 367.867 747.565 377.925 735.62 413.708 725.784 442.711 723.207 447.856 704.938 476.156 686.202 504.924 659.736 532.99 636.783 548.427 616.876 561.758 584.086 578.364 570.736 581.872 566.052 583.041 557.386 585.147 551.53 586.55 544.504 588.421 500.238 589.356 421.543 589.356 302.798 589.59 302.095 589.59 292.493 594.736 279.611 601.752 266.964 616.487 263.45 629.351 257.829 649.699 269.306 672.386 290.385 682.209 299.284 686.419 310.293 686.653 511.011 686.653 627.181 686.653 723.676 687.354 725.784 688.056 729.063 689.226 729.531 701.387 729.531 799.853 729.531 865.104 728.594 911.416 727.189 913.525 724.613 917.734 642.17 918.195 392.267 915.395ZM405.851 357.577C413.814 350.56 470.962 296.532 500.94 267.531L529.28 240.166 531.153 153.628C532.325 105.916 532.559 64.9861 531.857 62.8812 530.452 59.3726 513.119 59.1389 301.626 60.5423 148.452 61.7116 71.8656 63.1149 70.2259 64.7521 68.8206 66.1555 67.884 92.3506 67.884 138.894L67.884 210.696 136.508 211.398 205.132 211.866 217.31 220.052C224.103 224.495 235.813 233.618 243.777 240.4 256.424 251.392 318.958 301.21 340.506 317.582 345.19 320.857 359.945 332.317 373.53 342.608 386.88 353.133 398.824 361.552 399.527 361.552 400.464 361.552 403.274 359.682 405.851 357.577Z" fill="#2A4365" fill-rule="evenodd" transform="matrix(1.00026 0 0 -1 1778.11 1385.88)"/><path d="M-0.129057 81.3883C-2.23432 79.2875-1.0648-0.0814532 1.27455-1.01524 2.44408-1.24885 18.1172-1.24885 35.6616-0.548349L67.9435 0.618737 68.6451 38.9026C69.113 64.1141 68.4113 78.1204 66.7736 79.7543 64.4345 82.0888 2.2103 83.7228-0.129057 81.3883Z" fill="#2A4365" fill-rule="evenodd" transform="matrix(1.00026 0 0 -1 2136.82 1255.24)"/><path d="M138.86 334.276C112.623 329.825 97.1612 324.671 83.1053 316.239 62.7244 304.058 42.3434 286.255 29.9277 270.091 19.62 256.504 5.32982 228.394 5.32982 221.367 5.32982 219.258 3.69007 212.231 1.81588 205.906-3.1037 189.977-2.86927 140.081 2.05031 122.747 9.07821 97.6812 10.7179 93.2301 16.3402 81.0494 33.9099 43.3349 67.4095 14.5218 106.063 3.98045 125.507-1.40742 185.01-2.11006 204.454 2.80929 222.257 7.26012 247.324 19.9096 258.569 30.451 274.264 44.9746 300.502 88.0772 300.502 99.0866 300.502 106.349 293.708 107.989 266.533 107.051 252.478 106.583 239.124 106.115 236.782 106.115 234.205 106.115 230.457 101.898 226.943 95.1043 219.212 79.8783 206.093 67.9314 189.461 60.6694 177.982 55.516 172.36 54.5789 153.853 54.5789 129.489 54.5789 115.433 59.4982 98.3326 73.5534 86.1509 83.392 71.6264 106.583 66.2383 124.621 60.1476 143.595 59.9131 183.652 65.3012 202.392 79.357 249.711 112.623 277.118 155.961 277.118 186.181 277.118 203.517 268.451 220.852 244.557L231.394 230.268 264.659 230.268C304.484 230.268 303.781 229.332 288.554 259.784 271.452 294.219 242.17 319.753 209.608 329.123 194.38 333.34 151.51 336.618 138.86 334.276Z" fill="#2A4365" fill-rule="evenodd" transform="matrix(1.00026 0 0 -1 2466.49 1834.15)"/><path d="M92.1312 329.168C51.3987 320.956 20.2636 293.038 10.1974 255.032-1.9755 209.517 25.4139 163.535 73.4039 148.754 81.1289 146.408 92.1312 143.123 97.7495 141.482 103.603 139.604 110.157 138.197 112.498 138.197 115.073 138.197 122.564 136.554 129.119 134.443 160.488 124.589 169.617 120.367 178.046 111.921 185.536 104.413 186.941 101.363 186.941 93.1515 186.941 78.6059 180.62 68.0486 167.043 59.8374 155.806 52.7992 154.402 52.5644 128.417 52.5644 106.412 52.5644 100.091 53.2684 93.3018 57.022 78.5539 64.9987 70.8288 72.2717 64.2738 84.2367L57.9534 95.9675 28.6911 95.9675-0.336904 95.9675-0.336904 88.2249C-0.336904 78.8407 5.51562 61.0103 12.5385 48.3416 25.6479 25.5843 49.7598 9.39644 80.1925 3.06224 100.559-1.39536 147.613-1.63013 168.213 2.12377 195.368 7.51953 220.885 22.7692 232.59 40.8341 258.809 80.9521 254.829 129.516 222.758 159.78 219.247 163.3 209.883 169.165 202.157 172.919 188.112 179.723 184.366 180.896 145.974 189.811 119.053 196.38 98.9201 202.479 89.3229 207.407 67.0832 218.667 63.3377 253.624 82.7675 267.935 92.366 274.974 115.541 279.665 131.46 277.789 155.806 274.974 166.809 267.935 174.3 251.043 176.64 245.882 179.684 241.19 181.323 240.486 186.473 238.609 235.399 238.375 238.442 240.251 242.422 242.832 240.081 260.897 233.76 274.974 227.439 289.285 209.414 307.115 190.921 317.438 165.17 331.983 127.948 336.206 92.1312 329.168Z" fill="#2A4365" fill-rule="evenodd" transform="matrix(1.00026 0 0 -1 1293.85 1833.29)"/><path d="M114.271 326.278C112.865 325.34 108.177 314.556 103.959 302.366 99.9746 290.175 95.287 277.984 93.8807 275.406 92.7084 272.827 90.5994 267.669 89.6619 263.684 87.5529 255.948 81.4589 238.13 78.412 230.863 77.2399 228.285 75.5994 224.065 75.1306 221.486 74.4277 218.907 70.4432 207.889 66.4588 196.87 62.4744 185.852 56.3807 168.973 53.0993 159.361 49.8179 149.748 42.5524 128.65 36.6929 112.474 31.068 96.2979 23.0991 74.2612 19.3492 63.2428 15.3649 52.2244 9.03654 35.1105 5.05218 25.0298 1.30201 14.9491-1.27608 5.10283-0.572772 3.22758 1.30201-1.93019 59.8963-1.69559 64.3492 3.69647 67.8651 8.15045 72.7867 20.5755 76.0681 33.9384 79.818 48.7079 85.2088 63.946 88.9592 69.8069 92.2396 74.9644 92.7084 74.9644 153.178 74.9644L213.881 74.9644 217.397 68.4003C219.272 64.8838 223.023 55.0374 225.6 46.8323 228.413 38.3926 232.397 25.9676 234.507 19.1692 236.85 12.3705 240.132 5.33742 242.007 3.93076 244.116 2.0552 255.835 1.11743 275.991 1.11743L306.695 1.11743 306.46 8.15045C306.226 15.4181 298.491 37.9238 287.007 66.7593 283.257 75.9021 276.928 92.0783 272.71 103.096 268.725 114.115 263.804 127.009 261.929 131.932 255.131 149.748 242.476 184.21 235.443 203.903 233.803 208.358 229.35 220.548 225.6 230.863 221.615 241.179 217.631 252.197 216.46 255.479 200.522 302.366 192.553 322.761 189.272 325.106 184.584 328.388 118.959 329.561 114.271 326.278ZM162.553 228.987C170.053 204.841 175.444 189.603 185.053 162.877 189.741 149.983 193.725 135.683 193.959 131.229L194.193 123.023 155.522 123.023C134.193 123.023 115.444 123.258 114.037 123.962 110.052 124.899 110.287 133.807 114.271 143.419 115.912 147.639 119.194 157.016 121.537 164.049 123.646 171.082 126.928 180.694 128.569 185.149 130.209 189.603 135.131 204.372 139.349 217.969 143.568 231.567 148.022 243.757 148.959 245.398 153.178 250.79 157.396 245.632 162.553 228.987Z" fill="#2A4365" fill-rule="evenodd" transform="matrix(1.00026 0 0 -1 1561.18 1833.29)"/><path d="M1.97547 325.866C-0.370691 324.93-1.0747 290.297-1.0747 164.633-1.0747 8.78125-0.839925 4.335 3.38287 1.99511 5.9638 0.82485 19.571-0.3451 33.8818-0.3451 55.7003-0.3451 59.9232 0.356808 62.0348 3.6331 63.2078 5.97331 63.677 27.2681 62.973 56.9877 62.0348 93.0252 62.2693 107.768 64.3808 111.513 66.9613 116.426 68.369 116.894 89.953 116.192L112.475 115.491 123.971 96.7693C130.306 86.4728 140.862 67.5182 147.197 54.6475 177.462-6.19547 170.423-0.3451 214.764-0.3451 248.782-0.3451 249.955-0.110925 249.955 4.56919 249.955 7.14325 238.929 27.5023 225.556 49.4993 193.18 103.088 184.03 120.17 185.438 124.149 186.142 125.787 192.945 131.169 200.687 136.084 226.025 152.464 237.286 169.079 243.151 198.564 246.671 216.583 244.559 243.026 238.224 259.875 231.656 277.894 214.06 298.019 196.23 308.783 171.127 323.994 165.731 324.696 80.8033 326.101 39.0434 326.803 3.38287 326.569 1.97547 325.866ZM153.062 263.853C185.438 251.685 188.957 199.969 158.927 178.673L148.604 171.653 108.487 170.717C72.123 170.015 68.1346 170.483 65.3192 174.227 61.0964 179.844 60.8616 259.407 65.0847 263.619 68.6039 267.129 143.444 267.597 153.062 263.853Z" fill="#2A4365" fill-rule="evenodd" transform="matrix(1.00026 0 0 -1 1913.91 1832.44)"/><path d="M0.171063 325.737C-3.33388 322.224-0.99715 314.261 7.41476 301.849 12.3217 294.589 23.5374 276.556 32.4167 261.801 41.0621 247.047 54.8483 224.799 62.7929 212.62 85.6915 177.491 97.8425 158.287 104.619 147.748L110.694 137.678 110.694 73.2737C110.694 33.2258 111.629 6.76191 113.031 3.95144 115.367-0.0299118 118.171-0.498324 145.276-0.498324 165.371-0.498324 176.119 0.438501 177.988 2.31215 180.091 4.41985 180.792 23.1554 180.792 72.8053L180.792 140.254 186.868 151.261C190.372 157.35 194.812 164.844 196.915 168.123 199.018 171.402 201.822 176.086 203.458 178.662 205.094 181.238 210.235 189.669 214.908 197.398 219.581 205.126 226.824 217.304 230.563 224.331 234.302 231.356 240.377 241.661 244.115 247.282 247.854 252.902 250.891 257.821 250.891 258.289 250.891 258.758 255.331 265.783 260.939 273.98 278.931 300.444 290.614 320.116 290.614 323.864 290.614 326.909 285.473 327.376 255.565 327.376 222.151 327.376 220.515 327.143 217.011 322.224 213.74 317.54 175.652 252.902 168.174 239.553 161.866 228.077 148.313 208.405 145.51 206.531 143.64 205.595 141.303 206.531 139.434 209.341 134.294 216.368 92.4685 287.095 83.3551 303.957 70.7374 327.61 70.971 327.376 33.8187 327.376 16.0602 327.376 0.872233 326.674 0.171063 325.737Z" fill="#2A4365" fill-rule="evenodd" transform="matrix(1.00026 0 0 -1 2171.83 1832.44)"/><path d="M0.659997 324.447C-1.44897 322.34-2.15186 283.235-2.15186 163.111-2.15186 24.9556-1.68316 4.34949 1.36319 1.77378 6.51852-2.44129 58.3069-0.333604 61.3535 4.34949 62.7593 6.22286 63.4624 34.3221 62.9938 72.7245 62.5251 127.753 62.9938 138.29 65.8056 140.163 67.9149 141.334 95.801 142.036 131.42 141.568L193.52 141.1 194.222 74.5976C194.457 30.3413 195.629 6.92522 197.269 4.81783 200.549 1.07111 249.995 0.368753 255.619 4.11517 258.665 5.98854 259.134 26.829 259.837 163.579 260.306 280.659 259.603 321.638 257.728 324.213 255.619 326.789 248.589 327.257 225.389 326.789L195.863 326.086 194.691 264.033 193.52 201.981 129.78 201.279 66.0401 200.811 63.228 205.962C61.119 209.709 60.8848 226.1 61.8222 266.609 62.5251 305.48 62.2906 322.808 60.4161 324.682 56.6666 328.428 4.40954 328.194 0.659997 324.447Z" fill="#2A4365" fill-rule="evenodd" transform="matrix(1.00026 0 0 -1 2817.51 1832.44)"/></g></g></g></g><text fill="#2A4365" font-family="Poppins Medium,Poppins Medium_MSFontService,sans-serif" font-weight="500" font-size="128" transform="matrix(1 0 0 1 1504.77 2044)">SERVICIOS GENERALES</text></g></svg>