<svg xmlns="http://www.w3.org/2000/svg" width="734" height="720" overflow="hidden"><defs><clipPath id="a"><path d="M273 0h734v720H273z"/></clipPath></defs><g fill="#011248" fill-rule="evenodd" clip-path="url(#a)" transform="translate(-273)"><path d="M766.594 1.34c-23.173 1.593-44.673 4.355-71.11 9.298-30.536 5.61-56.052 12.31-93.28 24.543-24.178 7.954-49.192 16.583-59.399 20.603-1.59.67-9.286 3.433-17.15 6.28-7.78 2.849-16.815 6.199-20.078 7.539-3.18 1.34-11.294 4.608-17.987 7.206-15.393 5.945-33.63 13.65-34.718 14.655-.419.42-1.423.756-2.176.756-1.59 0-2.928 1.422-2.091 2.26.25.253 2.259-.168 4.434-.92 2.175-.756 11.712-3.603 21.166-6.366 16.732-4.858 22.504-6.618 28.444-8.376 5.02-1.425 12.8-3.517 15.895-4.187 1.59-.335 5.94-1.507 9.62-2.512 3.682-1.01 8.032-2.181 9.622-2.516 1.59-.418 5.354-1.255 8.366-1.925 37.814-8.878 66.593-14.908 92.025-19.431 4.35-.756 10.625-1.843 13.804-2.513 7.697-1.508 18.907-3.436 29.281-5.026 4.601-.67 11.796-1.842 15.895-2.513 17.485-2.847 53.124-7.288 77.385-9.633 33.213-3.265 86.087-3.182 106.668.085 31.873 5.025 45.759 11.726 64.918 31.408 28.024 28.897 39.153 60.642 39.235 111.736 0 14.406-1.756 43.97-3.262 54.024-.502 3.182-1.421 9.966-2.176 15.076-.751 5.026-1.838 12.062-2.507 15.493-.67 3.436-1.759 9.634-2.511 13.822-.755 4.105-2.845 15.244-4.768 24.71-1.842 9.463-3.683 18.929-4.1 21.105-.334 2.264-.836 4.356-1.089 4.691-.25.42-.837 2.933-1.336 5.695-4.519 25.38-23.091 99.842-31.374 125.556-.585 1.842-2.258 7.287-3.765 12.145-14.64 48.328-35.388 96.824-56.136 131.249-15.307 25.547-27.522 41.46-45.425 59.385-29.533 29.483-56.304 44.141-93.783 51.512-15.561 3.015-48.941 1.675-65.757-2.597-2.091-.502-4.935-.837-6.274-.67l-2.426.335 2.091.922c2.845 1.172 7.111 2.68 12.131 4.104 3.765 1.089 7.697 2.094 22.17 5.78 4.601 1.088 14.055 2.763 27.607 4.773 10.039 1.424 35.473 1.173 44.423-.418 6.36-1.173 15.06-3.35 22.087-5.529 5.605-1.675 18.07-7.622 26.268-12.563 21.837-12.983 42.917-32.415 63.75-58.715 5.855-7.371 8.366-10.721 17.903-24.709 3.597-5.193 18.821-30.32 18.821-30.991 0-.167 1.172-2.345 2.596-4.774 7.864-13.234 24.929-49.753 32.543-69.352 11.378-29.399 21.585-59.218 25.349-74.126.25-.922 1.339-4.858 2.508-8.796 2.845-9.632 5.271-19.684 11.043-46.065 6.443-29.233 10.794-63.826 15.228-122.291 2.091-27.64 2.091-91.963 0-108.885-1.841-14.657-5.69-34.091-8.116-40.624-.335-.92-1.254-3.767-2.09-6.28-5.606-18.091-17.151-37.105-30.873-50.673-11.208-11.224-30.282-25.548-43.166-32.502C889.742 4.69 830.761-3.015 766.594 1.34"/><path d="M817.271 34.425c-14.053.67-38.654 2.848-48.105 4.106-3.181.502-10.21 1.422-15.481 2.178-15.73 2.177-27.443 4.102-54.8 8.792-5.773 1.005-24.683 4.773-31.795 6.365-3.177.753-8.365 1.843-11.46 2.513-17.236 3.6-20.249 4.27-33.718 7.453-3.18.755-8.116 1.928-10.876 2.598-2.763.584-9.875 2.26-15.897 3.685-10.627 2.595-15.228 3.6-26.356 6.198-3.012.67-7.864 1.758-10.876 2.513-5.188 1.172-11.044 2.427-23.427 5.107a2967 2967 0 0 0-20.498 4.69 1623 1623 0 0 1-18.574 4.189c-5.941 1.172-40.997 9.797-51.288 12.563-26.438 7.117-65.761 20.519-80.152 27.386-9.705 4.605-25.686 17.255-40.746 32.413-24.012 24.036-38.82 47.99-45.849 74.119-3.43 12.732-4.267 19.6-4.183 35.177 0 22.362 2.593 36.348 11.044 60.302 4.601 13.066 14.725 34.925 21.753 46.733 1.422 2.43 2.594 4.608 2.594 4.775 0 .418 16.147 27.303 19.578 32.664 8.366 12.813 10.793 16.75 15.562 25.126 2.928 5.025 6.944 11.809 9.035 15.075 2.092 3.182 5.104 7.956 6.694 10.47 6.944 10.803 24.932 34.505 36.98 48.91 10.291 12.313 30.873 34.506 42.754 46.232 60.407 59.38 126.085 100.838 192.767 121.692 19.327 6.03 52.126 10.972 73.376 10.972 28.782 0 55.22-5.277 73.878-14.74 23.091-11.81 46.182-33.502 66.431-62.564 8.366-12.06 19.409-30.82 27.945-47.655 11.546-22.697 17.82-37.103 28.611-65.16a181 181 0 0 1 3.013-7.538c1.004-2.512 2.343-6.113 2.931-7.956.584-1.843 2.258-6.533 3.679-10.469 3.429-9.296 10.876-31.659 14.223-42.714 1.507-4.857 3.18-10.301 3.765-12.144.587-1.843 2.261-7.537 3.682-12.563 5.27-18.592 9.957-35.261 10.374-36.85.167-.92 1.171-4.523 2.093-7.956.919-3.435 3.095-11.726 4.769-18.427 1.589-6.7 3.515-14.07 4.099-16.33 3.262-11.893 8.451-34.34 12.133-52.767 4.349-21.356 6.107-31.991 10.039-59.88 3.262-22.615 3.348-67.59.168-82.246-.42-2.01-1.425-6.618-2.176-10.304-4.267-19.763-15.143-44.555-25.769-59.043-4.352-5.78-15.73-17.172-21.585-21.523-10.545-7.792-19.747-10.888-43.425-14.574-12.216-1.843-45.848-2.68-66.934-1.593m-133.864 90.368 9.62.506-.168 4.604c-.167 2.513-.837 7.62-1.503 11.307-1.759 8.962-3.347 18.091-5.441 30.151-1.004 5.529-2.091 11.894-2.508 14.24-.502 2.259-2.008 10.385-3.432 18.005-1.339 7.62-3.01 16.416-3.679 19.682-.588 3.182-1.759 9.045-2.429 12.98-.751 3.938-2.34 11.812-3.429 17.588-1.172 5.781-3.095 15.162-4.267 20.94-1.086 5.778-2.425 11.808-2.76 13.4-.42 1.59-1.424 5.778-2.176 9.214-3.347 15.24-5.605 22.696-9.622 31.49-2.425 5.445-8.451 15.075-11.464 18.34-.836.923-5.94 6.7-11.46 12.817-5.438 6.112-11.88 12.73-14.223 14.74-13.807 11.723-35.392 21.942-58.233 27.554-13.219 3.266-15.478 3.685-38.068 7.286-2.761.419-9.37 1.173-14.641 1.676-5.271.418-13.22 1.172-17.571 1.674-4.35.502-31.291 1.089-59.821 1.34-28.53.167-56.14.754-61.244 1.256-9.203.838-12.8.587-12.8-.92 0-1.76 10.04-12.396 39.239-41.709 17.068-17.171 32.044-31.574 33.215-31.994 1.172-.503 9.873-.837 19.411-.837s25.602-.586 35.726-1.255c43.422-2.849 67.937-8.461 76.805-17.589 8.116-8.376 16.566-32.915 26.522-77.473 3.18-14.403 6.025-28.727 11.713-60.302 6.777-37.269 10.209-54.188 11.631-56.783 1.755-3.265 4.853-3.432 39.405-2.93 15.395.25 32.382.67 37.652 1.002m207.742.838c8.703.42 15.313 1.09 15.815 1.593 1.004 1.005.584 3.934-2.261 19.849-.67 3.685-2.343 13.318-3.764 21.356-1.339 8.04-3.013 17.674-3.765 21.359a3125 3125 0 0 0-5.021 28.894c-.752 4.356-1.841 10.803-2.51 14.239a794 794 0 0 1-2.426 13.398c-.669 3.937-1.841 10.72-2.593 15.076a6996 6996 0 0 0-5.021 28.477c-.751 3.935-1.841 10.133-2.51 13.818-2.928 16.164-3.847 21.356-5.104 27.64-.751 3.685-1.171 7.62-1.086 8.793l.335 2.095h30.872c33.465 0 33.633 0 29.701 4.352-1.086 1.172-7.863 7.203-14.975 13.487-7.112 6.365-13.305 11.893-13.807 12.395-1.086 1.173-13.052 10.047-18.405 13.733a3166 3166 0 0 0-23.258 15.664l-19.077 12.813h-35.976c-30.623 0-35.979-.168-36.396-1.173-.584-1.591 2.678-23.03 9.288-60.386.669-3.685 1.756-10.215 2.51-14.488 2.173-13.066 3.847-22.95 5.018-29.482.67-3.433 1.759-9.88 2.511-14.236 1.506-8.71 3.18-18.594 5.021-28.894.67-3.685 1.756-10.218 2.508-14.492 1.591-9.715 3.6-21.355 5.021-29.478.669-3.436 1.756-9.716 2.51-13.822.67-4.187 2.593-14.738 4.267-23.449 1.674-8.795 3.515-18.76 4.099-22.278.669-3.6 1.591-8.123 2.008-10.052.42-2.01 1.425-6.867 2.176-10.803 2.846-14.74 2.928-14.825 11.296-15.913 6.443-.838 45.178-.838 62.999-.085M718.044 300.84c6.692 3.101 11.378 10.22 11.378 17.255 0 5.863-3.931 12.31-9.957 16.583-4.181 2.849-4.266 4.438-.751 9.044 6.275 8.126 7.361 8.542 9.035 3.435 1.089-3.268 1.759-3.35 9.622-1.676 4.769 1.006 5.021 1.173 5.271 3.686.167 1.508-.837 5.193-2.426 8.96-3.012 7.289-2.927 7.623 4.014 11.979 2.009 1.255 3.85 2.93 4.102 3.767.502 1.676-6.944 11.726-9.038 12.143-.669.168-3.511-1.507-6.357-3.6-4.936-3.6-8.7-4.69-9.79-2.932-1.171 1.927-10.206 5.278-16.314 6.03-5.188.67-7.866.587-12.969-.417-13.804-2.848-21.336-11.473-21.336-24.372 0-9.38 4.687-17.171 13.64-22.863 1.673-1.091 3.094-2.346 3.094-2.848 0-.42-1.506-3.604-3.347-6.953-2.842-5.109-3.344-6.868-3.344-10.972 0-8.962 5.94-15.745 16.314-18.34 3.849-1.005 15.31.25 19.159 2.092m169.341 136.853c.754.252 1.004 1.592.836 3.936l-.249 3.602-249.244.251c-183.564.084-249.493-.084-250.33-.753-1.506-1.257-1.506-5.36-.083-6.784.92-.922 44.51-1.006 249.577-.838 136.626.167 248.908.419 249.493.586m-272.417 23.87c1.506 0 4.768 4.774 5.605 8.124 1.756 6.951-1.171 13.568-7.029 15.829-6.023 2.26-12.55.167-15.143-4.774-1.756-3.518-1.506-12.144.502-15.41 2.425-3.936 7.279-5.612 12.55-4.439 1.588.334 3.18.67 3.515.67m140.056 1.758c2.258 2.178 2.426 5.194.253 5.612-.755.167-2.846-.67-4.519-1.843-3.85-2.68-4.185-2.68-6.695-.084-4.181 4.105-2.091 13.82 2.845 13.82.922 0 2.763-1.005 4.184-2.178 5.104-4.272 8.366.084 3.43 4.69-2.176 2.01-3.43 2.513-6.61 2.513-2.09 0-4.768-.502-5.94-1.089-7.026-3.518-8.031-16.164-1.756-21.86 3.683-3.349 11.044-3.098 14.808.42m58.066-1.005c2.425 1.759 3.262 5.696 1.339 6.45-.755.334-2.429-.42-3.935-1.676-1.421-1.173-2.842-2.177-3.262-2.177-1.841 0-3.348 1.173-3.348 2.513 0 1.172 1.172 1.925 4.687 2.93 5.271 1.508 8.7 4.607 8.7 7.874 0 4.438-4.851 8.459-10.206 8.459-6.023 0-11.713-5.528-9.035-8.71 1.421-1.76 2.257-1.676 4.016.418 3.01 3.685 8.533 3.685 8.533-.084 0-1.09-1.171-1.926-4.351-2.93-6.023-2.011-8.198-4.105-8.198-7.957 0-6.45 8.867-9.381 15.06-5.11m-336.005-1.089c.753.252 1.339 1.005 1.339 1.592 0 1.507-1.925 2.094-6.694 2.094-2.593 0-4.518.502-5.438 1.34-2.092 2.093-.084 3.685 4.518 3.685 8.701 0 8.869 4.774.251 5.193-4.685.251-4.769.334-4.769 2.763 0 2.513.084 2.513 5.773 3.099 6.191.587 7.53 1.256 6.693 3.434-.418 1.173-1.84 1.424-9.119 1.424-5.606 0-8.869-.335-9.287-.922-1.004-1.674-.335-22.864.753-23.533 1.171-.755 14.139-.922 15.98-.169m10.375.503c.669.67 1.003 3.936 1.003 8.961 0 4.44.335 8.46.67 9.046.334.502 2.845 1.256 5.605 1.675 4.184.586 5.021.921 5.021 2.345 0 1.508-.67 1.675-7.363 1.926-4.769.168-7.865-.083-8.618-.754-.92-.753-1.171-3.517-1.171-11.557 0-10.47.502-12.647 2.928-12.647.502 0 1.339.42 1.925 1.005m34.052 1.089c0 1.424-.669 1.758-5.188 2.094-5.438.419-7.529 1.59-6.693 3.602.335.836 2.175 1.34 5.606 1.59 8.785.67 8.701 4.858-.084 4.858-4.518 0-4.936.168-5.438 2.01-.753 3.182.167 3.853 5.438 3.853 5.355 0 8.032 1.34 7.112 3.6-.419 1.257-1.757 1.425-9.12 1.425-7.53 0-8.701-.168-9.036-1.508-.334-1.675.251-21.022.753-22.613.251-.754 2.343-1.005 8.45-.837 7.531.251 8.2.419 8.2 1.926m23.008.084c1.673 1.423 2.51 2.847 2.343 4.02-.335 2.596-2.761 2.596-6.108 0-2.677-2.01-3.179-2.095-5.438-1.173-2.845 1.173-3.598 3.016-3.514 8.375.083 6.282 5.354 8.879 9.37 4.607 3.598-3.853 7.363-1.842 4.937 2.68-1.506 2.764-4.937 4.44-9.371 4.44-2.928 0-4.267-.503-6.861-2.765-2.677-2.345-3.179-3.35-3.514-7.035-1.087-10.553 2.427-15.243 11.212-15.327 3.43 0 4.852.42 6.944 2.178m24.682-.167c0 1.005-1.004 1.841-2.929 2.512l-2.928.92-.168 7.957c-.334 10.47-.669 11.726-3.095 11.726-2.677 0-3.012-1.256-3.012-10.804 0-8.627-.586-10.134-3.932-10.134-2.343 0-3.514-2.345-1.841-3.434.669-.419 4.936-.67 9.538-.586 7.53.251 8.367.419 8.367 1.843m22.34.501c1.923 2.43 1.67 7.538-.502 9.968-1.841 2.01-1.674 3.517.751 6.783 2.928 3.937 2.76 5.863-.417 5.863-2.008 0-3.097-.838-5.858-4.69-2.678-3.518-3.931-4.523-5.27-4.355s-1.924.92-2.091 2.764c-.42 4.773-1.005 6.281-2.511 6.281-3.012 0-3.514-1.675-3.514-12.73 0-12.814-.251-12.563 10.292-12.228 6.777.251 7.613.419 9.12 2.344m57.895-.752c2.429 1.925 2.928 5.275.837 6.113-.837.335-2.343-.335-3.85-1.592-3.009-2.596-6.022-2.512-6.357.168-.252 1.508.417 2.01 4.185 3.099 6.189 1.759 8.198 3.852 8.198 8.46 0 4.103-2.176 6.532-6.695 7.536-5.438 1.173-12.55-2.68-12.55-6.783 0-3.099 2.261-3.434 4.939-.838 3.01 2.932 7.863 2.847 8.28 0 .253-1.591-.502-2.094-5.018-3.6-4.017-1.341-5.69-2.43-6.777-4.273-1.841-3.015-1.171-6.114 1.674-8.375 3.01-2.345 10.121-2.345 13.134.085m25.185.334c0 1.424-.67 1.758-5.189 2.094-5.52.419-7.528 1.59-6.691 3.685.416 1.005 1.755 1.34 5.018 1.34 5.356 0 8.201 1.591 6.527 3.685-.837.922-2.51 1.34-5.94 1.34-5.103 0-6.442 1.005-5.438 4.272.417 1.34 1.421 1.59 5.773 1.59 5.605 0 7.863 1.257 6.859 3.77-.335 1.005-2.176 1.256-9.288 1.256-7.778 0-8.782-.168-8.867-1.508-.25-4.69.167-22.194.587-22.864.25-.503 4.014-.67 8.533-.586 7.446.251 8.116.419 8.116 1.926m23.761-.083c2.51 2.26 2.343 7.202-.335 10.384l-2.091 2.43 2.508 3.685c3.347 5.025 3.347 6.783-.168 6.448-2.258-.167-3.262-1.088-5.687-4.606-2.343-3.602-3.348-4.355-5.021-4.187-1.841.167-2.176.67-2.511 4.354-.332 3.183-.752 4.272-2.005 4.439-3.013.586-3.433-1.088-3.18-12.647.167-6.03.502-11.306.751-11.724.253-.419 3.935-.587 8.201-.419 6.19.167 8.116.586 9.538 1.843m9.871.501c.588 1.173 1.927 4.356 2.931 7.12 1.086 2.763 2.34 4.857 2.76 4.606.502-.167 1.674-3.099 2.76-6.365 2.176-7.202 3.515-8.543 6.528-7.12 1.588.671 1.923 1.258 1.336 2.01-.417.504-2.173 5.36-4.014 10.637-1.759 5.277-3.515 10.135-3.932 10.637-.42.587-1.841 1.09-3.18 1.09-2.845 0-3.764-1.51-7.532-12.313-3.597-10.385-3.511-10.134-2.927-11.641.754-1.927 4.017-1.089 5.27 1.34m23.512-1.507c1.086 1.089 1.506 20.268.502 22.781-.67 1.758-4.185 1.758-4.854 0-.25-.754-.502-5.947-.502-11.558 0-9.967.502-12.228 2.93-12.228.502 0 1.336.42 1.924 1.005m34.469.586c1.004 1.927 1.089 20.939.085 22.53-.335.67-1.591 1.005-2.678.837-2.008-.251-2.008-.334-2.258-11.474-.252-11.223.25-13.484 2.843-13.484.587 0 1.506.754 2.008 1.591m23.094.252c7.611 5.276 6.692 18.76-1.506 22.445-9.54 4.355-17.404-.837-17.404-11.474 0-5.61 2.176-9.883 5.858-11.725 3.43-1.759 9.954-1.34 13.052.754M552.05 503.942c4.685 3.937 1.757 8.375-3.012 4.607-5.104-4.02-10.375-.754-10.375 6.365 0 5.947 4.602 9.38 9.287 6.951 2.176-1.256 2.008-2.26-.669-3.517-1.339-.586-2.343-1.675-2.343-2.346 0-1.59 8.367-2.26 10.124-.753 1.422 1.173 1.59 6.03.251 8.459-2.175 4.02-12.299 5.36-17.319 2.345-3.096-1.926-6.024-7.37-6.024-11.307 0-3.936 2.928-9.38 6.024-11.306 4.183-2.513 10.709-2.345 14.056.502m25.435-1.675c.752.252 1.34 1.173 1.34 2.01 0 1.927-1.591 2.513-7.113 2.513-5.02 0-7.279 1.591-5.439 3.769.753.838 2.594 1.256 6.024 1.256 4.937 0 4.937 0 4.686 2.262-.251 2.26-.503 2.345-5.69 2.763-4.518.335-5.438.67-5.689 2.01-.502 2.513 2.175 3.853 7.446 3.853 5.355 0 7.613 1.507 5.775 3.77-1.424 1.674-16.902 1.842-18.241.166-.502-.586-.92-5.443-.92-11.725 0-13.233-.084-13.15 9.538-13.15 3.848 0 7.53.252 8.283.503m10.709.503c.67.586 2.678 3.434 4.434 6.282 1.756 2.931 3.515 5.276 3.85 5.276.417 0 .751-2.094.751-4.69 0-5.025 1.09-7.874 2.928-7.874 2.261 0 2.93 3.267 2.93 13.653 0 8.458-.252 10.636-1.339 11.474-2.261 1.926-5.27 0-7.866-4.774-4.601-8.795-5.688-8.962-6.022-.921-.253 5.276-.502 6.114-1.841 6.365-3.095.586-3.597-1.675-3.181-13.401.253-6.868.755-11.39 1.339-11.725 1.339-.922 2.511-.838 4.017.335m37.482.252c1.842 2.26-.416 3.768-5.772 3.768s-7.197 1.089-5.858 3.518c.669 1.173 1.841 1.507 5.69 1.507 3.43 0 5.021.335 5.356 1.173.919 2.345-1.339 3.768-6.527 4.02-4.185.251-5.021.503-5.271 1.843-.502 2.512 2.176 3.852 7.446 3.852 5.019 0 7.027 1.256 6.108 3.685-.42 1.09-1.923 1.34-9.035 1.34-5.523 0-8.871-.335-9.54-1.005-1.254-1.256-1.421-21.021-.168-23.367.755-1.423 1.842-1.592 8.704-1.592 5.94 0 8.116.336 8.867 1.258m21.753 0c4.601 2.429 5.523 7.119 2.093 11.138-1.171 1.424-2.093 2.764-2.093 3.1 0 1.004 5.103 7.118 5.94 7.118.42 0 1.004-.67 1.257-1.508.751-2.178 5.27-13.484 7.111-17.588 1.172-2.68 2.009-3.518 3.597-3.518 1.087 0 2.344.503 2.846 1.09.751.837 9.287 21.021 9.537 22.361.502 3.685-3.597 3.351-6.525-.418-1.759-2.345-2.763-2.932-5.106-2.932-3.43 0-6.108 1.256-6.108 2.932 0 1.842-2.842 2.931-7.863 2.931-5.103 0-5.021 0-9.704-6.532-3.515-4.942-5.356-4.523-5.691 1.256-.25 4.523-1.589 5.946-4.683 4.774-1.172-.42-1.339-2.094-1.339-11.977 0-7.789.334-11.81 1.004-12.479 1.503-1.508 12.717-1.257 15.727.252m38.486 8.626c.502 10.72.669 11.055 6.777 11.055 4.102 0 6.36 1.507 5.438 3.77-.584 1.674-15.727 1.842-17.066.166-1.004-1.172-.837-22.277.25-23.953.334-.586 1.424-.922 2.343-.753 1.756.25 1.841.837 2.258 9.715m33.885-7.37c0 2.01-.249 2.093-5.855 2.512-5.605.419-5.858.502-5.858 2.513 0 2.01.335 2.094 5.438 2.512 4.434.335 5.438.67 5.691 2.01.417 2.261-1.257 3.015-6.695 3.015-4.769 0-4.851 0-4.851 2.43 0 2.93 1.087 3.433 7.112 3.433 4.683 0 6.692 1.256 5.773 3.685-.502 1.173-1.759 1.34-9.455 1.173l-8.868-.251-.252-12.061c-.168-9.129.085-12.312.836-12.814.588-.335 4.687-.586 9.035-.502 7.867.25 7.949.25 7.949 2.345m20.498-.336c4.687 3.937 1.759 8.375-3.009 4.607-2.931-2.262-6.193-2.345-6.193-.084 0 1.843 2.343 3.35 5.189 3.35 2.34 0 7.361 4.271 7.446 6.45.25 3.516-.335 5.025-2.678 7.118-2.008 1.927-3.265 2.345-6.609 2.345-5.189 0-7.7-1.173-9.541-4.271-1.168-2.01-1.253-2.765-.502-3.685 1.507-1.759 2.931-1.592 5.524.837 3.514 3.266 8.785 2.178 7.364-1.507-.502-1.424-1.257-1.76-5.943-2.68-3.932-.754-7.194-5.025-6.61-8.292 1.257-6.281 10.124-8.71 15.562-4.188"/><path d="M701.344 313.092c-1.904 1.78-2.152 2.627-1.738 4.83.58 3.05 2.648 6.185 5.048 7.88 2.234 1.525 5.048.085 7.613-3.813 2.483-3.813 2.4-5.677-.496-8.643-3.145-3.22-7.2-3.304-10.427-.254M696.036 348.432c-4.002 2.428-6.337 6.951-6.337 12.227 0 3.936.334 4.941 2.335 7.035 3.001 3.183 7.086 4.523 11.672 3.853 4.418-.67 9.087-3.685 9.42-6.03.251-1.843-10.337-16.415-13.005-17.839-1.167-.586-2.251-.419-4.086.754M605.123 466.922c-2.015 1.728-2.35 2.633-2.35 6.09 0 5.02 1.93 7.57 5.876 7.57s6.296-2.88 6.296-7.735c0-2.962-.42-4.28-2.099-5.843-2.518-2.55-4.7-2.633-7.723-.082M579.422 465.818c-2.281 1.788-1.304 4.343 1.71 4.683 5.132.511 8.064-3.236 3.829-4.939-2.77-1.106-3.829-1.106-5.54.256M686.3 465.772c-1.106.837-1.361 1.674-1.02 2.93.51 1.423 1.276 1.842 3.828 1.842 5.105 0 6.977-3.098 3.063-4.856-2.808-1.255-3.999-1.255-5.87.084M779.66 465.759c-1.098.494-2.533 2.142-3.208 3.707-3.038 7.249 3.967 14.25 9.79 9.637 1.52-1.153 1.857-2.388 1.941-5.848.085-3.872-.253-4.695-2.278-6.343-2.448-2.142-3.292-2.306-6.246-1.153M636.872 507.809c-1.08 2.822.332 4.02 3.987 3.763 3.157-.257 3.572-.513 3.572-2.395s-.415-2.138-3.572-2.395c-2.575-.17-3.655.086-3.987 1.027M664.67 513.312c-.62 2.214.774 4.018 2.013 2.706 1.006-1.066.62-3.69-.62-4.1-.464-.163-1.084.492-1.393 1.394M654.204 701.227c.764.188 2.122.188 2.971 0 .764-.281.085-.469-1.528-.469s-2.291.188-1.443.47"/></g></svg>