<svg width="516" height="364" xmlns="http://www.w3.org/2000/svg" xmlns:xlink="http://www.w3.org/1999/xlink" overflow="hidden"><defs><clipPath id="clip0"><rect x="382" y="178" width="516" height="364"/></clipPath></defs><g clip-path="url(#clip0)" transform="translate(-382 -178)"><path d="M0 326.856C0 292.059 0.0572327 289.712 1.03019 289.254 2.28931 288.682 14.1937 288.51 57.6906 288.453 92.4881 288.453 93.2893 288.453 94.434 287.308 95.5786 286.164 95.5786 285.419 95.5786 143.082L95.5786 0 133.638 0 171.698 0 171.698 180.741C171.698 280.097 171.526 361.997 171.355 362.741L171.011 364 85.5057 364 0 364 0 326.856Z" fill="#20263B" transform="matrix(1.00176 0 0 -1 382 542)"/><path d="M185.777 362.226C185.606 361.253 185.434 279.353 185.434 180.226L185.434 0 225.211 0 264.987 0 265.216 1.25912C265.388 2.00314 265.617 20.2031 265.846 41.7799 266.189 82.1862 267.048 133.009 267.735 155.73 268.192 169.466 268.479 170.782 270.94 170.439 271.798 170.325 272.542 169.237 273.687 166.375 274.545 164.258 275.804 161.797 276.434 160.996 277.064 160.194 277.579 159.107 277.579 158.592 277.579 158.077 279.525 153.842 281.871 149.148 284.218 144.455 286.164 140.335 286.164 139.991 286.164 139.591 287.079 137.931 288.167 136.271 289.197 134.554 290.284 132.379 290.513 131.406 290.685 130.433 291.601 128.43 292.516 126.999 293.432 125.569 294.176 124.195 294.176 124.023 294.176 123.508 299.155 112.92 300.3 111.031 300.758 110.23 301.616 108.456 302.246 107.025 303.448 104.392 304.764 101.588 311.918 86.7076 315.467 79.3818 318.328 73.3151 321.304 66.9623 321.648 66.161 322.85 65.0736 323.937 64.5585 325.769 63.6428 328.287 63.5283 351.409 63.5283 370.467 63.5283 377.221 63.7 378.308 64.2723 379.224 64.7302 380.597 66.6761 382.143 69.8239 383.516 72.5138 385.233 75.7189 385.977 76.978 386.721 78.2371 387.523 80.0686 387.752 81.0987 387.923 82.1289 388.782 83.9031 389.526 85.0478 390.327 86.2497 391.472 88.3673 392.044 89.7981 392.616 91.2289 394.677 95.4641 396.565 99.1843 398.454 102.904 400.286 106.853 400.686 108.055 401.03 109.2 401.659 110.574 402.06 111.031 402.518 111.489 403.719 113.836 404.807 116.182 405.837 118.586 408.184 123.451 409.901 127.057 411.675 130.662 413.506 134.554 414.021 135.642 414.536 136.729 415.338 138.274 415.738 139.075 416.883 141.136 421.633 151.037 422.606 153.384 423.064 154.471 423.865 156.016 424.323 156.818 425.468 158.706 427.986 164.258 429.818 168.836 430.905 171.584 431.592 172.614 432.508 172.728 435.369 173.129 435.255 176.105 435.426 85.105L435.541 0 475.318 0 515.094 0 515.094 182 515.094 364 475.203 363.943 435.255 363.943 432.45 358.105C430.962 354.9 429.245 351.352 428.616 350.264 428.043 349.177 427.128 347.231 426.555 346.029 425.983 344.77 423.694 340.134 421.462 335.727 419.23 331.263 417.169 327.028 416.94 326.226 416.711 325.425 415.967 324.052 415.223 323.079 414.536 322.163 413.621 320.331 413.22 319.072 412.819 317.813 412.018 316.039 411.503 315.066 409.672 312.033 404.635 301.903 404.635 301.273 404.635 300.93 403.891 299.499 402.918 298.125 402.003 296.752 400.801 294.348 400.286 292.745 399.77 291.2 398.912 289.254 398.34 288.453 397.081 286.564 391.472 275.06 391.472 274.259 391.472 273.916 390.842 272.886 390.041 271.913 389.24 270.997 388.209 268.936 387.752 267.391 387.294 265.846 386.435 263.957 385.863 263.213 385.291 262.469 383.287 258.635 381.456 254.686 379.625 250.736 377.507 246.616 376.82 245.528 376.133 244.441 375.218 242.495 374.874 241.236 374.474 239.977 373.672 238.317 373.157 237.516 372.642 236.714 370.696 232.994 368.922 229.217 367.148 225.44 365.431 221.948 365.087 221.491 364.801 221.033 364.057 219.487 363.428 218.057 362.798 216.626 361.768 214.565 361.138 213.478 360.509 212.391 359.479 210.33 358.849 208.899 355.758 202.375 351.752 194.534 351.352 194.248 351.065 194.076 350.493 192.645 349.978 191.043 349.062 187.895 348.433 187.151 346.487 187.151 344.77 187.151 342.996 189.326 341.45 193.332 340.706 195.278 339.562 197.567 338.932 198.426 338.303 199.342 337.616 200.658 337.387 201.459 336.986 202.947 333.037 211.475 330.175 216.969 329.26 218.743 328.516 220.575 328.516 221.033 328.516 221.491 327.772 223.036 326.799 224.409 325.883 225.783 324.796 227.958 324.452 229.217 324.109 230.476 323.136 232.651 322.22 234.082 321.362 235.513 320.446 237.287 320.217 238.088 319.988 238.889 319.072 240.95 318.214 242.667 317.355 244.384 315.409 248.39 313.921 251.538 312.491 254.686 310.43 258.921 309.4 260.981 308.313 263.042 307.168 265.674 306.767 266.933 306.367 268.135 305.451 270.024 304.707 271.169 303.963 272.256 303.333 273.401 303.333 273.744 303.333 274.087 301.502 278.094 299.27 282.672 297.038 287.251 294.806 292.001 294.405 293.203 294.004 294.405 293.089 296.065 292.459 296.866 291.83 297.667 290.914 299.67 290.456 301.33 289.941 302.933 288.911 305.165 288.167 306.195 287.365 307.282 286.736 308.37 286.736 308.656 286.736 309.286 283.016 317.298 280.211 322.792 279.181 324.853 277.979 327.543 277.579 328.802 277.178 330.061 276.377 331.778 275.804 332.579 275.232 333.38 274.259 335.326 273.63 336.872 273 338.417 271.054 342.538 269.28 345.972 267.506 349.463 265.56 353.641 264.987 355.243 264.415 356.903 263.27 359.135 262.469 360.165 261.668 361.253 260.981 362.512 260.981 363.027 260.981 363.943 258.005 364 223.551 364L186.178 364 185.777 362.226Z" fill="#20263B" transform="matrix(1.00176 0 0 -1 382 542)"/><path d="M289.597 363.142C289.597 361.94 291.314 357.704 292.459 355.987 293.031 355.186 293.89 353.297 294.405 351.752 294.92 350.207 296.122 347.517 297.038 345.743 298.526 342.767 299.441 340.878 304.306 330.233 305.279 328.172 307.34 323.651 308.999 320.217 310.602 316.726 311.918 313.521 311.918 313.063 311.918 312.662 312.662 311.117 313.578 309.686 314.494 308.255 315.409 306.424 315.638 305.623 316.726 301.788 322.335 291.314 324.052 289.884L325.94 288.281 349.12 288.682C361.882 288.911 372.699 289.197 373.157 289.369 374.359 289.712 378.251 296.236 381.456 303.333 382.944 306.653 384.89 310.659 385.748 312.204 386.607 313.807 387.523 315.867 387.694 316.84 387.923 317.813 389.011 319.988 390.041 321.705 391.128 323.365 392.044 325.025 392.044 325.368 392.044 325.711 393.99 329.832 396.336 334.525 398.683 339.218 400.629 343.511 400.629 343.969 400.629 344.484 401.545 346.258 402.632 347.975 403.719 349.692 404.635 351.409 404.635 351.809 404.635 352.21 405.78 354.843 407.211 357.59 408.642 360.337 409.786 362.913 409.786 363.313 409.786 363.828 397.367 364 349.692 364 297.038 364 289.597 363.886 289.597 363.142Z" fill="#20263B" transform="matrix(1.00176 0 0 -1 382 542)"/></g></svg>