<svg width="2102" height="2110" xmlns="http://www.w3.org/2000/svg" xmlns:xlink="http://www.w3.org/1999/xlink" overflow="hidden"><defs><clipPath id="clip0"><rect x="1145" y="183" width="2102" height="2110"/></clipPath></defs><g clip-path="url(#clip0)" transform="translate(-1145 -183)"><path d="M1014.71 2105.42C1017.3 2101.19 1007.41 2099.78 966.716 2098.13 944.131 2097.19 918.253 2095.07 909.077 2093.66 867.201 2086.6 847.675 2083.07 812.622 2075.31 772.863 2066.84 769.805 2065.9 719.695 2049.19 658.057 2028.72 635.943 2019.78 577.364 1990.6 537.371 1971.07 522.549 1962.6 486.79 1939.31 432.681 1904.25 406.332 1885.42 383.277 1865.42 374.808 1858.13 362.809 1848.01 356.222 1842.84 311.994 1807.78 225.419 1712.25 188.013 1656.95 164.487 1622.37 154.606 1607.31 147.549 1596.25 132.963 1572.95 116.965 1543.78 103.085 1514.6 95.3215 1498.37 88.0285 1483.54 86.8521 1481.42 77.2067 1463.31 50.1522 1390.13 36.0367 1344.01 22.1565 1298.37 9.68769 1237.19 1.68883 1173.42-2.54552 1138.6-2.54552 952.719 1.92411 921.66 15.569 824.483 26.8614 776.483 53.4457 701.66 67.5612 662.366 81.9119 626.13 89.9104 609.895 120.259 548.718 128.493 533.189 141.432 512.012 165.899 472.483 165.664 472.954 209.186 412.248 240.475 368.718 312.464 291.777 358.81 252.012 388.452 226.601 457.853 174.365 466.793 170.836 468.205 170.365 478.085 164.012 489.143 156.718 500.2 149.424 514.55 140.718 520.902 136.954 527.49 133.424 533.842 129.66 535.018 128.718 538.782 125.895 586.775 101.66 610.3 91.0714 634.767 79.7772 662.763 68.7183 692.641 58.1301 704.403 54.1301 717.578 49.1887 722.048 47.5419 745.574 38.1302 825.326 18.3653 865.555 12.2477 879.2 10.1302 894.962 7.54173 900.844 6.13018 948.601-3.98742 1137.75-3.98742 1198.44 6.13018 1206.21 7.54173 1222.68 10.3652 1234.91 12.2477 1247.14 14.3652 1263.61 17.424 1271.37 19.3066 1279.14 20.9534 1293.49 24.2479 1303.13 26.3654 1333.48 33.1889 1435.82 67.3064 1451.82 76.0125 1455.11 77.8947 1459.11 79.3066 1460.52 79.3066 1463.58 79.3066 1548.04 120.718 1567.8 131.777 1580.97 139.307 1605.44 154.601 1639.55 176.954 1696.72 214.366 1793.88 297.895 1829.17 340.483 1836.23 348.954 1847.76 362.601 1854.81 371.071 1979.03 517.895 2064.43 705.66 2090.07 888.719 2091.95 903.542 2095.01 923.307 2096.66 932.248 2100.66 955.542 2100.42 1117.66 2096.42 1158.13 2092.66 1193.9 2085.84 1240.72 2080.66 1264.01 2078.54 1273.19 2075.48 1288.01 2073.6 1296.95 2071.72 1306.13 2067.96 1320.95 2065.37 1329.9 2062.55 1339.07 2059.49 1349.66 2058.31 1353.42 2056.43 1360.72 2047.25 1386.6 2034.55 1420.48 2030.55 1431.54 2025.61 1444.48 2023.73 1449.66 2007.97 1493.19 1963.97 1574.84 1926.57 1631.07 1904.45 1664.01 1862.34 1720.01 1851.28 1731.07 1850.58 1731.78 1842.81 1740.72 1833.87 1751.07 1784.94 1807.31 1706.6 1875.54 1637.43 1921.66 1573.21 1964.48 1525.45 1990.6 1457.23 2020.01 1448.29 2024.01 1434.41 2029.42 1426.64 2032.01 1418.88 2034.6 1406.65 2039.07 1399.59 2041.66 1386.42 2046.84 1344.07 2060.48 1323.13 2066.37 1293.96 2074.6 1229.5 2087.54 1199.62 2091.07 1189.98 2092.25 1175.15 2094.13 1166.68 2095.54 1158.22 2096.95 1139.16 2098.13 1124.34 2098.37 1095.64 2098.6 1085.05 2100.48 1086.23 2104.72 1086.46 2106.84 1076.58 2107.54 1050 2107.54 1029.06 2107.54 1014 2106.6 1014.71 2105.42ZM1130.22 2035.78C1198.68 2029.42 1270.67 2016.01 1324.31 2000.01 1351.6 1991.78 1374.65 1984.01 1390.18 1978.13 1397.24 1975.31 1405.71 1972.25 1409 1971.07 1425.23 1965.9 1508.51 1926.6 1524.28 1916.95 1526.16 1915.78 1540.04 1907.54 1554.86 1899.07 1598.38 1873.66 1647.79 1838.13 1691.31 1800.72 1720.01 1776.01 1777.18 1719.78 1793.88 1699.31 1800.23 1691.54 1807.76 1682.6 1810.58 1679.31 1819.76 1668.72 1845.17 1636.01 1852.46 1625.19 1856.46 1619.31 1864.69 1607.78 1870.58 1599.07 1920.92 1526.6 1972.44 1416.95 1996.2 1332.25 2015.49 1263.78 2025.61 1214.84 2030.08 1166.37 2031.49 1151.54 2033.61 1132.48 2034.78 1124.01 2035.96 1115.54 2037.14 1083.31 2037.14 1052.25 2037.37 930.13 2012.67 795.777 1971.5 693.895 1926.8 583.542 1880.46 504.954 1806.59 414.601 1787.76 391.542 1717.66 320.248 1697.19 303.306 1688.96 296.248 1679.78 288.483 1676.72 285.895 1657.2 268.718 1565.68 204.483 1552.51 198.601 1550.62 197.659 1545.21 194.601 1540.74 191.777 1522.39 180.483 1464.76 152.012 1437.23 140.483 1421 133.895 1405.94 127.306 1403.82 126.13 1388.06 117.895 1295.84 90.6008 1257.26 82.836 1246.91 80.7185 1234.67 78.13 1230.2 76.9538 1225.73 75.7772 1211.85 73.6597 1199.62 72.2477 1187.39 70.8358 1173.51 68.7183 1169.04 67.7771 1150.22 63.0714 1077.05 59.777 1023.18 61.1889 953.071 63.0714 937.308 64.7183 869.084 76.2478 775.451 92.0123 661.116 132.012 577.835 177.895 570.542 181.895 558.309 188.483 551.016 192.718 522.314 208.248 481.379 236.013 434.092 271.777 373.161 317.895 286.586 408.013 241.887 472.248 217.42 507.307 199.07 535.307 190.366 551.307 187.543 556.248 183.073 564.248 180.485 568.718 163.781 596.718 134.845 658.836 120.494 696.954 118.612 702.13 116.024 708.719 114.848 711.777 99.7915 750.836 79.0885 827.307 71.7955 871.072 59.0918 948.248 56.2688 980.483 56.2688 1049.9 56.2688 1151.54 68.502 1235.54 97.4387 1333.42 99.5562 1340.48 102.144 1349.66 103.32 1353.42 114.848 1393.19 153.901 1484.72 171.78 1514.6 176.956 1523.54 194.365 1553.9 195.776 1556.95 203.54 1572.25 240.24 1625.9 269.412 1663.31 303.995 1708.48 364.926 1770.84 411.508 1809.66 429.387 1824.25 484.438 1864.95 503.258 1877.19 560.661 1914.84 632.179 1951.31 694.993 1975.07 700.169 1976.95 708.167 1980.01 712.637 1981.9 717.107 1983.54 726.753 1986.84 733.811 1988.95 740.868 1991.07 750.514 1994.37 754.984 1995.78 770.276 2001.42 788.391 2006.37 792.86 2006.37 795.213 2006.37 801.33 2007.78 806.035 2009.66 819.915 2014.6 845.558 2019.78 910.254 2029.9 966.48 2039.07 1067.88 2041.66 1130.22 2035.78Z" fill="#005AA9" fill-rule="evenodd" transform="matrix(1 0 0 -1 1147 2291)"/><path d="M888.945 1932.48C850.357 1929.66 806.122 1924.01 788.946 1919.78 784.476 1918.6 772.24 1915.78 761.888 1913.66 751.535 1911.31 733.653 1906.84 721.888 1903.78 710.359 1900.72 696.947 1897.19 692.477 1896.25 688.007 1895.07 681.654 1893.19 678.36 1892.02 675.065 1890.6 666.595 1887.78 659.536 1885.43 645.89 1881.19 597.419 1862.84 585.42 1857.43 533.185 1833.67 475.539 1802.61 439.54 1778.85 426.363 1770.15 380.952 1737.91 379.54 1736.27 378.835 1735.56 372.011 1730.15 364.482 1724.27 356.717 1718.39 338.129 1702.62 323.306 1689.45 251.778 1625.45 188.249 1549.46 141.191 1471.35 139.544 1469 135.779 1462.65 132.721 1457.23 106.839 1414.65 63.7807 1322.19 54.8395 1290.19 53.6629 1286.43 50.3689 1275.84 47.0748 1266.66 36.0161 1234.9 23.3106 1185.02 16.2519 1145.5 7.07568 1094.68 5.19316 1079.86 1.89912 1032.57-2.5715 969.75-2.5715 962.692 1.89912 903.169 7.31099 833.058 17.8991 769.77 33.6633 713.775 36.2514 704.834 39.3105 693.071 40.7221 687.895 41.8986 682.719 45.1927 672.602 48.0161 665.544 50.6042 658.486 53.6629 649.546 54.8395 645.546 56.0161 641.782 59.0748 632.606 61.8982 625.548 64.7216 618.49 67.7804 609.785 68.9569 606.491 69.8982 603.197 71.7803 598.492 72.9569 595.904 74.3688 593.551 76.9569 587.669 79.0744 583.199 94.3684 549.084 121.191 496.384 135.544 472.621 156.485 437.801 199.073 377.101 218.131 354.75 222.131 350.28 230.131 340.634 236.013 333.576 248.013 319.224 308.718 257.818 326.835 241.82 371.07 203 438.834 153.593 474.833 133.83 480.01 131.007 490.598 125.125 498.362 120.655 552.479 89.8339 636.948 54.3082 694.83 38.0743 701.889 36.1922 711.535 33.3687 716.006 32.1926 792.946 10.7828 885.651-1.45147 970.12-1.45147 1013.41-1.45147 1079.53 3.01879 1106.59 7.95964 1116.24 9.60635 1130.12 11.724 1137.18 12.6648 1144.23 13.3707 1153.41 15.0178 1157.18 16.1939 1161.18 17.1351 1172.71 19.9583 1183.06 22.3112 1219.76 30.0749 1277.64 47.2501 1312.47 60.4252 1353.17 75.9529 1420.94 107.715 1447.76 123.949 1452.23 126.772 1458.11 130.066 1460.7 131.242 1463.29 132.418 1469.41 136.183 1474.35 139.476 1479.29 142.77 1483.76 145.594 1484.23 145.594 1486.11 145.594 1537.64 181.12 1557.17 195.942 1660.7 274.287 1756.46 384.865 1818.34 497.325 1872.93 596.139 1906.11 692.6 1927.75 813.295 1943.52 901.522 1943.52 1033.98 1927.52 1122.68 1918.11 1176.08 1910.58 1208.08 1896.69 1254.9 1890.11 1277.02 1888.22 1282.66 1879.75 1305.01 1806.81 1499.58 1677.17 1661.92 1502.35 1776.97 1455.76 1807.55 1415.76 1829.43 1358.35 1855.55 1343.76 1862.14 1296.47 1880.25 1280.7 1885.43 1273.64 1887.78 1265.17 1890.6 1261.88 1892.02 1258.59 1893.19 1252.23 1895.07 1247.76 1896.25 1243.29 1897.19 1230.12 1900.72 1218.35 1903.78 1206.82 1906.84 1188.7 1911.31 1178.35 1913.43 1168 1915.78 1155.76 1918.37 1151.29 1919.54 1146.82 1920.72 1133.65 1922.84 1122.12 1924.25 1110.59 1925.66 1100 1927.54 1098.82 1928.25 1095.06 1930.6 1000.24 1935.78 964.238 1935.54 944.944 1935.54 911.062 1934.13 888.945 1932.48ZM945.885 1883.78C955.767 1872.72 958.591 1860.72 953.65 1851.08 950.12 1844.73 945.179 1845.43 934.826 1853.67 926.826 1860.02 924.238 1860.72 909.415 1860.72 889.18 1860.72 887.297 1858.84 888.239 1840.26L888.945 1826.61 897.885 1825.9C906.827 1825.2 907.297 1825.43 909.885 1837.43 911.768 1846.61 918.121 1848.02 924.944 1840.96 930.12 1835.79 930.826 1833.2 931.062 1815.32 931.297 1798.85 930.591 1794.61 926.826 1790.38 924.238 1787.56 921.65 1785.44 920.709 1785.44 919.768 1785.44 916.238 1789.67 912.709 1794.85 901.65 1811.55 891.297 1804.73 894.121 1782.85 896.239 1767.09 900.474 1763.56 916.003 1764.97 933.885 1766.62 939.768 1769.91 948.708 1783.32 956.473 1795.32 962.355 1797.67 967.767 1791.08 969.649 1789.2 970.826 1784.73 970.826 1780.97 970.826 1770.15 964.473 1752.03 959.532 1748.97 956.708 1747.09 937.179 1744.97 911.297 1743.32 887.297 1741.91 862.827 1740.03 856.474 1739.32 845.18 1738.15 836.004 1741.21 836.004 1745.91 836.004 1747.56 838.357 1751.32 841.416 1754.38 846.357 1759.79 846.592 1761.68 846.122 1796.03 845.886 1837.2 843.534 1846.61 832.004 1857.2 824.945 1863.55 824.004 1865.43 826.357 1869.43 828.946 1874.61 844.004 1877.19 898.356 1881.66 912.709 1883.08 926.826 1884.96 930.12 1886.37 938.826 1889.66 940.473 1889.43 945.885 1883.78ZM1053.18 1879.55C1075.06 1876.96 1095.29 1875.55 1098.59 1876.25 1114.59 1880.25 1127.76 1865.9 1127.76 1844.26 1127.76 1828.73 1125.18 1825.43 1113.18 1825.43 1104.94 1825.43 1103.53 1826.38 1097.65 1836.02 1091.06 1847.08 1084.71 1849.43 1081.18 1842.61 1080 1840.26 1078.12 1822.85 1077.18 1804.02L1075.53 1769.44 1083.29 1760.97C1089.65 1753.44 1090.35 1751.56 1088.24 1746.85 1084.94 1739.56 1070.59 1737.44 1041.41 1740.27 1006.59 1743.79 993.178 1755.56 1012.24 1766.15 1021.18 1771.32 1021.41 1771.79 1025.18 1792.03 1029.88 1818.14 1030.82 1848.02 1027.06 1851.78 1024.94 1853.9 1021.88 1852.25 1013.88 1844.49 998.59 1829.43 984.237 1831.55 984.237 1848.73 984.237 1862.14 1000 1884.25 1009.88 1884.25 1012 1884.25 1031.53 1882.13 1053.18 1879.55ZM795.534 1864.96C800.005 1860.49 798.828 1855.55 791.064 1847.55 784.005 1840.26 780.24 1828.49 775.064 1796.03 773.888 1789.67 770.593 1773.2 767.77 1759.56 764.711 1745.91 761.652 1731.33 760.946 1726.86 760.24 1722.15 756.946 1716.97 753.417 1714.39 744.241 1707.56 734.359 1710.39 724.947 1722.62 710.359 1741.68 661.889 1799.32 658.83 1801.2 657.419 1802.14 652.948 1804.26 648.948 1805.44 642.831 1807.55 641.89 1808.97 641.89 1816.02 641.89 1823.55 642.831 1824.49 655.772 1831.08 670.83 1838.37 699.065 1843.79 709.653 1840.96 716.477 1839.32 717.888 1833.43 713.653 1825.43 710.359 1819.08 731.065 1791.56 739.77 1790.61 745.417 1789.91 745.888 1790.85 748.476 1802.38 754.594 1831.79 754.594 1829.67 746.594 1837.2 734.829 1848.26 739.064 1853.67 766.594 1863.78 778.358 1868.25 791.769 1868.72 795.534 1864.96ZM1183.06 1860.96C1188.23 1859.78 1200.94 1856.49 1211.29 1853.67 1244.23 1844.49 1246.35 1844.02 1260.23 1840.96 1276.47 1837.67 1280.7 1833.2 1280.7 1819.08 1280.7 1805.67 1272 1795.55 1264 1799.55 1261.41 1801.2 1257.64 1805.67 1256 1809.67 1251.76 1819.79 1240.47 1825.9 1225.88 1826.38 1214.35 1826.61 1213.65 1826.38 1209.65 1818.38 1198.59 1795.79 1212 1783.32 1228.47 1801.2L1236.47 1810.14 1241.17 1804.26C1245.88 1798.38 1245.88 1793.67 1240.7 1773.67 1237.65 1762.38 1226.12 1748.97 1221.17 1750.85 1219.06 1751.56 1217.17 1754.85 1217.17 1757.68 1217.17 1765.2 1210.82 1773.67 1205.41 1773.67 1200.23 1773.67 1194.82 1764.73 1192.47 1751.79 1190.12 1740.03 1195.06 1734.62 1211.76 1731.33 1227.29 1728.03 1234.12 1729.44 1245.17 1738.62 1254.12 1745.91 1259.29 1747.09 1263.76 1742.62 1267.53 1738.85 1267.29 1732.5 1262.82 1723.56 1257.88 1714.15 1245.41 1700.74 1241.41 1700.74 1239.53 1700.74 1229.41 1703.33 1218.82 1706.62 1185.65 1716.97 1178.82 1718.86 1163.06 1723.09 1133.18 1730.85 1127.76 1733.44 1127.76 1739.8 1127.76 1743.56 1129.65 1746.15 1133.18 1747.56 1136 1748.74 1140.23 1751.56 1142.35 1753.91 1148.94 1761.44 1161.65 1802.85 1164.23 1825.9 1165.65 1837.43 1165.18 1840.49 1160.71 1847.79 1152.23 1861.43 1159.53 1865.9 1183.06 1860.96ZM1354.58 1802.14C1363.76 1796.97 1378.11 1790.14 1386.58 1786.61 1413.88 1775.32 1431.29 1757.44 1431.29 1740.74 1431.29 1729.68 1420.7 1714.39 1409.88 1710.15 1396.23 1704.74 1395.76 1703.8 1401.17 1693.21 1405.88 1684.27 1406.11 1682.39 1403.53 1667.8 1401.64 1656.27 1401.64 1649.92 1403.53 1643.57 1408.7 1626.86 1395.05 1622.86 1372.47 1634.39 1350.11 1645.69 1348.23 1651.8 1352.47 1692.74 1354.11 1708.97 1353.88 1709.92 1348.94 1712.5 1344.23 1715.09 1342.82 1714.86 1340 1711.09 1333.17 1701.92 1329.64 1690.62 1331.06 1680.98 1333.64 1663.1 1327.29 1660.98 1302.82 1671.33 1284.47 1678.86 1269.88 1689.21 1267.76 1696.27 1265.88 1701.92 1271.53 1709.21 1279.29 1711.09 1285.88 1712.74 1293.41 1724.27 1310.35 1758.62 1323.29 1784.97 1323.76 1785.91 1320.7 1794.85 1319.06 1799.79 1318.35 1805.67 1319.06 1807.55 1321.64 1814.38 1336.47 1812.02 1354.58 1802.14ZM551.303 1751.56C565.655 1744.03 578.361 1732.27 585.185 1719.56 590.831 1708.97 591.773 1704.97 591.773 1688.04 591.773 1671.1 590.831 1667.1 585.185 1656.27 577.655 1642.16 561.185 1626.39 546.126 1618.16 531.303 1610.4 498.127 1610.4 483.539 1617.92 450.834 1635.1 434.599 1675.57 447.304 1707.09 455.304 1726.86 482.598 1752.03 499.774 1755.56 512.009 1758.15 543.068 1755.79 551.303 1751.56ZM1515.52 1706.86C1542.82 1688.74 1551.76 1672.27 1535.05 1670.63 1520.46 1669.21 1512.46 1660.98 1484.46 1618.63 1474.58 1603.57 1473.17 1600.28 1474.35 1592.28 1476.7 1573.69 1465.17 1571.34 1442.11 1586.16 1408.47 1607.34 1400.23 1625.69 1423.05 1628.28 1428.7 1628.75 1433.17 1633.22 1447.29 1651.33 1472.7 1684.51 1477.17 1692.51 1476.46 1705.68 1475.76 1725.21 1487.76 1725.44 1515.52 1706.86ZM1588.23 1651.57C1607.52 1637.69 1611.99 1624.04 1612.46 1577.22 1612.7 1550.64 1614.58 1543.11 1620.7 1543.11 1628.93 1543.11 1638.35 1555.81 1638.35 1566.4 1638.35 1583.57 1649.64 1585.69 1665.4 1571.11 1679.05 1558.64 1686.11 1546.87 1684.23 1540.76 1682.58 1535.81 1679.76 1535.11 1667.52 1535.81 1659.29 1536.52 1647.29 1527.34 1613.64 1494.88 1583.29 1465.7 1574.58 1460.53 1568.23 1468.53 1567.05 1469.94 1564.93 1492.76 1563.76 1518.88 1561.17 1578.4 1559.52 1581.46 1540.7 1564.05 1531.76 1555.81 1530.11 1552.99 1530.11 1545.23 1530.11 1535.34 1525.41 1528.99 1517.88 1528.99 1510.82 1528.99 1495.76 1541.93 1488.7 1554.17 1483.52 1562.87 1482.82 1565.46 1484.94 1570.4 1487.05 1574.87 1489.41 1576.05 1495.99 1576.05 1506.35 1576.05 1511.52 1578.63 1523.99 1589.93 1556.93 1620.04 1565.4 1631.1 1565.4 1644.75 1565.4 1650.63 1566.11 1656.04 1567.05 1656.74 1570.35 1660.27 1579.29 1658.16 1588.23 1651.57ZM389.187 1650.86C401.893 1647.1 412.952 1630.63 412.011 1617.22L411.305 1607.81 425.657 1607.57C437.657 1607.57 441.893 1606.4 451.775 1600.04 460.245 1594.63 466.363 1592.52 473.422 1592.52 490.127 1592.52 489.656 1580.05 471.774 1561.69 462.598 1552.05 458.834 1549.93 449.892 1548.75 438.834 1547.34 431.069 1549.93 407.775 1563.11 400.011 1567.58 390.364 1567.58 386.599 1563.11 382.129 1557.69 404.246 1536.05 414.363 1536.05 425.893 1536.05 428.481 1528.52 420.952 1517.46 409.893 1501.46 385.893 1481.94 377.188 1481.94 372.246 1481.94 364.482 1490.17 366.364 1493.23 370.6 1500.05 363.776 1511.11 338.6 1537.23 314.13 1562.87 311.777 1564.75 302.365 1565.69 289.424 1566.87 287.777 1567.81 287.777 1575.1 287.777 1579.58 294.836 1588.28 316.718 1609.69 347.07 1640.04 355.306 1646.86 366.6 1650.86 376.011 1654.16 378.599 1654.16 389.187 1650.86ZM1026.59 1650.16C1088 1647.1 1173.88 1626.39 1238.12 1599.1 1274.82 1583.81 1323.76 1557.69 1350.58 1539.11 1359.29 1533.23 1369.88 1525.93 1373.64 1523.35 1418.82 1492.29 1482.35 1430.18 1518.58 1381.95 1551.76 1337.95 1574.11 1300.31 1598.11 1248.31 1609.4 1224.08 1624.93 1182.91 1628.93 1166.67 1630.11 1162.2 1633.64 1148.32 1636.93 1136.09 1642.82 1113.27 1647.52 1091.39 1652.46 1061.98 1656.7 1037.74 1658.34 919.638 1654.82 895.64 1653.4 884.817 1651.29 869.29 1650.11 860.82 1647.29 837.528 1638.58 797.767 1631.29 775.416 1611.29 713.069 1604.93 696.835 1581.64 651.898 1559.29 608.373 1520.23 550.026 1495.52 523.205 1493.17 520.617 1484.23 510.5 1475.52 500.619 1456.47 479.209 1415.76 442.507 1385.88 420.156 1305.17 359.22 1216.47 318.518 1119.53 297.579 1069.88 286.992 1049.65 284.639 987.767 282.757 899.768 280.169 827.534 291.462 739.535 321.812 706.83 332.87 644.713 362.514 616.243 380.159 563.067 413.568 531.068 438.742 488.715 480.856 452.481 517.087 449.186 520.617 422.128 556.613 389.423 600.609 356.953 656.839 336.012 706.717 329.894 721.539 309.895 782.709 305.895 799.649 289.895 866.937 286.836 893.052 286.836 966.692 286.836 1032.1 288.248 1048.8 298.601 1101.97 314.836 1186.2 353.188 1277.72 402.599 1349.95 454.363 1426.18 522.597 1492.99 599.537 1543.11 604.008 1546.17 625.419 1559.11 638.36 1566.63 644.242 1570.16 700.241 1597.69 706.595 1600.04 751.3 1617.92 795.064 1631.1 833.651 1638.39 844.71 1640.51 858.357 1643.33 864.239 1644.75 879.768 1648.27 956.238 1653.45 979.531 1652.27 990.59 1651.8 1011.77 1650.86 1026.59 1650.16ZM283.777 1537.23C305.659 1528.05 300.248 1505.46 276.013 1505.46 267.072 1505.46 263.778 1504.52 261.895 1500.99 259.307 1495.82 258.366 1496.52 296.954 1469 310.365 1459.35 323.071 1451.35 324.953 1451.35 327.071 1451.35 332.012 1452.53 336.247 1454.18 342.365 1456.29 344.717 1456.29 347.541 1453.94 354.129 1448.53 351.776 1438.88 339.776 1420.53 314.6 1382.18 292.718 1370.65 294.365 1396.77 294.836 1403.36 293.424 1406.18 286.601 1412.77 267.778 1430.41 238.366 1451.59 232.013 1452.06 224.719 1452.53 224.484 1451.12 227.778 1430.65 229.19 1422.65 228.719 1419.83 225.425 1416.06 223.072 1413.47 219.308 1411.36 216.955 1411.36 210.367 1411.36 198.602 1422.65 193.661 1433.94 188.014 1446.18 187.779 1454.41 192.955 1458.65 201.661 1465.94 245.425 1527.34 245.425 1532.52 245.425 1540.52 269.189 1543.34 283.777 1537.23ZM1738.11 1472.53C1745.87 1469.7 1753.64 1457 1753.64 1447.82 1753.64 1434.65 1740.23 1406.89 1717.64 1372.07 1700.7 1346.19 1692.46 1330.19 1692.46 1323.83 1692.46 1316.07 1687.99 1312.54 1681.64 1314.89 1675.52 1317.25 1660.23 1335.13 1653.4 1347.83 1650.58 1353.01 1647.29 1358.42 1645.87 1360.07 1642.35 1364.54 1640.46 1376.77 1642.58 1380.3 1643.99 1382.18 1648.23 1383.12 1653.87 1382.65 1665.17 1381.71 1666.82 1386.65 1659.76 1401 1649.17 1421.71 1633.64 1431.59 1633.64 1417.47 1633.64 1411.36 1629.4 1406.65 1623.99 1406.65 1614.58 1406.65 1593.64 1435.82 1593.64 1448.76 1593.64 1458.17 1598.82 1460.53 1607.76 1455.12 1615.99 1450.41 1625.87 1450.41 1657.17 1455.12 1691.52 1460.06 1700.93 1462.41 1714.58 1469 1727.99 1475.58 1729.64 1475.82 1738.11 1472.53ZM180.014 1394.42C185.896 1382.18 196.484 1375.59 241.895 1356.54 269.895 1344.77 280.718 1337.25 280.718 1329.95 280.718 1323.13 276.013 1319.83 247.543 1307.6 235.307 1302.42 221.661 1296.31 217.19 1293.95 212.719 1291.6 206.367 1289.01 203.073 1288.31 194.838 1286.19 186.367 1277.96 188.249 1273.72 189.896 1269.02 205.426 1261.02 214.131 1260.55 217.661 1260.31 224.249 1260.78 228.484 1261.72 244.484 1265.49 247.543 1253.02 236.013 1229.26 225.425 1206.9 213.425 1202.9 206.367 1219.61 202.367 1229.26 193.19 1235.37 165.426 1247.14 133.662 1260.55 126.839 1262.19 119.78 1257.49 111.309 1252.08 104.486 1252.78 101.662 1259.37 96.7212 1269.96 110.133 1299.6 123.074 1306.9 129.191 1310.19 162.603 1325.72 177.191 1332.07 181.661 1333.95 187.544 1337.25 190.132 1339.13 194.602 1342.66 194.602 1342.89 190.602 1347.36 184.484 1353.95 169.661 1358.42 163.544 1355.13 155.544 1350.89 147.073 1351.83 145.427 1357.24 142.603 1366.18 150.603 1389.48 160.25 1400.3 166.367 1407.12 175.308 1404.53 180.014 1394.42ZM1812.93 1339.36C1815.99 1336.07 1820.46 1325.95 1823.28 1316.54 1826.11 1307.13 1831.75 1291.84 1835.99 1282.19 1848.93 1252.31 1847.52 1226.43 1832.46 1215.37 1823.99 1209.26 1807.52 1207.61 1798.11 1212.32 1787.52 1217.73 1784.93 1217.02 1783.52 1209.02 1781.17 1198.2 1775.05 1190.67 1761.4 1181.73 1753.64 1176.79 1748.93 1172.08 1748.93 1169.26 1748.93 1163.14 1742.81 1158.91 1736.23 1160.56 1726.81 1162.91 1715.99 1183.14 1715.99 1199.14 1715.99 1211.37 1721.87 1219.84 1739.52 1232.78 1755.28 1244.08 1760.93 1252.31 1757.17 1258.19 1752.93 1265.49 1727.76 1255.61 1721.87 1244.55 1716.7 1234.43 1708.23 1234.67 1701.87 1245.02 1694.81 1256.31 1687.52 1276.78 1686.11 1289.48 1684.93 1299.6 1685.17 1300.78 1690.58 1303.13 1694.58 1305.01 1699.05 1305.25 1704.7 1303.6 1715.05 1300.78 1727.29 1302.9 1753.64 1312.78 1764.7 1316.78 1777.17 1321.25 1781.64 1322.89 1786.34 1324.54 1791.28 1328.78 1793.4 1332.77 1799.75 1344.07 1800.93 1345.48 1804.46 1345.48 1806.34 1345.48 1810.11 1342.66 1812.93 1339.36ZM114.368 1211.61C125.897 1207.14 124.485 1194.67 112.015 1189.96 101.192 1185.97 90.6037 1157.26 96.4858 1148.09 99.7799 1142.91 120.015 1137.97 125.662 1141.03 132.485 1144.56 131.309 1153.97 123.074 1160.09 114.603 1166.2 113.662 1174.91 120.956 1177.26 134.603 1181.73 168.25 1171.38 171.308 1161.73 173.426 1155.38 171.073 1153.03 161.661 1151.15 147.073 1148.56 145.427 1135.85 159.073 1131.62 181.19 1124.79 185.426 1126.21 191.073 1142.91 196.72 1159.85 193.426 1173.73 180.955 1185.26 173.661 1192.08 173.426 1195.14 179.544 1200.79 185.19 1205.96 191.308 1204.55 206.131 1194.67 220.955 1185.02 223.307 1180.32 219.543 1168.08 212.249 1143.38 210.131 1136.32 206.837 1121.97 193.896 1066.21 192.72 1063.39 185.19 1063.15 183.544 1063.15 180.485 1065.98 178.132 1069.74 172.25 1078.92 168.485 1081.27 151.309 1086.45 104.486 1100.33 86.1331 1101.97 76.9569 1093.5 73.4275 1090.21 70.1335 1089.03 66.8395 1090.21 59.7807 1092.33 60.2514 1104.33 68.7216 1137.97 72.4863 1153.26 76.7216 1173.03 78.1335 1181.97 82.6037 1208.32 82.8391 1209.02 88.4862 1211.37 95.545 1214.2 107.309 1214.2 114.368 1211.61ZM1864.93 1167.38C1870.11 1161.26 1878.11 1136.09 1879.75 1119.85 1882.34 1097.27 1875.28 1091.15 1858.58 1100.8 1850.81 1105.5 1850.11 1105.74 1828.46 1101.97 1816.46 1099.86 1801.17 1096.56 1794.58 1094.68 1787.99 1092.8 1781.17 1091.39 1779.28 1091.39 1777.4 1091.39 1772.23 1086.92 1767.52 1081.5 1758.34 1070.92 1754.11 1070.68 1747.76 1080.33 1741.4 1089.97 1734.58 1118.44 1735.28 1131.62 1736.23 1147.15 1740.93 1150.91 1751.52 1145.03 1760.46 1139.85 1770.34 1139.62 1794.81 1144.56 1830.81 1151.62 1840.69 1155.14 1847.05 1163.61 1853.64 1172.32 1859.28 1173.5 1864.93 1167.38ZM1852.22 1057.27C1866.81 1049.98 1876.93 1039.86 1884.93 1024.57 1890.58 1013.75 1891.28 1010.22 1891.28 987.867 1891.05 965.045 1890.58 962.222 1884.46 951.87 1867.75 923.637 1835.05 908.345 1805.17 914.697 1763.99 923.637 1737.64 975.633 1753.64 1016.33 1761.64 1036.1 1771.28 1047.63 1787.05 1055.86 1799.75 1062.21 1803.52 1063.15 1821.17 1063.15 1837.4 1063.15 1842.81 1062.21 1852.22 1057.27ZM104.486 1052.57C112.25 1048.57 116.956 1039.16 114.839 1032.1 113.897 1029.74 107.78 1023.63 101.192 1018.69 86.3684 1007.86 84.4862 1005.51 80.9569 994.454 71.3097 964.339 118.133 953.282 145.662 978.926 159.779 992.101 161.191 1011.63 149.662 1034.21 146.367 1040.33 146.132 1042.21 148.721 1045.27 156.485 1054.68 177.426 1045.04 184.014 1029.27 186.367 1023.86 190.132 1012.57 192.249 1004.1 196.249 989.749 196.249 987.631 192.72 974.221 187.779 954.928 181.896 943.635 170.838 933.048 154.603 917.285 145.897 913.991 121.897 913.991 100.956 913.991 100.251 913.991 86.6037 923.167 55.3101 944.341 43.7808 980.573 56.9573 1017.28 59.5454 1024.8 61.8982 1033.74 61.8982 1036.57 61.8982 1043.39 68.7216 1049.27 80.2509 1053.04 92.2509 1056.8 96.2505 1056.57 104.486 1052.57ZM314.365 597.08C321.424 593.786 328.012 582.964 328.247 574.023 328.718 559.672 312.012 526.969 279.072 476.386 271.542 465.093 268.013 457.093 267.778 450.741 266.601 428.861 248.013 437.801 229.661 469.092 212.249 498.737 212.014 506.736 228.013 506.736 235.072 506.736 237.19 507.677 237.896 511.206 239.072 516.853 231.307 532.38 222.131 543.203 216.249 550.026 214.602 550.967 210.837 548.849 208.484 547.438 206.131 543.203 205.426 539.438 203.543 529.086 195.308 529.086 185.661 539.203 170.132 555.672 162.603 578.964 171.544 582.493 173.661 583.199 178.838 582.023 183.308 579.905 193.426 575.2 204.72 575.2 232.249 579.67 268.719 585.787 276.718 587.904 288.954 593.786 302.13 600.374 306.13 600.844 314.365 597.08ZM1647.05 577.082C1651.29 573.788 1654.82 569.553 1654.82 567.436 1654.82 561.083 1647.52 554.966 1639.76 554.966 1631.29 554.966 1622.82 547.908 1613.17 533.321L1606.82 523.911 1616.7 514.735C1631.05 501.324 1643.05 502.266 1643.05 517.323 1643.05 519.44 1641.4 522.734 1639.29 524.381 1634.11 528.851 1635.99 539.438 1642.35 540.38 1654.82 542.262 1685.4 518.264 1685.4 506.736 1685.4 499.442 1681.17 497.56 1672.7 500.854 1656.46 506.971 1651.52 490.267 1666.34 480.385 1679.05 471.915 1684.7 471.209 1691.76 477.562 1705.87 490.973 1709.4 507.677 1701.64 526.028 1699.29 532.145 1699.29 534.027 1701.64 537.086 1707.29 543.909 1715.05 541.556 1725.17 530.028 1737.4 516.147 1739.76 505.324 1732.7 496.619 1726.34 488.855 1717.4 476.386 1695.52 445.8 1669.87 409.804 1668.93 408.863 1663.29 409.568 1659.52 410.039 1658.11 412.392 1656.93 419.215 1655.05 431.214 1643.29 442.977 1613.64 462.74 1591.99 477.092 1589.17 478.503 1577.17 478.738 1558.35 479.209 1558.35 479.209 1558.35 485.561 1558.35 491.208 1562.58 498.266 1593.64 542.026 1601.88 553.79 1610.82 567.671 1613.4 573.083 1618.11 582.729 1618.82 583.199 1628.7 583.199 1636.23 583.199 1641.17 581.552 1647.05 577.082ZM393.423 484.856 407.069 471.445 408.717 431.684C410.599 381.806 413.423 375.689 428.246 389.335 433.187 394.04 435.069 398.275 436.01 407.451 437.187 419.45 437.422 419.685 445.187 420.391 452.01 421.097 454.834 419.685 465.657 408.863 481.186 393.57 485.421 384.63 480.01 378.983 477.421 376.63 472.716 375.454 467.304 375.689 456.01 376.395 452.245 373.807 419.069 342.751 404.246 328.87 389.423 315.46 386.129 312.636 378.364 306.755 366.6 306.284 364.247 312.166 363.306 314.283 361.658 336.869 360.482 362.043 359.306 387.218 357.894 409.333 357.188 410.98 355.306 416.391 346.835 413.803 337.423 404.628 328.247 395.687 326.365 391.688 324.953 378.513 324.483 373.807 322.835 372.395 316.483 371.925 303.071 370.513 280.718 392.864 280.718 407.451 280.718 413.803 284.483 416.156 294.601 416.156 303.071 416.156 315.777 424.626 334.6 442.742 356.717 464.387 363.07 473.798 363.07 485.561 363.07 497.09 364.011 498.501 372.952 498.501 378.364 498.501 383.07 495.208 393.423 484.856ZM1571.29 457.799C1579.99 452.153 1586.58 442.507 1586.58 435.449 1586.58 430.743 1576.7 418.509 1572.7 418.509 1571.29 418.509 1564.93 419.685 1558.35 421.097 1543.05 424.391 1532.23 422.273 1523.05 414.744 1517.17 409.568 1515.99 406.981 1515.99 398.275 1515.99 389.1 1517.17 386.512 1526.35 377.336 1539.52 364.161 1557.64 358.044 1572.23 362.043 1584.7 365.337 1598.35 379.453 1602.82 394.04 1607.76 409.333 1614.35 410.745 1622.82 398.04 1630.82 386.277 1630.58 381.336 1620.23 360.161 1609.4 338.281 1598.35 326.753 1580.23 318.283 1556.7 306.99 1531.52 308.402 1510.35 321.577 1488.7 334.987 1479.76 352.162 1479.99 379.689 1480.23 412.156 1493.41 434.507 1520.94 448.859 1529.17 453.094 1538.58 458.74 1541.88 461.328 1548.7 466.74 1559.52 465.563 1571.29 457.799ZM510.127 371.219C528.479 362.514 551.303 342.751 551.303 335.223 551.303 328.164 547.068 324.4 538.832 324.4 530.127 324.4 522.597 316.401 500.951 284.639 485.656 262.288 484.715 259.7 484.48 247.466 484.245 227.939 480.48 226.762 457.892 238.526 447.775 243.702 435.304 252.171 429.657 257.583 415.54 270.758 416.246 279.228 431.775 282.992 438.834 284.639 452.951 300.402 472.245 328.4 484.715 346.751 485.421 348.868 485.421 361.808 485.421 374.748 486.833 377.572 492.951 378.277 494.127 378.513 501.656 375.219 510.127 371.219ZM1417.17 330.517C1426.35 326.047 1449.17 312.636 1467.76 300.873 1491.76 285.58 1503.05 279.699 1507.99 279.699 1524.94 279.699 1527.76 268.17 1513.88 255.466 1503.29 246.054 1475.05 228.88 1466.58 226.762 1457.88 224.645 1451.05 232.409 1454.82 239.702 1457.17 243.937 1456.94 245.584 1453.88 248.642 1450.35 252.171 1449.17 251.937 1439.29 246.76 1414.35 233.115 1405.41 220.175 1419.05 217.116 1430.11 214.763 1431.29 214.057 1431.29 209.588 1431.29 199.941 1401.88 178.531 1388.47 178.531 1380.23 178.531 1378.11 185.119 1383.29 195.942 1387.05 203.47 1387.05 206.764 1384.47 227.233 1379.76 264.17 1374.58 286.992 1367.29 301.344 1362.35 311.46 1361.17 316.165 1362.82 320.165 1365.41 326.988 1374.35 335.223 1380.7 336.869 1388.7 338.752 1406.11 335.693 1417.17 330.517ZM598.596 314.519C606.125 310.519 612.949 305.108 614.596 301.814 616.007 298.52 617.184 284.404 617.184 270.287 617.184 256.406 617.89 243.231 618.596 241.114 621.184 234.526 628.007 237.114 648.007 251.701 671.536 269.111 681.654 271.464 697.653 263.229 719.535 251.937 724.476 240.408 710.829 233.115 698.124 226.292 692.477 218.528 676.712 186.295 662.83 157.828 661.654 154.298 663.066 144.652 664.477 135.947 664.007 133.83 660.242 131.948 649.654 126.066 609.655 144.888 603.537 158.298 600.714 164.415 602.361 166.533 615.066 174.532 621.419 178.296 633.654 197.589 633.654 203.47 633.654 205.353 631.772 206.764 629.419 206.764 624.949 206.764 619.066 203 596.479 185.119 588.714 178.767 580.479 173.826 578.596 173.826 571.067 173.826 569.42 183.708 572.244 209.117 574.596 227.468 574.596 233.821 572.244 236.408 567.773 241.82 565.891 240.408 558.362 225.115 552.479 212.646 551.538 208.646 552.714 199.235L554.362 187.943 544.479 187.943C528.715 187.943 506.597 201.353 506.597 210.764 506.597 214.999 508.245 216.646 513.185 217.587 523.303 219.704 526.597 223.233 541.42 248.172 562.126 283.228 566.596 294.991 563.302 305.813 561.891 310.519 561.185 316.165 562.126 318.048 565.185 326.047 579.302 324.635 598.596 314.519ZM1321.64 276.405C1324.94 274.522 1330.35 269.111 1333.88 264.406 1339.06 257.583 1340.23 253.583 1340.23 241.349 1340.47 230.762 1339.06 224.409 1335.76 218.998 1331.06 210.764 1311.76 196.647 1301.88 193.824 1293.64 191.472 1290.11 188.178 1290.11 182.766 1290.11 175.473 1299.06 164.65 1308.23 160.886 1319.06 156.416 1318.11 149.123 1305.17 140.417 1291.06 131.007 1276.47 126.066 1261.88 125.831 1249.88 125.595 1248.94 126.066 1248.23 131.242 1247.76 134.301 1248.47 137.83 1249.88 139.241 1255.29 144.652 1253.65 150.769 1234.12 198.059 1223.29 224.409 1219.06 230.291 1209.88 230.291 1201.65 230.291 1196.47 238.055 1200.94 243.702 1204 246.996 1227.29 258.524 1231.53 258.524 1232.7 258.524 1243.29 263.229 1255.29 268.876 1267.29 274.522 1279.29 279.934 1281.88 280.639 1290.59 282.757 1316 280.404 1321.64 276.405ZM809.416 229.586C819.299 218.763 824.475 204.647 835.063 157.357 837.181 147.711 840.475 134.301 842.122 127.478 844.004 120.89 845.416 113.597 845.416 111.008 845.416 108.656 848.239 104.186 851.298 101.127 862.122 91.0104 856.945 82.0703 840.24 82.0703 830.828 82.0703 800.475 89.599 788.475 94.7748 778.123 99.245 774.829 106.774 781.181 111.479 783.534 113.361 786.123 115.008 787.299 115.008 788.24 115.008 788.946 117.126 788.946 119.714 788.946 126.066 780.946 130.536 762.358 134.065 748.241 136.653 746.123 136.653 742.829 133.359 739.3 130.066 739.535 128.889 744.241 122.537 753.652 109.597 743.77 104.421 718.829 109.126 689.418 114.773 681.418 125.36 700.241 133.595 712.006 138.771 719.065 146.064 742.123 177.355 758.358 199.235 767.77 215.234 767.77 221.116 767.77 222.527 769.888 226.762 772.476 230.291 780.476 241.584 798.593 241.114 809.416 229.586ZM1176.47 230.762C1180.7 227.233 1185.65 220.41 1187.76 215.705 1191.06 207.235 1191.06 206.764 1185.65 200.412L1180 193.824 1164.47 201.588C1142.59 212.175 1127.76 210.999 1127.76 198.53 1127.76 191.472 1132.23 188.883 1149.41 187.001 1174.59 184.178 1186.35 180.414 1194.82 172.179 1210.82 156.651 1211.06 133.83 1195.29 116.185 1179.29 97.8333 1157.88 89.3637 1127.76 89.1284 1104.94 89.1284 1100.47 91.2457 1091.06 106.068 1086.82 112.655 1085.41 117.832 1085.88 123.949 1086.82 135.242 1092.47 136.418 1103.76 127.478 1117.88 116.185 1122.59 114.303 1136.71 115.479 1148.71 116.655 1156 120.89 1156 127.242 1156 131.477 1144 136.183 1129.88 137.594 1101.65 140.417 1080.47 154.534 1076.94 172.885 1073.18 193.118 1083.06 212.881 1102.82 224.409 1110.12 228.644 1117.88 230.762 1131.53 231.703 1141.65 232.644 1151.76 234.056 1153.65 235.232 1160.23 238.996 1168.94 237.35 1176.47 230.762ZM961.649 211.234C969.414 205.117 969.414 203.235 961.649 196.177 953.414 188.648 951.532 177.591 951.296 139.241 951.296 110.303 951.532 107.715 956.473 103.245 966.591 93.8336 988.943 100.656 993.884 115.008 997.413 124.419 1004.94 126.536 1010.35 119.478 1016.71 111.244 1015.77 101.362 1007.53 87.0107L1000.24 74.3062 948.708 75.7176C919.297 76.6588 895.297 78.3059 892.474 79.7173 885.651 83.2464 886.592 89.1284 895.533 96.4219L903.062 102.774 903.768 142.77C904.709 185.825 903.533 191.236 893.415 195.001 889.651 196.647 887.768 199 887.768 203 887.768 213.117 896.945 215.94 928.003 216.175 952.238 216.175 956.002 215.705 961.649 211.234Z" fill="#005AA9" fill-rule="evenodd" transform="matrix(1 0 0 -1 1224 2209)"/><path d="M10.3985 27.3765C3.00471 18.8954-3.43495 5.23174-1.76558 0.991205-0.811452-1.36449 2.52765-2.77812 8.01318-2.77812 14.6914-2.77812 17.0767-1.36449 21.1314 5.23174 27.3325 14.8905 27.5711 23.6072 21.8466 28.5542 16.1226 33.7371 15.884 33.5015 10.3985 27.3765Z" fill="#005AA9" fill-rule="evenodd" transform="matrix(1 0 0 -1 2579 474)"/><path d="M8.15671 62.4687C0.0837669 59.1905-3.24032 48.6533 1.03361 38.5845 5.545 28.0474 22.8778 11.6563 38.5488 3.46066 53.0325-4.26666 56.8311-4.50084 65.1415 1.82174 72.2646 7.20723 72.977 14.9346 67.7532 24.7692 62.7673 34.3696 39.4983 54.7417 26.9143 60.1272 14.8049 65.2789 15.0423 65.2789 8.15671 62.4687Z" fill="#005AA9" fill-rule="evenodd" transform="matrix(1 0 0 -1 1707 556)"/><path d="M1.85401 27.1423C-2.34695 23.0031-1.64673 21.1637 7.68846 8.97606 19.8245-6.89042 29.3931-6.20049 29.3931 10.8159 29.3931 23.0031 9.55571 34.7307 1.85401 27.1423Z" fill="#005AA9" fill-rule="evenodd" transform="matrix(1 0 0 -1 1570 629)"/><path d="M581.604 1231.94C579.722 1231.47 565.839 1230.05 551.015 1228.41 411.716 1214.3 283.005 1153.14 182.53 1053.18 164.412 1035.07 142.293 1011.31 133.587 1000.26 89.8207 945.219 51.7016 875.598 31.4653 813.268 13.8175 759.406 6.99377 728.829 1.58196 675.672-5.71246 606.992 0.405326 522.788 16.8764 462.81 19.7004 452.461 22.9946 440.936 23.9355 436.937 26.5241 427.529 32.1713 410.124 35.2302 402.832 36.4068 399.539 39.4657 392.248 41.8186 386.368 49.5837 366.375 77.8201 309.925 86.2912 297.46 90.762 290.403 94.5265 284.523 94.5265 284.053 94.5265 280.76 123.234 241.245 142.529 218.195 165.353 190.676 213.826 145.045 245.592 121.054 263.239 107.883 278.298 97.0631 279.004 97.0631 279.71 97.0631 284.652 94.0054 290.299 90.2421 313.124 75.1891 365.596 48.6105 391.244 39.4376 429.363 25.7957 466.306 15.2114 496.895 9.09572 537.838 1.09895 547.956-0.0772077 603.723-1.01813 650.313-1.95905 667.49-1.48859 689.609 1.56905 725.14 6.74377 759.729 13.5647 780.436 19.68 789.613 22.2676 800.202 25.3252 803.966 26.501 857.615 42.26 934.089 80.5987 980.444 115.644 1087.04 195.615 1162.1 298.635 1204.92 424.001 1210.1 439.054 1223.51 495.503 1227.28 518.083 1236.92 575.474 1236.92 653.092 1227.51 709.777 1223.75 732.122 1209.86 790.924 1204.92 805.036 1188.22 853.488 1174.1 884.536 1149.16 927.343 1083.51 1040.01 976.208 1134.09 858.086 1182.54 846.556 1187.25 833.85 1192.42 829.85 1194.3 822.791 1197.36 784.436 1209.12 765.141 1214.06 751.493 1217.35 710.316 1224.88 686.315 1228.41 667.961 1231 588.664 1233.82 581.604 1231.94ZM633.371 1157.61C649.137 1149.61 671.02 1126.33 679.962 1107.98 683.961 1099.28 687.491 1090.58 687.491 1088.7 687.491 1087.05 689.138 1081.64 691.021 1077.17 695.962 1064.94 695.962 1010.37 690.786 994.377 679.726 959.802 659.961 932.753 637.136 921.699 627.018 916.759 621.371 915.583 606.311 915.583 590.546 915.583 586.311 916.524 574.31 922.874 544.662 938.869 522.543 972.973 514.778 1015.55 510.072 1041.89 510.072 1049.42 515.014 1073.64 523.72 1117.63 547.015 1149.85 578.546 1161.61 591.723 1166.55 619.959 1164.43 633.371 1157.61ZM380.185 1097.87C421.834 1081.17 462.776 1040.24 477.601 1000.26 491.013 964.506 492.895 942.867 484.895 921.228 455.247 842.434 330.301 891.827 288.652 999.082 285.122 1008.25 283.946 1016.72 283.946 1037.89 283.946 1063.29 284.417 1065.65 290.534 1075.99 307.476 1105.16 341.595 1113.39 380.185 1097.87ZM810.555 1016.96C831.026 1008.02 846.321 990.379 853.145 967.329 858.557 949.453 858.086 911.585 852.439 891.827 836.438 835.377 790.083 790.924 747.258 790.453 731.258 790.218 719.022 794.452 706.786 804.565 679.962 826.205 669.843 865.249 679.256 910.409 694.55 983.087 761.847 1037.89 810.555 1016.96ZM268.651 916.994C285.828 912.761 292.652 909.468 312.653 896.061 362.302 862.897 394.774 799.626 385.362 754.466 381.361 735.65 375.714 725.771 363.949 717.539 350.066 707.66 331.477 704.602 311.712 708.601 285.828 713.541 266.063 725.301 240.179 750.938 227.708 763.169 215.943 776.576 213.826 780.339 188.648 826.675 182.765 861.721 195.707 888.534 208.649 915.348 234.297 925.462 268.651 916.994ZM567.722 834.437C599.487 828.557 625.371 818.443 652.666 801.273 680.432 783.867 705.845 760.346 715.963 742.706 727.257 722.949 724.198 700.369 706.315 674.496 680.432 636.863 609.606 588.175 527.485 551.483 521.602 548.895 511.013 544.192 503.954 540.899 475.248 527.962 468.424 526.316 443.952 526.316 418.54 526.316 408.656 529.138 389.832 541.839 363.243 559.715 354.537 579.002 356.184 616.4 357.125 635.452 358.537 642.273 364.89 658.031 369.361 668.38 375.244 683.669 378.303 691.666 387.479 716.363 400.656 738.472 418.54 759.406 438.07 782.456 435.717 779.869 461.6 803.625 482.777 822.912 488.895 826.675 513.367 833.261 532.661 838.67 543.25 838.906 567.722 834.437ZM911.735 789.512C919.5 785.514 931.5 775.635 945.383 761.287 965.384 740.589 967.267 739.178 976.208 739.178 996.209 739.178 1022.56 726.712 1040.45 708.836 1055.03 694.018 1059.27 683.904 1059.27 662.971 1059.27 642.273 1055.27 630.277 1043.27 615.459 1018.09 584.412 967.267 560.421 908.676 551.953 874.322 547.014 856.91 542.545 839.732 534.078 828.203 528.433 769.141 485.39 715.963 443.523 707.492 436.937 683.961 419.767 663.961 405.655 643.96 391.307 625.136 377.195 622.312 374.137 619.489 371.079 615.488 361.436 613.37 352.263 598.076 289.227 578.31 245.243 554.309 221.252 548.192 214.902 536.897 206.905 529.132 202.906 515.955 196.32 513.131 195.85 488.189 195.85 466.541 195.85 459.717 196.791 452.658 200.319 432.893 210.668 421.128 230.661 409.833 274.174 407.01 284.523 406.068 285.699 392.891 291.579 368.185 302.634 347.007 332.505 344.654 360.26 342.066 388.014 353.125 414.122 378.067 439.289 405.833 466.809 433.599 478.098 474.306 478.098L496.66 478.098 524.897 498.797C540.426 510.086 558.545 523.023 565.133 527.492 571.722 531.961 580.664 538.311 585.134 541.604 589.605 544.897 598.547 551.248 605.135 555.716 627.959 571.24 681.608 611.696 691.256 620.634 696.668 625.808 705.374 635.922 711.022 643.449 719.492 654.739 721.846 660.619 726.316 681.082 732.905 711.188 738.787 722.008 758.553 741.765 777.848 760.817 801.613 777.046 826.085 787.631 843.026 795.157 845.38 795.627 871.733 795.627 896.911 795.627 900.441 795.157 911.735 789.512ZM643.725 272.998C644.431 269.94 645.136 263.825 645.136 259.356 645.136 251.829 647.019 240.304 655.96 193.498 657.843 183.619 659.255 173.035 659.255 169.742 659.255 166.449 660.431 162.686 662.078 161.039 665.137 157.982 705.609 157.747 773.377 160.334L811.026 161.745 813.378 174.211C816.437 189.97 826.32 200.554 843.732 206.434 856.204 210.668 856.674 210.668 869.851 205.964L883.028 201.025 897.617 205.964C911.735 210.668 912.206 210.668 923.971 206.434 963.973 192.322 966.561 157.276 930.324 119.173 911.265 99.1801 889.146 80.5987 883.969 80.5987 879.499 80.5987 860.204 96.3577 840.203 116.35L828.673 127.875 724.904 126.464C667.726 125.758 619.959 124.583 619.018 123.877 617.841 123.171 616.9 120.114 616.9 117.056 616.9 113.998 615.724 108.588 614.312 104.825 612.9 101.297 611.017 93.535 610.076 87.6549 607.959 72.3663 603.252 74.2482 595.017 93.535 591.252 102.708 586.781 113.293 585.134 117.291L582.075 124.583 552.192 125.994C517.838 127.64 511.013 125.994 511.013 116.585 511.013 112.822 509.366 104.825 507.484 98.4744 505.602 92.1239 503.954 83.4211 503.954 79.1873 503.954 73.5425 502.543 70.4848 499.013 68.603 493.366 65.7806 488.895 69.5439 491.013 75.6592 491.719 77.3058 493.131 83.1859 494.307 88.5958 503.484 130.227 505.131 135.167 510.072 137.284 513.131 138.224 530.779 139.165 549.839 138.93 588.193 138.93 590.311 137.989 595.958 121.29 599.723 109.294 603.958 111.411 608.665 127.64 610.547 133.991 612.9 136.578 619.253 138.46 628.43 141.517 630.077 143.869 632.195 156.571 633.842 167.39 636.195 166.449 640.431 153.043 646.078 135.402 638.313 136.343 740.199 138.224L832.203 139.636 854.321 118.467C866.557 106.707 878.557 96.593 880.911 95.652 886.322 94.0054 888.676 95.4168 909.853 114.468 929.148 131.874 938.795 144.575 943.03 158.923 950.56 182.914 928.206 202.906 901.853 195.85 896.676 194.439 891.735 192.322 891.029 191.146 888.911 187.853 881.146 188.324 875.028 192.087 851.968 206.669 822.791 191.381 823.496 165.273 823.496 158.923 822.555 152.807 820.908 151.631 819.261 150.22 783.495 149.044 735.964 148.574L653.607 147.633 650.549 159.393C648.901 165.979 646.313 180.091 644.901 191.146 642.313 213.726 637.607 222.193 633.371 211.374 632.195 207.846 631.018 202.671 631.018 199.848 631.018 197.026 629.371 188.794 627.489 181.738 625.606 174.681 623.959 165.979 623.959 162.686 623.959 159.393 622.547 154.924 620.9 152.572 617.135 147.397 598.311 142.928 594.782 146.456 593.605 147.633 589.605 148.809 586.311 148.809 582.781 148.809 578.075 150.926 575.722 153.513 573.369 156.1 570.075 158.217 568.428 158.217 566.781 158.217 564.192 156.1 562.78 153.513 560.427 149.279 557.839 148.809 529.838 148.809 503.249 148.809 499.249 148.338 497.366 144.81 495.013 140.341 490.777 122.465 488.66 108.353 487.483 101.532 486.072 99.4154 482.777 99.4154 479.483 99.4154 477.836 101.767 476.659 108.353 474.071 123.642 466.777 142.693 462.541 145.751 456.894 149.985 447.482 149.514 442.305 145.045 439.011 141.988 437.364 141.753 434.775 143.869 432.893 145.516 427.481 146.456 422.304 146.221 416.657 145.986 410.304 147.633 404.657 150.926 397.127 155.63 395.009 158.452 391.009 172.329 384.42 194.674 380.891 196.791 374.538 182.443 360.419 149.985 360.655 150.22 339.007 147.633 327.947 146.456 325.124 146.927 318.065 151.866 310.064 157.511 309.829 157.511 302.535 153.277 298.535 151.161 292.652 148.809 289.593 148.338 286.534 148.103 283.946 145.986 283.946 144.105 283.946 141.282 287.24 140.576 298.064 140.341 319.006 140.106 320.183 139.871 326.301 133.285 330.771 128.346 332.654 127.875 336.419 129.757 339.007 131.168 341.595 133.755 342.536 135.872 343.242 138.224 346.772 139.4 352.184 139.4 363.008 139.4 368.89 142.458 370.773 149.279 371.479 152.337 374.302 157.276 376.656 160.569 381.126 166.214 381.361 166.214 382.773 161.745 387.95 146.692 390.068 143.399 397.127 140.341 401.127 138.695 405.127 135.637 405.833 133.52 407.48 129.522 415.716 128.816 418.069 132.344 420.422 136.343 426.54 134.932 433.834 128.816 437.599 125.523 441.834 122.936 443.011 122.936 444.187 122.936 446.541 125.523 447.952 128.816 451.482 136.813 458.776 136.578 460.659 128.346 461.6 124.583 465.835 110.94 470.071 97.5335 479.013 70.4848 479.718 64.1343 474.542 64.1343 471.012 64.1343 461.6 82.2453 461.6 88.8311 461.6 90.4773 459.482 96.8278 456.894 102.943 452.423 113.293 451.717 113.763 445.129 112.352 439.952 111.175 436.187 112.116 430.775 116.115L423.481 121.29 416.657 116.115C408.186 109.764 407.01 110 399.95 120.584 392.656 131.404 383.479 133.755 364.89 129.992 354.772 127.875 349.595 125.288 346.772 121.29 344.654 118.232 340.889 113.293 338.771 110.47L334.536 105.295 329.359 111.411C326.301 114.939 322.065 119.878 319.947 122.701 316.418 126.699 313.594 127.405 302.064 127.17 276.416 126.464 260.415 140.106 269.828 154.218 273.122 159.628 275.71 160.569 284.417 160.569 291.946 160.569 296.888 162.216 302.535 166.449 312.182 173.741 315.006 173.741 320.888 166.449 325.124 161.039 327.007 160.334 339.713 161.039L353.831 161.745 367.008 193.028C374.302 210.198 381.597 224.075 383.244 224.075 386.774 224.075 388.421 220.311 394.538 199.378 401.362 175.857 405.127 165.744 408.656 162.921 410.774 161.275 422.069 159.864 437.364 159.628 465.6 159.158 472.424 156.806 476.189 146.221 479.247 137.754 481.601 137.519 484.66 145.986 489.366 159.864 492.425 160.804 522.073 159.628 546.544 158.452 549.368 158.923 553.603 163.156 556.192 165.744 558.78 170.918 559.722 174.917 560.427 178.68 561.839 182.443 563.016 183.149 563.957 183.619 568.898 179.15 573.84 172.8 582.075 162.216 583.722 161.039 594.546 159.864 601.135 159.393 607.723 159.864 609.135 161.039 612.429 163.862 614.782 171.859 620.43 199.378 622.312 209.727 625.606 225.721 627.489 234.659 629.136 243.832 631.489 255.358 632.195 260.532 635.018 276.996 640.901 283.347 643.725 272.998Z" fill="#005AA9" fill-rule="evenodd" transform="matrix(1 0 0 -1 1579 1857)"/><path d="M0.531135 21.4232C-4.44953 19.5914-3.02638 10.4313 3.37707 3.79043 6.4602 0.584494 10.0177-2.1634 11.4409-2.1634 14.524-2.1634 23.5362 13.1792 23.5362 18.6753 23.5362 22.3393 21.8762 23.0264 13.5752 22.7974 7.88335 22.7974 1.95428 22.1103 0.531135 21.4232Z" fill="#005AA9" fill-rule="evenodd" transform="matrix(1 0 0 -1 2899 796)"/><path d="M15.3506 20.3337C2.87246 16.7312-2.64647 13.369-2.64647 9.76658-2.64647 5.68379 7.91179-2.00143 13.4307-2.00143 28.0684-2.00143 40.3065 12.4083 33.3477 20.814 29.7483 25.137 30.4682 25.137 15.3506 20.3337Z" fill="#005AA9" fill-rule="evenodd" transform="matrix(1 0 0 -1 3002 952)"/><path d="M26.1376 40.3586C7.63067 32.6987 4.35094 30.3777-0.334549 21.3252-3.37999 15.5221-3.37999 14.1296-0.334549 8.0943 1.77372 4.38041 5.05346 0.898654 6.9278-0.0295516 14.1901-2.81524 30.8231-1.42239 43.7077 2.98792 66.432 10.6478 78.1455 20.3967 78.3798 31.7705 78.6137 48.715 54.9527 52.661 26.1376 40.3586Z" fill="#005AA9" fill-rule="evenodd" transform="matrix(1 0 0 -1 3006 1243)"/><path d="M0.510005 21.5582C-3.98319 16.1584 7.84087-0.744703 16.1178-0.744703 17.7729-0.744703 26.5228 17.8019 26.5228 21.5582 26.5228 26.4881 4.7667 26.4881 0.510005 21.5582Z" fill="#005AA9" fill-rule="evenodd" transform="matrix(1 0 0 -1 1472 1672)"/><path d="M-1.37094 24.3979C-3.49243 20.7782-0.428419 3.40325 3.10703 0.507488 6.1714-2.14692 16.7778 2.1969 23.1415 8.71244 27.3841 12.8149 24.0844 17.6411 13.2423 23.1916 4.9928 27.5354 0.750185 27.7768-1.37094 24.3979Z" fill="#005AA9" fill-rule="evenodd" transform="matrix(1 0 0 -1 2624 1950)"/><path d="M2.03018 37.9616C-3.70033 34.7347-3.22273 27.8199 3.7018 13.2986 10.3875-0.761559 14.208-2.83587 22.5649 2.46534 39.7572 13.2986 19.4609 48.1034 2.03018 37.9616Z" fill="#005AA9" fill-rule="evenodd" transform="matrix(1 0 0 -1 2492 1995)"/><path d="M9.91462 25.2546C5.76067 21.7325-1.16247 11.4009-1.16247 8.58328-1.16247 6.00048 13.607-0.10481 19.6069-0.10481 26.5301-0.10481 27.6841 5.53081 23.0685 17.5058 19.1454 28.5419 16.1454 30.1857 9.91462 25.2546Z" fill="#005AA9" fill-rule="evenodd" transform="matrix(1 0 0 -1 1986 2053)"/></g></svg>