<svg xmlns="http://www.w3.org/2000/svg" width="946" height="198" overflow="hidden"><defs><clipPath id="a"><path d="M167 261h946v198H167z"/></clipPath></defs><g fill="#7DF2F8" clip-path="url(#a)" transform="translate(-167 -261)"><path d="M235.007 265.61c-6.202 2.2-7.148 3.457-6.833 8.8.316 4.504.106 4.819-4.835 8.171-5.886 4.086-8.724 4.4-11.982 1.362-4.835-4.4-11.352.628-10.722 8.171.42 7.124.42 8.172-.42 10.476-.63 1.886-.105 3.039 2.733 5.553 1.892 1.676 4.204 3.143 5.045 3.143.946 0 3.574-1.886 5.781-4.296 8.514-8.59 19.13-14.876 31.218-18.228 4.94-1.362 6.202-2.2 7.568-5.238.946-1.991 1.892-5.343 1.997-7.543l.21-3.981-4.94.21c-4.835.314-5.045.209-7.147-3.877-2.418-4.714-2.208-4.609-7.673-2.723M483.7 292.638c-1.367.629-2.419 1.991-2.419 3.038 0 1.048 3.259 8.591 7.253 16.867s9.25 19.695 11.667 25.457c5.886 13.724 9.986 21.79 11.983 23.467 1.155.942 4.52 1.257 11.247 1.047 11.561-.524 11.352-.21 18.92-17.704 2.837-6.496 5.99-13.724 7.147-16.134 1.156-2.305 4.415-9.219 7.253-15.295 8.724-18.333 8.829-18.543 6.832-20.533-1.366-1.362-3.048-1.572-7.779-1.153-8.408.734-10.195 2.095-13.77 9.953-1.68 3.876-4.518 10.057-6.305 13.828a4579 4579 0 0 0-7.253 15.4c-2.208 4.819-4.415 8.695-4.94 8.695-1.682 0-4.31-3.666-7.043-9.952-1.576-3.457-3.678-8.171-4.73-10.476-1.051-2.305-4.1-8.695-6.622-14.353-2.733-5.866-5.676-10.58-6.937-11.314-3.364-1.676-11.877-2.305-14.505-.838M1042.257 292.114c-1.997 1.886 0 5.553 14.086 25.876 3.573 5.029 7.146 11 7.883 13.096.84 2.2 1.366 8.695 1.47 15.504 0 14.562.947 16.134 9.04 15.296 8.935-1.048 8.83-.734 8.83-15.819l.105-13.305 7.567-12.152c4.205-6.705 9.356-15.086 11.563-18.648 4.625-7.229 4.31-9.01-1.891-10.162-7.674-1.362-14.822 3.771-21.023 15.19-1.787 3.143-3.574 5.343-4.415 5.134-.84-.21-4.204-4.295-7.463-9.219-5.886-8.8-6.096-8.905-11.772-10.162-6.727-1.362-13.034-1.676-13.98-.629M399.295 294.524c-1.261 2.305-.315 12.257 1.367 14.352.735 1.048 7.568 1.362 27.434 1.362 22.177 0 26.803.21 28.8 1.676 2.838 1.991 2.943 4.715.315 7.124-1.787 1.676-4.73 1.781-28.17 1.676-14.295-.104-26.803.105-27.75.419-1.366.629-1.786 3.143-2.311 12.467-1.577 26.61-1.262 27.971 6.937 27.971 3.258 0 6.517-.628 7.883-1.676 2.102-1.466 2.313-2.409 2.313-10.895 0-8.276.21-9.533 2.102-10.476 1.261-.734 9.565-1.048 22.283-.838l20.287.209 4.415-2.828c5.255-3.353 8.829-7.962 11.351-14.667 1.787-4.714 1.787-5.133 0-9.952-2.627-6.915-7.778-13.41-12.088-15.296-2.837-1.152-10.51-1.676-33.845-2.095-29.536-.628-30.167-.628-31.323 1.467M589.545 293.476c-1.892 1.153-2.312 14.981-.525 16.553.63.419 18.29.628 39.416.314l38.366-.629v-16.762l-37.84-.209c-22.704-.21-38.47.105-39.417.733M679.1 293.162c-1.052.419-1.156 7.124-.631 33.628.42 19.8 1.051 33.734 1.682 34.467.63.838 3.678 1.362 7.778 1.362 9.355 0 9.67-.629 9.355-20.429-.105-8.695 0-16.761.315-18.123.631-3.143 2.943-2.934 6.096.523 1.472 1.677 4.415 4.82 6.622 7.124 2.103 2.305 6.307 7.124 9.25 10.686 6.202 7.543 12.298 14.352 15.977 17.81 2.418 2.304 3.259 2.409 13.034 2.2l10.406-.315-.106-33.524c-.21-38.971.632-36.352-11.14-35.933l-7.359.314-.526 19.591c-.315 10.686-.945 19.905-1.366 20.428-.945.839-12.193-10.685-25.646-26.504-11.457-13.305-12.614-14.038-23.546-13.934-4.835 0-9.46.315-10.195.629M770.756 293.267c-1.997 1.362-2.523 4.4-1.891 10.162.525 4.295 1.155 5.761 2.942 6.39 1.156.524 19.025.733 39.521.419l37.315-.524.315-7.333c.211-5.971 0-7.543-1.47-8.591-1.472-1.047-10.512-1.361-38.682-1.361-20.286 0-37.42.419-38.05.838M861.047 293.057c-1.787.733-1.893 15.714-.211 16.762.63.314 13.664.733 29.011.838 25.437.105 27.959.314 29.22 1.991 1.892 2.619.737 5.866-2.522 6.704-1.471.419-14.82.734-29.536.734l-26.803.104-.316 19.8c-.21 13.62.105 20.22.946 21.162 1.366 1.677 13.14 1.99 15.662.42 1.156-.734 1.681-3.772 2.102-11.734l.526-10.79 8.198-.315c9.355-.314 8.409-.838 21.758 11.315 13.98 12.78 13.455 12.571 25.752 12.571 14.4 0 15.136-.733 7.884-7.648-3.154-2.933-8.62-7.961-12.089-10.895l-6.305-5.447 5.465-5.029c7.042-6.495 8.724-10.057 8.724-18.648 0-5.971-.42-7.647-3.258-11.838-1.787-2.724-5.256-6.181-7.568-7.543-4.415-2.619-4.52-2.619-34.897-2.828-16.713-.105-31.113 0-31.743.314M967.104 293.476c-4.836 1.153-10.617 6.076-13.77 11.629-2.523 4.4-2.628 5.447-2.733 21.371 0 15.819.105 17.076 2.627 22 3.26 6.495 8.935 10.372 17.87 12.467 9.88 2.2 59.282 2.2 61.489-.105 1.261-1.257 1.577-5.028 1.577-19.276 0-10.267-.42-18.752-1.051-19.905-1.052-1.886-2.523-1.99-28.38-1.99-26.909 0-27.224 0-28.8 2.304-1.998 2.829-2.313 13.934-.42 15.086.735.524 9.144.733 18.709.524 13.664-.21 17.763.105 19.34 1.257 1.262.943 1.787 2.095 1.366 3.248-.63 1.466-3.153 1.676-21.232 1.676-25.857 0-24.701.733-24.701-15.505 0-6.181.316-12.257.63-13.514 1.052-3.981 5.151-4.714 24.387-4.295 17.133.314 18.079.419 21.442 2.933 4.205 3.038 15.346 4.295 17.344 1.99 1.576-2.095 2.522-20.323 1.05-21.79-1.366-1.362-60.963-1.467-66.744-.105M238.896 298.924c-7.989 4.819-17.764 11.943-20.812 15.4-1.577 1.781-1.682 2.409-.63 3.771 1.786 2.2 3.468 1.991 5.885-.628 2.418-2.724 14.821-10.896 17.974-11.838 4.415-1.362 8.514-8.8 5.781-10.477-.525-.314-4.204 1.467-8.198 3.772M278.312 296.933c-1.997 1.257-4.73 4.505-6.096 7.334-2.418 4.819-2.418 5.133-.736 10.057.946 2.933 1.682 5.762 1.682 6.495 0 1.781-4.1 10.162-5.36 11-.526.314-.947 1.152-.947 1.991 0 .838-1.156 3.247-2.628 5.342-2.207 3.143-2.732 3.562-3.258 1.991-.42-1.048-.21-2.619.42-3.562.736-.943 1.577-2.41 1.892-3.248.316-.838 1.787-4.085 3.259-7.123 3.679-7.229 2.628-8.486-5.15-6.6-12.614 3.247-23.23 11.523-29.747 23.257-2.838 5.238-3.048 6.39-3.153 17.18 0 9.324.42 12.467 2.102 16.239 2.628 6.076 9.04 14.562 13.034 17.6 3.468 2.514 7.463 3.038 7.463 1.047 0-1.257 2.312-6.076 6.937-14.352 4.52-8.172 3.469-9.533-7.042-9.533-5.256 0-6.202-.315-6.202-1.886 0-1.048.525-2.41 1.156-3.038 1.367-1.362 3.469-4.924 5.15-8.591 1.893-4.19 3.68-1.152 2.103 3.457-1.787 5.553-.946 6.915 4.625 6.915 2.522 0 5.36.314 6.306.628 3.26 1.257 2.838 2.305-11.246 29.334-1.682 3.142-3.47 5.657-3.995 5.657-1.261 0-1.261 3.876 0 4.61.526.418 1.997-.63 3.154-2.2 6.727-8.8 24.28-32.896 24.28-33.315 0-.314 2.103-3.457 4.73-7.019 3.364-4.505 4.73-7.229 4.52-9.114-.316-2.41-.946-2.829-6.306-3.772-3.26-.628-6.307-1.362-6.622-1.781-.841-.838 10.195-19.695 12.928-22 .946-.838 3.994-2.514 6.727-3.562 2.733-1.047 6.516-3.247 8.303-4.714 2.839-2.305 3.47-3.562 3.89-8.486.63-7.752-.946-8.485-6.201-3.038-3.26 3.353-4.94 4.296-7.674 4.296-6.411 0-10.616-7.439-7.568-13.41 3.364-6.6 1.472-8.276-4.73-4.086M336.123 305.733c-2.627 6.705-2.312 9.01 1.997 15.505 2.207 3.457 4.415 7.229 4.73 8.381s1.892 5.657 3.364 9.952c2.522 7.019 2.838 9.429 2.838 22.105 0 12.048-.316 15.295-2.312 21.267-1.367 3.771-2.839 7.228-3.26 7.543-2.312 1.362-.314 4.819 7.043 11.838 4.31 4.19 8.514 7.333 9.145 7.124 2.523-.838 1.997-4.82-.946-7.438-2.838-2.305-2.838-2.724-1.681-6.496.63-2.305 1.47-5.133 1.786-6.39.421-1.467 1.787-2.62 3.47-3.038 1.575-.315 3.888-.734 5.15-1.048 2.838-.524 5.57-5.343 5.57-9.638 0-2.514-.736-3.352-4.415-5.029l-4.519-1.99-.316-7.02-.315-7.018 3.994-1.886c3.574-1.676 3.995-2.409 4.31-6.181.21-2.305-.21-5.447-.736-7.019-.946-2.514-1.681-2.828-5.886-2.828-4.204 0-4.94-.315-5.886-2.934-.631-1.571-1.892-4.505-2.733-6.495-1.577-3.562-1.472-3.667 1.682-6.39 3.994-3.248 4.1-5.972.63-11.315-3.363-5.447-4.099-5.762-7.988-3.666-2.628 1.257-3.89 1.466-5.781.523-1.367-.628-2.523-1.571-2.523-2.2 0-.523-1.156-1.047-2.628-1.047-1.997 0-2.943.838-3.784 2.828M184.553 309.086c-1.997.733-5.99 6.076-5.99 8.171 0 .629 1.155 2.619 2.627 4.295 3.153 3.772 3.258 6.6.21 12.781-1.997 4.086-2.943 4.819-7.042 5.762l-4.73 1.153-.316 5.447c-.315 5.238-.21 5.448 3.364 6.915 4.31 1.78 5.15 3.98 4.625 12.257-.315 5.342-.526 5.762-4.205 7.542-3.678 1.781-3.994 2.305-3.994 6.496 0 6.6.736 7.857 4.73 7.857 5.256 0 6.727.943 8.514 5.133 3.679 8.381 3.679 9.429.315 12.886-3.783 3.98-3.783 5.238-.105 10.371 2.103 3.038 3.364 3.981 4.94 3.667 1.157-.314 3.47-.838 5.046-1.257 2.207-.524 3.784-.105 6.096 1.571 3.89 2.934 5.361 2.41 7.568-2.304 2.418-5.029 2.313-6.077-1.681-11.315-9.25-12.362-13.77-28.914-13.034-47.666.525-13.619 2.102-20.115 7.042-29.858 1.682-3.457 3.154-7.123 3.154-8.066 0-4.191-13.244-13.2-17.134-11.838"/><path d="M254.242 308.876c-11.983 1.886-27.644 15.191-34.161 29.124-2.313 4.924-3.153 8.695-3.89 17.6-.84 10.057-.735 12.467 1.262 20.848 2.628 11.21 6.307 17.495 15.346 26.295 7.148 6.914 9.67 8.067 11.668 5.343 2.417-3.353 1.471-5.657-4.52-11.21-19.761-18.019-23.545-38.552-10.827-58.562 6.517-10.057 19.446-19.8 28.906-21.79 3.784-.838 6.096-1.886 6.832-3.248 2.207-4.19-1.787-5.866-10.616-4.4M589.02 319.038c-.841 2.829-1.367 11.943-.841 14.562l.526 2.829 39.1-.21 38.997-.314.315-8.276c.21-5.972-.105-8.591-1.05-9.219-2.104-1.362-76.627-.734-77.047.628M771.072 318.724c-1.367.838-1.787 2.514-1.787 7.752 0 11-3.889 9.953 39.311 9.953 28.17 0 38.366-.315 39.312-1.258.735-.733 1.261-4.295 1.261-8.8 0-7.438 0-7.647-2.838-8.066-5.57-1.048-73.368-.629-75.26.419M303.644 323.019c-1.156 1.257-2.102 2.619-2.102 3.038s1.997 3.143 4.52 5.972c2.418 2.933 6.201 8.59 8.514 12.781 3.574 6.704 3.994 8.276 3.994 14.98.104 12.886-5.781 26.086-15.767 35.724-4.31 4.086-6.306 5.448-12.824 8.59-6.201 2.83-10.51 3.772-23.124 4.4-10.616.63-12.088.944-12.403 2.725-.63 2.933.841 3.666 9.46 4.819 17.869 2.2 30.587-1.781 43.096-13.41 8.409-7.962 13.664-17.81 16.817-31.638 1.787-8.171 1.787-9.429.42-15.19-.84-3.458-1.786-8.381-2.206-11-.841-5.448-3.785-11.21-8.724-17.6-4.94-6.181-6.938-7.124-9.671-4.191M327.61 329.619c-.947 1.991-.842 3.038.525 5.133 2.733 4.086 5.99 18.229 5.99 25.981 0 3.981-.524 10.581-1.155 14.667-.946 6.18-.946 7.648.42 8.905 1.367 1.466 1.787 1.257 3.469-1.257 1.577-2.41 1.997-5.762 2.312-19.277.42-14.352.211-17.285-1.681-23.361-4.1-12.991-7.253-16.553-9.88-10.791"/><path d="M291.977 330.457c-3.154 1.153-14.085 16.762-13.034 18.543.316.524 3.89 1.048 7.884 1.048 10.51 0 11.036.314 7.567 5.552-1.576 2.41-9.88 13.724-18.394 25.248-10.406 13.723-15.346 21.057-14.61 21.79.63.629 5.15.838 10.826.629 8.093-.315 10.931-.943 15.661-3.143 17.764-8.695 27.75-27.553 24.28-45.676-1.786-9.01-7.042-18.334-13.138-23.467-2.522-2.095-3.153-2.095-7.042-.524M205.996 333.181c-1.261 1.676-2.207 3.981-2.207 5.133s-.841 4.086-1.787 6.6c-1.261 3.457-1.787 8.067-1.787 18.229 0 14.352 1.787 22.524 6.727 30.695 3.679 5.867 7.988 3.248 5.36-3.352-5.36-12.99-7.252-34.467-3.993-44.629 3.678-11.524 4.099-13.514 3.468-14.562-1.261-1.99-3.574-1.257-5.78 1.886M588.389 346.59c-.315 8.905.316 13.515 1.997 14.772 2.313 1.78 74.944.628 76.205-1.257.42-.629.631-4.505.526-8.486l-.315-7.333-39.102-.315-39.206-.209zM770.546 345.019c-.735.733-1.261 4.191-1.261 8.381 0 6.076.315 7.229 2.207 8.276 3.574 1.886 73.577.943 75.996-1.047 1.365-1.153 1.681-2.934 1.47-8.905l-.315-7.438-38.365-.315c-29.01-.209-38.786.105-39.732 1.048M436.609 385.667c-11.141.524-9.985.628 10.51.943 37.841.628 518.828.628 550.782.104l29.43-.524-32.584-.419c-52.03-.628-544.263-.733-558.138-.104M322.248 399.076c-4.414 5.867-11.772 12.886-18.814 17.914-4.94 3.458-6.728 7.439-3.469 7.439 2.943 0 13.665-6.496 18.71-11.315 6.621-6.39 11.456-13.514 11.036-16.343-.525-3.98-3.573-3.038-7.463 2.305M333.705 401.067c-.315.419-.63 2.619-.63 4.923 0 3.981-.63 4.924-6.516 10.791-8.2 7.857-16.818 13.619-27.434 18.124-8.83 3.771-9.566 4.505-10.617 11.105-.84 4.504.63 6.285 3.995 5.028 1.996-.733 5.885 1.362 5.885 3.143 0 .733.84 2.095 1.892 3.038 1.578 1.467 2.418 1.467 5.782.314 2.207-.733 4.94-2.304 6.096-3.352 1.787-1.781 1.892-2.514.84-5.448-1.26-3.666-.946-4.085 4.836-8.171 5.36-3.772 7.358-3.876 10.827-.943 4.1 3.352 5.675 3.352 10.195-.629 4.204-3.666 4.625-6.076 1.577-8.8-3.154-2.828-2.628-5.028 2.627-11.419 2.628-3.247 4.73-6.18 4.73-6.704 0-1.153-9.67-10.267-11.772-11-.946-.315-1.997-.315-2.313 0M398.243 413.952c-1.155 1.153-2.101 2.934-2.101 3.981 0 2.305 4.94 7.229 7.883 7.753 2.627.419 3.468 4.819 1.156 5.657-.841.314-2.838-.314-4.415-1.572-2.838-2.2-4.624-2.095-4.624.315 0 4.505 10.616 6.704 13.979 2.933 1.892-1.99 2.313-5.133 1.157-8.067-.42-.942-3.048-2.828-5.887-4.295-2.838-1.466-4.835-3.038-4.52-3.562.946-1.571 3.469-1.257 6.307.629 2.417 1.571 2.628 1.571 3.259 0 1.891-4.924-7.989-7.962-12.194-3.772M426.833 412.695c-.945.629-1.26 3.667-1.05 11.315l.315 10.371 7.148.314c5.78.21 7.042 0 7.042-1.362 0-1.152-1.051-1.571-4.1-1.571-7.357 0-8.829-5.867-1.576-6.495 4.73-.42 5.886-2.62 1.787-3.457-7.568-1.677-8.409-5.029-1.366-5.762 3.257-.315 4.73-1.048 4.73-2.096 0-1.152-1.473-1.676-5.782-1.885-3.153-.105-6.411.21-7.148.628M455.214 413.114c-.841.838-1.262 4.82-1.262 10.896 0 8.066.315 9.742 1.787 10.266 2.102.838 3.469-1.047 3.469-4.819 0-4.61 1.787-4.295 5.255.733 1.787 2.62 3.89 4.715 4.73 4.715 1.998 0 1.998-1.153-.21-5.762-1.681-3.457-1.681-3.876 0-6.705 2.313-3.98 2.208-5.971-.315-8.486-2.418-2.41-11.352-2.933-13.454-.838m10.09 5.238c-.21 1.781-1.156 2.515-3.153 2.724-2.523.314-2.943 0-2.943-2.305 0-2.304.42-2.723 3.259-2.723 2.733 0 3.153.314 2.837 2.304M496.417 414.476c-.946 1.572-2.102 4.505-2.418 6.6-.42 2.2-1.156 3.772-1.681 3.772-.63-.105-1.997-2.829-3.154-6.077-1.47-4.085-2.522-5.866-3.678-5.552-1.892.314-1.577 6.076.63 10.372.84 1.57 1.472 3.98 1.472 5.447 0 2.514 2.417 5.867 4.31 5.867 2.417 0 9.354-20.324 7.567-22.105-.84-.838-1.681-.314-3.048 1.676M533.731 413.848c-2.207 1.78-2.522 2.933-2.522 9.323 0 9.115 1.892 11.734 8.303 11.734 3.365-.105 4.73-.629 6.202-2.62 3.153-4.4.735-6.18-3.469-2.618-2.942 2.619-3.468 2.619-5.675.104-1.262-1.466-1.682-3.352-1.472-6.914.42-6.495 2.627-8.171 7.253-5.448 4.94 2.83 7.042.524 3.048-3.457-2.733-2.723-8.409-2.723-11.668-.104M584.29 412.59c-3.469 1.258-5.255 4.924-5.255 10.896 0 7.857 2.837 11.419 9.144 11.419 6.096 0 9.775-4.295 9.775-11.734 0-4.295-.525-5.657-3.048-8.276-3.048-2.933-6.622-3.771-10.616-2.304m7.988 5.239c3.154 4.19.525 13.933-3.784 13.933-2.313 0-6.306-4.714-6.306-7.543 0-1.048.735-3.352 1.576-5.029 1.892-3.666 6.307-4.295 8.514-1.361M612.67 413.952c-1.157 1.153-2.103 2.934-2.103 3.877 0 2.304 5.151 7.647 7.359 7.647.945 0 2.207.524 2.942 1.257 3.68 3.667-1.472 6.39-5.78 2.934-3.575-2.829-5.571-1.257-3.049 2.514 1.367 2.2 2.522 2.724 6.307 2.724 5.045 0 7.989-2.305 7.989-6.181 0-3.772-1.683-5.867-6.202-7.962-4.415-1.886-5.781-4.714-2.418-4.714.946 0 2.733.733 3.783 1.571 2.734 2.095 3.785 1.99 3.785-.419 0-5.133-8.514-7.333-12.614-3.248M659.023 413.324c-.84.943-1.156 4.924-.945 11.21l.315 9.847 7.148.314c5.78.21 7.042 0 7.042-1.362 0-1.047-1.051-1.571-3.574-1.571-5.255 0-6.937-.943-6.937-3.772 0-2.095.525-2.514 3.469-2.514 1.787 0 3.994-.419 4.73-.943 1.892-1.152-.421-2.933-4.52-3.457-2.313-.21-3.154-.838-3.154-2.41 0-1.675.84-2.2 4.205-2.409 8.514-.733 7.148-4.4-1.682-4.4-2.944 0-5.36.629-6.097 1.467M714.628 413.848c-1.157 2.304-1.263 13.828-.106 17.914.63 2.41 1.261 2.619 6.728 2.619 6.622 0 8.723-1.886 2.627-2.41-7.253-.628-8.304-6.076-1.157-6.704 5.467-.42 5.572-3.353.106-3.772-3.68-.314-5.781-2.41-4.415-4.505.315-.523 2.417-.942 4.624-.942 4.31 0 6.518-1.677 4.1-3.248-.84-.524-3.678-.943-6.411-.943-3.89 0-5.256.42-6.096 1.99M745.53 414.267c-2.523 2.2-2.838 3.247-2.838 8.904 0 8.172 2.627 11.734 8.724 11.734 4.309 0 7.988-3.038 7.042-5.762-.84-2.095-2.102-1.99-4.415.524-1.05 1.152-2.522 2.095-3.257 2.095-2.208 0-4.626-4.4-4.626-8.59 0-6.182 4.52-9.115 8.514-5.448 1.997 1.78 4.1 1.257 4.1-1.153 0-2.095-4.205-4.714-7.568-4.714-1.577 0-4.1 1.152-5.676 2.41M773.174 412.486c-1.472 1.571-.631 3.457 1.681 3.771 2.102.314 2.313.943 2.839 9.01.315 4.714 1.05 8.59 1.576 8.59.631 0 1.261-3.667 1.577-8.067.525-7.333.736-8.276 3.153-9.428 4.625-2.305 3.153-3.981-3.678-4.295-3.574-.21-6.728 0-7.148.419M800.923 413.324c-.84.943-1.156 4.819-.946 10.685.315 7.753.63 9.324 2.102 9.639 1.262.21 1.787-.524 2.103-3.143.21-2.62.84-3.562 2.732-3.772 1.366-.21 2.313.21 2.313 1.048.105.733 1.26 2.724 2.627 4.505 1.893 2.305 2.839 2.828 3.785 1.885.84-.838.63-2.095-.631-4.923-1.682-3.457-1.682-3.981-.106-7.334 1.893-3.98 1.052-8.276-1.996-9.428-3.154-1.153-10.722-.629-11.983.838m10.827 3.666c1.261 1.991-.737 4.296-3.574 4.296-1.683 0-3.153-.734-3.574-1.676-.946-2.41.21-3.562 3.574-3.562 1.682 0 3.258.419 3.574.942M834.664 412.905c-3.154 1.362-4.73 5.657-4.205 12.257.631 7.543 2.943 9.952 9.144 9.533 4.1-.314 5.151-.838 7.148-3.876 2.838-4.086 3.154-9.324.84-13.724-2.522-4.924-7.251-6.39-12.927-4.19m9.354 5.971c1.998 5.343-.42 12.886-4.099 12.886-3.364 0-5.466-3.248-5.466-8.381 0-5.552 1.367-7.333 5.466-7.333 2.312 0 3.258.628 4.099 2.828M863.36 413.219c-1.052 2.41-.106 21.162 1.05 21.162.525 0 1.472-2.095 1.997-4.714l.946-4.715 1.156 3.877c2.208 7.542 6.517 8.171 7.148 1.152.42-4.924 2.207-4.82 2.943.21.315 2.095 1.051 3.77 1.577 3.666.63 0 1.05-4.295 1.05-10.79V412.38H878.6c-2.208 0-2.733.629-3.574 4.505-1.156 5.657-3.784 5.552-5.465-.315-.841-3.038-1.787-4.295-3.364-4.504-1.262-.21-2.523.314-2.838 1.152M897.625 413.324c-.84.943-1.156 4.819-.946 11.21l.315 9.847 6.622.314c5.256.21 6.517 0 6.517-1.257 0-1.048-1.366-1.676-4.414-1.886-3.994-.314-4.52-.628-4.52-2.933 0-2.095.526-2.724 3.153-2.933 1.787-.21 3.784-.524 4.625-.838 2.418-.734-.63-3.353-4.415-3.772-2.522-.21-3.363-.838-3.363-2.41 0-1.675.84-2.2 4.204-2.618 2.838-.315 4.205-1.048 4.205-2.096 0-2.2-10.196-2.828-11.983-.628M928.422 413.429c-3.153 2.2-5.15 9.952-3.678 14.247 1.787 5.238 4.099 7.229 8.513 7.229 2.628 0 4.52-.734 6.096-2.41 1.263-1.362 1.998-2.828 1.578-3.143-1.262-1.257-4.31-.733-4.94.839-.736 1.99-3.154 1.99-5.256-.105-2.208-2.2-2.313-11.21-.106-12.99 1.367-1.153 2.418-1.048 5.782 0 5.255 1.78 6.201.837 2.838-2.515-3.048-3.038-7.463-3.562-10.827-1.152M960.27 414.686c-3.257 6.495-6.306 18.228-5.15 19.38.842.839 1.788.42 3.364-1.57 2.838-3.563 6.307-3.563 9.25-.21 2.312 2.619 4.414 3.457 4.414 1.571 0-2.724-4.835-17.914-6.622-20.743-1.366-2.095-3.783-1.466-5.255 1.572m3.575 10.057c-1.367 1.362-3.26 0-2.523-1.99.42-1.153.841-1.258 2.102-.315.946.838 1.052 1.676.42 2.305M986.233 413.219c-.946 2.514.105 21.162 1.157 21.162.63 0 1.156-1.886 1.366-4.19s.736-4.61 1.156-5.03c.841-.837 3.469 2.41 5.887 7.125.63 1.152 1.996 2.095 3.152 2.095 1.892 0 2.103-.838 2.418-10.79.21-8.8 0-10.686-1.261-10.686-1.682 0-3.259 3.562-2.207 5.238.315.628.315 2.095 0 3.248-.736 2.2-.841 2.2-3.26-.734-1.366-1.676-2.416-3.562-2.521-4.295 0-1.467-2.943-4.505-4.31-4.505-.526 0-1.261.629-1.577 1.362M1038.263 412.59c-4.94 1.258-6.727 12.677-2.943 18.753 1.787 2.933 2.838 3.562 5.781 3.562 4.73 0 7.778-1.676 7.778-4.19 0-2.934-1.576-3.353-3.678-1.048-2.524 2.724-4.1 2.619-6.202-.524-4.415-6.705 1.787-17.495 6.727-11.524 1.577 1.886 3.153 1.048 3.153-1.676 0-3.038-5.465-4.82-10.616-3.352M1067.063 414.371c-2.627 2.305-2.943 3.248-2.943 8.8 0 7.753 2.943 11.734 8.515 11.734 5.044 0 6.622-.943 8.83-5.343 2.627-5.029 2.627-7.333 0-12.362-2.945-5.867-9.356-7.124-14.402-2.829m10.196 3.667c2.628 5.029 0 13.724-4.204 13.724-4.625 0-7.148-9.848-3.468-13.829 2.206-2.514 6.306-2.41 7.672.105M1098.492 413.533c-3.049 2.096-3.049 6.705.105 9.638 1.366 1.258 3.153 2.305 4.1 2.305 2.311 0 4.203 2.514 3.363 4.61-.841 2.304-3.154 2.095-5.676-.42-2.628-2.618-4.205-2.723-4.205-.209 0 4.714 9.566 7.543 12.614 3.876.735-.838 1.996-1.571 2.733-1.571.945 0 1.47-1.257 1.47-3.457 0-2.62-.63-3.667-2.837-4.61-5.571-2.514-9.88-5.552-9.25-6.6.946-1.466 4.52-1.257 5.466.314.525.943 1.892 1.153 3.994.63 1.787-.42 2.313-.734 1.367-.839-1.052 0-1.893-.524-1.893-1.048 0-3.876-7.252-5.552-11.351-2.619M512.815 423.276c0 6.495.42 10.686 1.156 11.21 2.207 1.362 3.048-2.2 2.838-11.629-.316-7.962-.631-9.428-2.103-9.743-1.682-.314-1.891.734-1.891 10.162M561.376 423.067c.21 8.276.63 10.266 1.891 10.266s1.683-1.99 1.892-10.266c.316-9.638.211-10.162-1.892-10.162s-2.207.524-1.891 10.162M686.983 413.533c-.946.943-.946 17.39-.106 19.696.526 1.257 2.103 1.676 6.202 1.676 5.255 0 8.83-1.572 5.572-2.514-8.094-2.2-7.674-1.572-8.2-10.477-.525-7.647-1.576-10.266-3.468-8.38M1015.98 413.638c-.315.524-.315 5.133.105 10.267.63 7.333 1.05 9.428 2.312 9.428s1.577-1.78 1.577-9.952c0-8.381-.315-9.952-1.787-10.267-.946-.21-1.892.105-2.207.524"/></g></svg>