<svg width="2476" height="2475" xmlns="http://www.w3.org/2000/svg" xmlns:xlink="http://www.w3.org/1999/xlink" overflow="hidden"><defs><clipPath id="clip0"><rect x="962" y="0" width="2476" height="2475"/></clipPath></defs><g clip-path="url(#clip0)" transform="translate(-962 0)"><path d="M443.784 989.234C394.02 981.76 379.349 978.599 353.46 970.263 339.366 965.664 326.134 961.927 324.12 961.927 320.956 961.927 299.669 953.016 271.479 939.506 232.071 921.109 171.663 876.555 138.008 841.199 11.728 708.686-31.9952 529.031 18.9192 351.101 32.1512 304.247 65.2317 238.997 97.7365 194.73 128.803 152.763 191.511 96.1353 236.673 68.8281 296.793 32.6097 371.007 8.75157 448.961 0.702918 490.671-3.60879 495.274-3.60879 541.586 1.85293 618.39 11.0511 678.509 30.5975 738.629 65.9534 797.885 100.735 837.87 136.091 884.757 195.017 907.194 223.187 938.26 278.952 953.794 320.057 960.985 338.166 971.916 379.559 977.957 408.591 984.86 443.084 984.86 543.403 977.957 579.622 964.149 652.921 939.124 714.435 898.852 775.086 872.1 815.328 818.021 870.519 777.462 899.551 741.505 925.133 665.565 962.501 632.485 970.837 581.57 983.773 524.327 992.109 528.066 985.785 529.217 984.06 537.271 982.048 545.901 981.186 574.379 978.311 588.186 962.214 582.145 940.081 577.543 924.271 567.187 917.66 546.189 916.797 528.066 916.223 524.327 913.636 524.327 900.988 524.327 892.939 517.711 884.316 511.67 884.316 509.657 884.316 505.917 886.041 503.328 888.053 498.726 891.214 498.438 894.089 501.315 917.373 503.041 931.745 505.629 951.291 506.78 960.777 507.931 970.55 510.519 980.611 512.533 983.198 514.834 985.785 515.697 988.947 514.547 990.096 510.807 993.833 471.399 993.259 443.784 989.234ZM432.565 975.724C436.305 969.975 449.825 909.899 450.4 897.538 450.975 886.328 450.4 885.753 442.058 884.891 434.004 884.028 432.853 885.178 427.963 896.389L422.785 908.749 421.059 895.239C419.046 880.292 417.032 877.417 407.252 874.543 400.636 872.531 392.294 878.855 384.239 891.79 381.363 896.389 380.788 895.526 380.788 883.741 380.5 869.369 374.172 862.47 364.967 865.919 360.652 867.644 359.214 871.093 350.009 908.749 347.708 918.235 344.543 930.595 342.817 936.344 337.64 956.465 339.078 961.352 350.296 963.651 365.254 966.526 374.172 963.077 379.062 952.441 387.404 935.194 392.294 927.433 395.171 927.433 396.608 927.433 397.759 936.631 397.759 947.555 397.759 965.664 398.622 968.825 405.238 975.437 410.991 981.186 414.155 982.336 421.635 980.898 426.525 980.036 431.414 977.737 432.565 975.724ZM691.741 937.781C716.767 924.846 721.945 919.672 719.069 911.911 716.48 905.3 707.562 906.162 689.44 914.785 660.962 928.296 655.497 914.498 683.399 900.126 697.495 892.652 699.796 890.352 699.221 884.316 698.07 874.543 691.166 873.968 672.756 881.729 655.209 888.915 648.018 887.765 648.018 877.705 648.018 872.243 651.758 869.369 666.715 861.895 676.783 856.721 685.988 851.26 686.851 849.822 690.015 844.648 685.125 835.45 677.934 833.725 674.194 832.863 671.606 831.138 672.468 829.988 673.044 828.839 683.112 823.09 694.618 817.053 706.124 811.017 717.63 804.118 720.219 802.106 722.52 799.806 727.122 798.082 730.287 798.082 736.903 798.082 780.339 840.624 780.339 847.235 780.339 849.822 777.75 854.134 774.585 857.009 764.518 865.919 768.257 878.567 780.914 878.567 786.092 878.567 832.116 831.713 832.116 826.539 832.116 818.778 824.062 813.604 818.309 817.628 801.913 829.414 801.625 829.126 780.051 807.855 751.573 779.973 751.573 779.685 765.381 765.313 805.652 723.346 842.76 647.172 858.58 572.436 869.799 519.258 865.772 418.651 850.526 385.02 848.225 380.134 846.499 374.959 846.499 373.522 846.499 366.048 820.035 310.284 808.816 294.761 805.94 290.45 803.351 286.138 803.351 285.276 803.351 281.539 776.599 249.057 758.477 230.661 700.659 172.597 636.512 139.54 548.778 122.293 526.916 117.982 469.385 117.982 439.469 122.293 405.238 127.467 360.94 138.678 338.79 148.163 318.654 157.075 270.329 181.22 261.699 187.257 242.139 200.192 239.549 201.054 237.248 194.73 233.797 185.532 181.731 133.791 176.841 134.653 174.54 135.228 171.088 137.816 169.65 140.402 165.047 147.588 169.937 154.775 200.716 186.969L227.468 214.851 221.427 220.6C213.085 228.361 211.647 227.499 209.346 215.426 207.045 201.054 203.017 196.167 190.361 191.568 177.129 186.969 167.636 189.269 154.692 200.766 143.761 209.965 141.172 209.965 126.789 199.616 123.05 196.742 120.173 196.742 116.721 199.042 105.79 205.94 108.955 212.839 132.255 231.811 144.624 241.871 157.568 253.082 161.02 256.819 164.472 260.556 170.801 263.43 174.827 263.43 184.033 263.43 184.033 266.879 173.677 283.264 169.362 290.737 164.472 299.936 163.321 303.96 162.171 307.697 158.144 316.607 154.404 323.794 138.583 353.976 123.338 410.603 118.447 456.882 108.092 555.476 139.159 656.945 203.881 736.281 210.784 744.904 216.537 753.528 216.537 755.54 216.537 757.552 202.155 773.361 184.895 790.321 154.117 820.503 149.514 827.689 156.705 834.875 164.184 842.349 172.239 838.037 194.963 815.328 207.62 802.681 219.126 792.333 220.852 792.333 222.578 792.333 228.619 796.932 234.084 802.681 247.316 816.479 252.494 819.065 259.973 815.328 264.576 812.742 265.438 810.155 264.288 804.981 263.137 801.244 263.425 798.082 264.863 798.082 267.164 798.082 310.312 824.527 316.353 829.701 318.367 831.138 320.956 832.575 322.106 832.575 324.12 832.575 341.667 839.474 377.048 854.421 382.226 856.721 389.417 858.446 392.869 858.446 396.321 858.446 404.951 860.745 412.142 863.333 431.99 870.519 543.024 870.519 573.228 863.333 599.404 856.721 621.554 850.397 629.32 846.948 641.402 841.199 662.976 835.163 664.702 836.6 665.565 837.462 664.126 838.324 661.538 838.324 659.236 838.324 655.209 840.049 653.196 842.061 651.182 844.074 643.128 848.96 635.074 852.984 627.307 857.296 619.54 862.47 618.102 865.057 616.088 868.219 619.252 878.279 630.759 903.287 648.306 940.943 654.634 950.429 662.4 950.429 665.565 950.429 678.509 944.68 691.741 937.781ZM277.52 919.672C280.109 916.797 285.574 908.174 289.602 900.126 293.916 892.365 302.546 876.842 308.586 865.919 321.243 844.074 321.819 832.575 310.312 832.575 301.108 832.575 299.382 834.3 277.52 871.381 256.233 907.312 253.357 916.51 261.987 921.396 269.178 925.708 272.63 925.133 277.52 919.672ZM112.119 434.174C115.571 424.975 108.38 420.088 82.4909 414.34 68.3957 411.178 55.1637 407.441 52.8625 406.004 49.9861 403.992 49.4104 399.393 50.8489 386.745 52.2873 371.797 51.7116 369.498 46.5341 366.911 42.5068 364.611 39.6305 364.611 37.0417 366.624 33.0145 370.073 25.5352 408.303 27.2612 418.651 28.124 426.125 32.7269 427.85 68.3957 434.461 97.7365 439.923 109.818 439.635 112.119 434.174ZM958.109 421.813C958.684 418.076 957.821 409.741 956.095 403.129 954.369 396.518 952.356 387.032 951.205 381.858 950.342 376.684 947.466 371.51 944.876 370.647 935.096 366.624 865.196 382.146 862.607 388.757 862.032 390.482 862.895 394.506 865.196 397.38 869.799 403.704 884.181 403.704 909.783 397.093 930.494 391.631 933.946 393.356 937.11 409.453 939.986 425.263 943.726 430.724 950.917 429.574 954.944 428.999 957.533 426.412 958.109 421.813ZM130.241 364.899C130.241 357.712 124.488 349.664 119.598 349.664 117.009 349.664 106.366 346.789 96.0105 343.628 55.1637 330.405 54.0128 330.118 48.8353 332.992 45.3832 334.717 43.9453 338.166 44.5205 343.053 45.3832 349.664 48.8353 351.389 81.3401 362.312 108.955 371.51 118.735 373.522 123.913 371.51 127.365 370.073 130.241 366.911 130.241 364.899ZM940.562 347.939C943.151 341.041 937.973 334.429 926.754 330.693 920.426 328.393 915.536 324.081 911.796 316.895 906.331 306.834 906.331 306.547 912.659 296.199 918.125 287.863 918.7 284.701 915.824 278.952 914.098 275.215 910.646 272.053 907.769 272.053 905.18 272.053 889.36 285.563 872.963 301.948 845.348 329.543 843.047 332.705 845.061 340.178 845.924 344.49 848.513 349.089 850.239 350.239 852.252 351.389 872.963 352.538 896.263 352.538 933.083 352.538 938.836 351.964 940.562 347.939ZM140.309 335.292C145.487 325.231 144.049 321.207 129.091 306.834 123.338 301.373 118.735 295.624 118.735 294.474 118.735 291.312 132.255 291.6 143.186 294.761 154.979 297.924 161.883 295.049 166.198 284.701 169.937 275.79 166.773 263.43 160.733 263.43 159.007 263.43 144.624 256.819 129.091 248.77 113.557 241.009 98.0241 234.685 94.5721 235.26 85.9425 236.41 84.5045 250.495 92.5585 254.806 101.476 259.406 100.038 264.579 90.2573 262.567 81.0525 260.556 69.8341 266.879 69.8341 274.353 69.8341 276.94 73.2857 282.689 77.6005 287.001L85.6549 295.337 73.2857 294.761C59.7661 293.899 54.0128 297.636 56.6021 305.684 58.6157 312.296 117.297 343.628 127.94 343.628 133.981 343.915 136.857 341.615 140.309 335.292ZM848.8 291.025C856.279 287.288 861.17 280.389 864.909 268.604 866.06 264.867 870.374 263.43 884.469 262.855 898.852 262.28 902.592 260.843 903.454 257.106 904.893 249.057 893.674 240.434 881.305 240.434 852.54 240.434 843.335 231.811 860.881 221.175 865.772 218.588 870.374 213.702 871.237 210.827 873.251 204.791 867.786 197.317 861.17 197.317 855.416 197.317 791.845 239.859 791.845 243.884 791.845 249.345 813.131 280.964 821.473 288.15 830.966 295.911 837.582 296.774 848.8 291.025ZM796.159 222.612C800.187 220.888 803.351 218.013 803.351 216.576 803.351 210.827 793.858 203.066 786.955 203.066 776.599 203.066 769.695 198.467 766.531 188.981 762.792 178.633 769.983 165.41 783.503 158.511 794.721 152.475 804.501 154.775 810.83 164.548 817.158 173.746 812.843 179.495 803.351 174.321 797.885 171.447 795.872 171.734 791.269 176.621 785.517 182.082 785.517 182.37 797.023 194.155 803.063 200.479 810.83 205.94 813.994 205.94 817.158 205.94 824.637 200.766 830.103 194.73 839.307 184.669 840.171 182.37 837.87 173.171 834.993 160.236 822.911 144.139 811.981 138.39 773.723 118.557 727.411 164.835 748.985 201.341 756.463 213.989 772.572 225.487 783.791 225.774 786.379 226.062 792.133 224.625 796.159 222.612ZM259.686 183.52C259.686 182.082 268.028 174.896 278.383 167.422 288.738 159.949 297.08 152.763 297.08 151.9 297.08 150.751 301.97 148.451 308.011 146.439 328.722 140.115 357.488 125.743 359.501 120.856 362.665 112.807 356.625 107.346 329.873 93.5484 315.778 86.075 304.272 78.6011 304.272 76.3016 304.272 74.002 308.874 70.2651 314.34 67.6781 336.201 57.3299 340.228 42.9579 320.38 45.8322 303.121 48.4191 265.438 67.3907 265.438 73.4272 265.438 84.6376 269.753 88.6619 294.492 101.31 308.586 108.208 320.093 115.682 320.093 117.982 320.093 120.281 316.353 123.443 311.751 124.88 307.148 126.605 301.97 130.629 299.957 133.791 298.231 137.528 293.916 139.828 289.889 139.828 286.15 139.828 277.232 143.852 270.041 148.738 262.562 154.2 255.371 157.075 252.782 156.212 245.59 153.338 247.316 149.026 259.686 140.402 273.205 131.204 276.945 123.156 269.753 117.982 264 113.67 258.822 115.107 246.454 124.593 235.81 132.641 232.071 132.929 228.331 125.743 225.167 119.993 228.906 115.394 247.604 102.747 258.535 95.2732 259.398 84.3502 249.33 82.9128 240.988 81.7633 196.401 112.52 196.401 119.419 196.401 122.293 200.716 130.342 205.894 137.24 211.359 144.139 221.14 157.937 227.756 167.997 238.687 184.094 240.988 185.819 249.905 185.819 255.371 185.819 259.686 184.669 259.686 183.52ZM728.561 172.884C734.027 166.56 729.712 159.374 714.178 149.026 706.124 144.139 699.796 138.39 699.796 136.953 699.796 130.342 708.713 131.204 722.232 138.678 737.478 147.301 745.82 146.726 745.82 136.953 745.82 132.929 741.218 128.329 731.15 122.293 716.48 113.095 714.178 107.346 723.383 101.597 727.122 99.0101 731.437 100.447 742.944 107.634 759.915 118.269 764.518 118.844 768.833 111.37 772.572 104.184 769.408 101.022 741.218 83.4881 724.821 73.4272 718.205 70.5529 714.754 72.5646 712.453 74.2894 703.247 86.3624 694.33 99.5849 685.413 113.095 676.208 124.305 673.619 124.88 671.03 125.455 665.277 122.581 660.962 118.844L652.908 112.233 663.551 86.075C675.633 55.893 676.208 49.2818 667.866 46.9822 657.798 44.3948 655.209 47.2696 645.429 71.7025 632.772 102.747 629.608 106.196 615.513 102.172 603.144 98.7227 602.569 95.8479 609.472 66.2412 611.774 55.6056 613.5 42.3831 612.924 36.634 612.061 27.7232 610.911 26.2858 604.295 25.4237 597.966 24.561 593.076 27.7232 580.995 38.9336 572.365 46.9822 564.598 53.5935 563.16 53.5935 562.01 53.5935 562.01 46.6943 562.872 38.6462 564.886 21.1119 562.297 15.3628 553.092 16.8002 547.627 17.375 545.613 21.1119 541.298 36.3466 538.422 46.6943 535.833 59.0547 535.833 63.6538 535.545 68.5408 533.819 77.4516 531.518 83.7754 527.779 94.1232 527.779 95.5606 532.093 99.0101 541.874 106.196 551.941 103.034 563.736 89.8115 580.132 71.1277 583.296 71.7025 583.296 92.1115 583.296 109.933 583.584 110.22 600.555 116.257 629.896 126.317 672.468 146.152 689.728 157.362 722.808 179.208 723.096 179.208 728.561 172.884ZM406.101 108.496C409.84 104.759 412.43 95.2732 414.731 77.739 416.745 63.6538 419.333 46.1196 420.484 38.6462 423.648 20.5367 419.046 13.3507 408.115 18.5245 403.224 20.5367 399.773 24.8484 398.91 30.3101 397.472 36.9214 394.595 39.7957 385.678 43.2453 373.596 48.1317 365.542 46.1196 362.09 37.7835 359.789 31.7475 343.393 33.1844 339.366 39.5083 337.352 42.9579 337.927 45.5448 341.954 49.8565 344.831 53.0182 355.186 67.1034 364.679 80.9007 387.979 114.532 395.171 119.419 406.101 108.496ZM518.574 99.5849C522.889 97.2853 523.751 92.6862 524.039 70.2651 524.327 55.6056 525.19 38.3588 526.053 31.7475 528.066 18.5245 523.176 12.2011 512.245 13.9254 506.78 14.5007 505.342 17.0876 503.616 27.7232 500.164 51.2939 501.027 99.0101 505.054 100.447 510.519 102.747 512.821 102.747 518.574 99.5849Z" fill="#01703B" fill-rule="evenodd" transform="matrix(1 0 0 -1 1671 1277)"/><path d="M-0.0661634 48.9724C-3.78607 45.5069-2.06915 42.9081 6.51495 39.7314 13.9543 37.1325 15.0991 35.3998 15.0991 26.448 15.0991 18.3624 17.102 14.0308 24.5414 7.38914 38.2758-5.6055 44.8574-6.18291 56.5887 4.5016 63.742 10.8546 69.751 13.4534 76.6182 13.4534 87.2053 13.4534 98.0784 22.4052 98.0784 31.0683 98.0784 37.9987 97.2202 38.2878 66.6037 45.2182 40.5653 50.7046 3.65327 53.0147-0.0661634 48.9724Z" fill="#01703B" fill-rule="evenodd" transform="matrix(1 0 0 -1 2157 496)"/><path d="M137.85 597.222C115.133 585.147 96.4418 570.198 70.2739 542.887 31.7408 502.925 11.0363 469.001 2.98451 434.215L-1.61639 414.953 7.2979 399.141C17.9376 380.454 22.8265 376.717 45.831 370.68 62.5096 366.368 70.2739 360.905 70.2739 352.568 70.2739 341.931 82.9261 320.369 93.5658 313.469 103.343 306.857 104.781 304.557 104.781 294.783 104.781 287.02 102.768 281.558 97.5917 276.096 82.6386 259.996 93.2783 218.885 118.584 196.173 124.91 190.424 131.811 182.949 133.537 179.499 135.262 176.336 137.275 151.9 138.138 124.013 139.288 88.0769 141.013 71.6902 144.177 63.6404 147.915 55.0157 148.203 49.8405 145.902 37.1914 142.451 18.2169 145.327 12.7544 163.156 3.55481 174.083-1.90725 189.611-4.20762 192.774-0.757544 193.637 0.104736 190.186 6.42956 185.298 13.6171 175.808 27.9913 174.083 41.5037 181.559 47.5406 184.147 49.8405 187.886 55.8779 190.186 61.0531 192.774 67.09 197.663 71.9777 203.701 74.565 215.779 79.7396 218.367 83.1897 222.68 99.0015 226.994 114.814 235.045 126.601 245.685 132.063 254.6 136.663 268.69 158.512 268.69 167.999 268.69 171.737 273.291 178.636 279.042 183.811 288.532 192.436 289.394 194.448 287.669 203.648 285.944 212.273 283.068 215.435 270.703 222.622 262.651 227.222 252.299 231.822 247.698 232.972 236.771 235.272 225.268 251.659 223.255 267.183 221.818 282.133 214.916 288.745 201.688 288.745 195.937 288.745 190.474 291.62 185.01 297.657 174.658 308.869 143.602 320.369 124.335 320.369 111.97 320.369 110.244 321.232 103.343 331.006 98.4547 338.481 96.1543 345.668 96.1543 354.581 96.1543 363.78 94.4288 368.955 89.8279 373.555 86.0895 377.292 81.4886 382.179 79.4757 384.767 77.4627 387.354 71.4239 389.367 66.248 389.367 54.7453 389.367 48.9944 395.404 51.2948 404.891 53.3078 412.653 57.6212 414.953 77.4627 418.691 105.069 423.578 105.356 423.578 112.832 410.353 116.571 403.454 121.459 397.992 123.472 397.992 128.936 397.992 131.524 408.053 129.223 420.128 127.498 429.328 128.073 430.191 136.125 433.353 143.026 435.94 145.902 439.678 149.353 449.74 151.653 456.927 158.267 467.564 163.731 473.602 171.782 482.514 175.52 484.239 185.01 484.239 199.963 484.239 205.427 486.539 205.427 493.151 205.427 496.601 203.414 498.613 199.676 498.613 192.199 498.613 186.448 508.963 191.336 514.713 195.65 519.887 206.577 519.887 211.178 514.425 213.191 512.125 215.779 505.801 216.641 500.625 217.792 495.451 220.38 491.426 222.68 491.426 228.144 491.426 230.157 513.275 225.268 521.9 223.543 525.637 221.243 534.837 220.092 542.887L218.367 557.548 205.427 558.411C198.525 558.986 191.049 560.711 189.036 562.436 186.16 564.736 183.86 562.149 179.546 552.086 172.932 536.562 168.332 533.975 156.254 538.862 149.353 541.737 147.915 544.036 148.49 550.074 149.065 555.824 152.803 559.561 164.593 565.598 191.336 579.973 194.212 595.785 171.494 602.109 156.254 606.134 153.953 605.847 137.85 597.222Z" fill="#01703B" fill-rule="evenodd" transform="matrix(1 0 0 -1 1852 1090)"/><path d="M135.598 462.013C117.802 459.999 116.654 458.847 124.691 450.212 136.747 436.973 144.783 423.733 143.348 419.415 142.487 417.401 136.172 414.522 129.57 413.083 121.534 411.356 115.506 408.19 111.487 402.721 105.459 394.375 105.459 394.375 111.2 390.345 114.932 387.467 120.098 386.603 125.839 387.755 137.034 389.769 140.765 383.149 133.876 372.5 129.858 366.168 127.848 365.592 116.08 367.031 104.311 368.182 102.302 367.607 94.5519 359.26 89.9593 354.367 84.5054 346.02 82.2091 341.127 79.6259 334.795 75.6073 331.053 70.1538 329.902 56.9502 326.736 55.2279 323.57 55.2279 301.695L55.2279 281.26 40.8758 268.884C16.7648 247.872-2.17976 216.211-2.17976 196.352-2.17976 185.414-0.170465 181.097 11.0239 166.993 21.6443 153.466 25.9499 150.3 34.561 148.861 40.3019 147.997 51.4963 145.983 58.9595 144.543 66.7092 142.816 76.7557 141.665 81.0612 141.665 92.2556 141.665 95.9872 134.182 91.9686 120.942 89.0984 111.444 89.6724 109.141 99.4314 93.0227 109.765 76.3293 109.765 75.4655 105.459 67.1186 102.302 60.7864 101.154 49.8491 101.154 27.9745 101.154-8.29143 103.163-9.44247 127.274 10.9928 202.478 75.4655 245.533 168.72 245.82 268.02 245.82 286.441 244.099 311.193 242.089 322.995 236.922 352.352 225.154 390.921 219.987 396.39 214.534 401.858 203.626 401.858 188.987 396.677 173.487 391.209 168.033 393.511 161.145 409.054L155.404 422.293 166.885 432.367C173.487 438.124 178.654 444.744 178.654 447.622 178.654 457.984 158.274 464.892 135.598 462.013Z" fill="#01703B" fill-rule="evenodd" transform="matrix(1 0 0 -1 2252 1052)"/><path d="M-0.48651 14.2951C-3.38245 9.53674 0.960978 0.579254 7.33137-1.09984 16.0182-3.89925 20.0722 1.41927 16.0182 10.0964 12.5438 17.094 2.98794 19.6131-0.48651 14.2951Z" fill="#01703B" fill-rule="evenodd" transform="matrix(1 0 0 -1 1838 1062)"/><path d="M-2.47008 2.22422C-0.664328-3.17054 5.0538-3.76985 6.85905 1.32526 8.36393 4.32229 6.85905 5.82106 2.6463 5.82106-0.965203 5.82106-3.07183 4.32229-2.47008 2.22422Z" fill="#01703B" fill-rule="evenodd" transform="matrix(1 0 0 -1 2554 953)"/><path d="M2.22755 14.2499C-7.04918 4.20052-1.25098-6.99768 9.76526 0.467626 14.6935 3.6259 20.2013 15.1116 18.172 18.2699 15.2731 23.1516 9.47494 21.4287 2.22755 14.2499Z" fill="#01703B" fill-rule="evenodd" transform="matrix(1 0 0 -1 2494 1029)"/><path d="M-1.25635 3.75467C-3.23048 0.275426 2.12801-3.2043 5.79385-0.884644 8.89625 1.14512 6.92212 6.36471 2.97386 6.36471 1.56364 6.36471-0.128075 5.20464-1.25635 3.75467Z" fill="#01703B" fill-rule="evenodd" transform="matrix(1 0 0 -1 2057 1209)"/><path d="M2.30552 15.5063C-0.862415 13.2613-2.5906 9.0519-1.72675 4.84246-0.574464-4.13755 14.4023-6.10198 21.8905 1.75529 26.4986 7.08747 26.4986 7.6486 19.0105 13.2613 10.0821 20.2769 8.92982 20.2769 2.30552 15.5063Z" fill="#01703B" fill-rule="evenodd" transform="matrix(1 0 0 -1 2203 335)"/><path d="M46.6943 155.07C14.4943 143.243-1.60553 116.993-1.60553 76.8981-1.60553 43.4367 11.9069 19.2063 37.4945 6.51406 64.2323-7.04334 109.082-1.27402 129.782 18.3411 135.532 23.8215 136.395 27.2832 136.395 48.3408 136.395 65.071 135.244 72.8596 132.37 75.1672 129.782 77.4748 119.145 78.34 102.757 77.7632 79.1819 76.8981 77.4572 76.6097 76.5945 70.5519 75.4447 63.3402 80.0446 61.6098 103.332 60.4558L117.707 59.5906 118.57 46.3216C119.432 34.4945 118.282 31.8985 111.67 26.7064 94.7073 13.1486 59.3444 11.4182 40.6572 23.2448 26.282 32.1869 15.0696 54.6864 15.0696 74.8788 15.0696 97.3783 19.6696 112.378 30.0197 125.07 52.1571 152.185 102.182 148.436 113.682 119.301 117.132 110.647 128.92 111.513 130.07 120.744 131.22 127.955 116.557 145.84 104.195 152.185 92.1194 158.531 59.6319 160.262 46.6943 155.07Z" fill-rule="evenodd" transform="matrix(1 0 0 -1 1921 1694)"/><path d="M26.7297 106.612C22.6899 104.888 16.3417 104.313 12.3019 105.175-1.83702 107.761-2.41448 106.037-1.54853 50.5893L-0.683064-0.836361 6.53111-0.836361 13.7448-0.836361 15.1877 39.6722C16.3417 74.4347 17.4961 81.3297 22.1129 86.5008 25.2868 89.9485 30.4811 92.534 33.9434 92.534 42.3116 92.534 52.1226 100.004 48.3713 103.451 43.466 108.335 34.2319 109.484 26.7297 106.612Z" fill-rule="evenodd" transform="matrix(1 0 0 -1 2094 1688)"/><path d="M30.3051 153.538C25.7234 152.1 16.56 151.237 10.26 151.524L-1.19426 152.387-2.05362 77.877C-2.33992 35.2994-1.48055 1.92817-0.0490659 0.489579 1.3829-0.949008 5.10572-1.23663 8.54176-0.0856643 13.6965 1.35244 14.5554 4.22962 15.128 25.2303 15.9874 51.122 16.2737 51.122 33.7416 44.2176 54.9324 35.5871 85.5729 56.5882 91.3003 83.3428 98.1728 116.139 82.1364 147.784 55.7913 154.113 42.6188 156.99 41.4736 156.99 30.3051 153.538ZM62.9506 135.702C69.5369 130.236 77.5547 110.098 77.5547 98.3025 77.5547 85.069 71.8278 70.9727 63.2369 63.205 58.6552 58.8897 52.9279 57.4511 42.3325 57.7392 30.5914 57.7392 26.8691 59.1773 21.428 65.5064 8.54176 80.7537 9.97372 122.756 24.0052 135.989 34.3142 145.483 51.2096 145.483 62.9506 135.702Z" fill-rule="evenodd" transform="matrix(1 0 0 -1 2284 1735)"/><path d="M30.9868 111.335C3.61785 102.706-11.075 58.9895 3.32983 29.3653 14.5653 6.06865 24.6488-0.833937 47.4083-0.833937 65.2699-0.833937 76.2174 3.19269 85.7243 14.1219 107.619 38.5688 103.01 89.4762 77.3696 105.295 65.846 112.485 43.375 115.361 30.9868 111.335ZM71.896 90.0513C92.9269 66.1796 84.5722 20.737 58.3558 13.5468 33.8676 6.93177 14.8534 25.9138 14.8534 56.4006 14.8534 84.587 26.9535 99.8304 49.4245 99.8304 61.5246 99.8304 64.4054 98.6797 71.896 90.0513Z" fill-rule="evenodd" transform="matrix(1 0 0 -1 2398 1693)"/><path d="M1.98654 109.744C-3.80917 107.732-2.94003 41.6362 2.85568 24.681 10.6799 1.97867 38.2084-7.79229 59.3623 4.56494 66.3168 8.58825 68.635 8.87556 74.7205 5.71419 78.4877 3.70301 83.1241 2.8406 84.8628 3.70301 86.8913 5.13956 88.0502 22.6693 88.0502 55.4304 88.0502 107.445 86.6016 114.342 75.2999 110.031 71.5331 108.594 70.6635 103.135 70.6635 74.3968 70.6635 55.7177 69.5047 37.0382 67.7659 33.0149 63.4192 21.2328 54.1465 14.0481 43.4247 14.0481 19.6629 14.0481 15.6059 22.0947 15.6059 69.5115 15.6059 108.307 13.5775 114.629 1.98654 109.744Z" fill-rule="evenodd" transform="matrix(1 0 0 -1 2165 1693)"/><path d="M-0.234208 161.024C-1.67053 158.722 13.27 111.536 23.6139 86.2169 27.062 77.873 32.521 64.3503 35.6818 56.294 39.1295 47.9501 46.0257 31.5498 51.4847 20.3288L61.254-0.674867 202.906-0.674867C309.217-0.674867 345.421 0.18858 348.007 2.77796 352.891 7.66908 352.891 154.982 348.007 159.873 345.421 162.463 302.609 163.326 173.024 163.326 78.4937 163.326 0.62806 162.175-0.234208 161.024Z" fill="#29A101" fill-rule="evenodd" transform="matrix(1 0 0 -1 963 1805)"/><path d="M21.6204 151.358C12.7032 150.498 8.67601 148.49 8.67601 145.622 8.67601 143.326 6.37481 141.606 3.78603 141.606-2.82995 142.179-3.98031 131.852-3.40513 65.3026-2.82995 14.5299-2.25478 9.36622 2.34761 8.50586 4.93687 7.93228 7.23806 5.63749 7.23806 3.34269 7.23806-0.0997321 25.9352-0.673311 131.791-0.673311L256.345-0.673311 265.55 12.2351C270.728 19.4062 274.755 26.5774 274.755 28.2986 274.755 30.0198 276.481 34.8962 278.783 38.9122 286.261 53.255 305.822 104.601 308.41 116.936 309.274 120.952 311 125.542 312.15 126.976 313.588 128.697 315.026 134.721 315.314 140.745L316.465 151.932 175.515 152.219C97.8488 152.506 28.812 152.219 21.6204 151.358Z" fill="#7ECA23" fill-rule="evenodd" transform="matrix(1 0 0 -1 3118 1799)"/><path d="M0.906374 351.85C-0.259934 350.988-1.1343 271.33-1.1343 174.994L-1.1343-0.137296 24.5191 0.725228 49.8816 1.58823 50.756 171.255C51.0479 264.716 50.756 343.798 49.8816 347.537 48.4239 353.288 46.6751 353.863 25.394 353.863 12.8585 353.863 1.78074 353 0.906374 351.85Z" fill="#43842F" fill-rule="evenodd" transform="matrix(1 0 0 -1 1639 2193)"/><path d="M0.787271 343.967C-0.361629 342.244-1.22295 115.669-0.648734 1.37628-0.648734 0.227868 48.7444-0.34634 109.337-0.059236L219.036 0.802075 219.897 15.1606C220.759 26.0729 219.61 30.0933 215.877 32.9648 211.857 35.8363 191.18 36.6981 129.726 36.6981 66.5488 36.6981 48.1702 37.5594 45.8729 40.431 43.5751 43.0158 42.4266 89.8238 42.4266 191.194 42.1395 317.835 41.5653 338.798 37.832 342.531 32.9502 347.413 3.6588 348.561 0.787271 343.967Z" fill="#43842F" fill-rule="evenodd" transform="matrix(1 0 0 -1 1363 2192)"/><path d="M3.42554 344.732C-1.17774 342.143-1.75297 330.35-1.46535 174.457-1.46535 82.4166-0.602029 5.33259 0.836045 3.31917 2.2746 0.73063 8.60356-0.132059 21.5491 0.443067L39.9608 1.30576 41.3988 141.38C42.2622 218.176 43.7002 282.029 44.5636 282.892 47.1526 285.481 54.632 273.4 58.0843 261.32 59.8105 255.855 75.345 210.123 92.6058 159.5 110.154 108.878 127.127 59.1188 130.58 48.7641 134.319 38.4095 138.634 25.4663 140.648 20.0016 142.949 14.5365 145.251 7.63357 146.114 5.04503 147.265 0.73063 151.005-0.132059 166.251-0.132059 184.375-0.132059 185.238 0.155504 189.841 9.07186 192.43 13.9614 195.595 21.4399 196.745 25.4663 198.184 29.4931 207.102 55.6671 216.883 83.2793 226.664 110.892 242.774 156.912 252.843 185.387 279.885 262.471 284.775 274.551 289.953 275.414 293.981 276.277 294.556 263.046 295.132 138.791L295.994 1.30576 314.694 1.30576 333.393 1.30576 334.256 171.006C334.831 328.049 334.543 340.993 329.941 344.444 324.187 348.759 285.063 349.046 277.296 345.019 274.131 343.293 269.816 335.815 267.514 328.337 265.213 320.859 250.829 278.578 235.582 234.283 220.335 189.989 206.814 150.009 205.376 145.119 203.938 140.517 197.033 119.808 189.841 99.0986 176.896 61.7073 170.567 51.6407 165.101 60.269 163.375 62.5705 151.867 96.2225 139.21 135.052 126.264 173.882 114.757 208.109 113.606 211.273 108.716 222.778 73.0436 334.953 73.0436 338.692 73.0436 340.705 69.5913 343.582 65.5637 345.019 56.0705 348.759 9.7545 348.471 3.42554 344.732Z" fill="#43842F" fill-rule="evenodd" transform="matrix(1 0 0 -1 1769 2193)"/><path d="M1.70597 344.422C-1.74279 342.124-2.31798 316.275-2.03062 172.954-1.45543 79.8966-0.306004 2.92265 1.13126 1.48641 2.28068 0.337798 11.7658-0.524136 21.8257 0.0506458L40.2204 0.912102 41.0824 66.6848C41.3703 105.171 43.0944 133.893 44.5317 135.904 46.5437 138.489 65.5135 139.925 107.189 140.786 158.638 141.935 169.272 143.084 185.368 148.541 208.361 156.296 230.493 171.231 239.69 184.73 260.672 215.75 262.684 262.566 244.576 297.606 233.08 320.009 199.739 338.678 162.087 344.135 138.518 347.582 7.16718 347.869 1.70597 344.422ZM164.961 303.924C198.014 294.159 211.811 276.926 211.811 245.045 211.811 216.037 199.739 197.942 172.146 185.592 161.224 180.997 153.464 180.422 101.441 180.997L43.0944 181.858 42.2324 241.886C41.6576 283.532 42.5197 303.063 44.819 305.648 47.4057 308.808 58.9029 309.669 97.1294 309.669 137.368 309.669 149.153 308.808 164.961 303.924Z" fill="#43842F" fill-rule="evenodd" transform="matrix(1 0 0 -1 2188 2192)"/><path d="M0.0820705 341.456C-2.21256 338.875-2.7861 290.978-2.49933 168.797L-1.63855-0.133592 117.397-0.133592 236.433-0.133592 236.433 13.9203C236.433 21.9506 234.999 29.6947 232.704 31.9891 229.549 34.857 210.331 35.7178 137.475 35.7178 49.9915 35.7178 45.689 36.0045 42.8203 41.1669 38.5178 49.4844 39.0918 148.434 43.3943 152.736 45.9757 155.317 69.7829 156.178 133.173 156.178 196.563 156.178 220.37 157.038 222.952 159.619 224.96 161.627 226.394 169.084 226.394 176.254 226.394 183.424 224.96 190.882 222.952 192.889 220.37 195.471 196.563 196.331 133.173 196.331 69.7829 196.331 45.9757 197.191 43.3943 199.773 41.0997 202.067 39.9521 217.841 39.9521 251.112 39.9521 290.978 40.8124 299.869 44.5414 303.598 48.2704 307.613 61.1779 308.186 140.344 308.186 204.307 308.186 232.418 309.047 233.851 311.342 237.58 317.364 237.007 337.441 232.704 341.456 226.967 347.192 4.95859 347.479 0.0820705 341.456Z" fill="#43842F" fill-rule="evenodd" transform="matrix(1 0 0 -1 2517 2191)"/><path d="M0.00191361 343.283C-2.58624 341.847-3.4488 336.104-2.87376 325.48L-2.0112 309.975 52.9175 309.113C94.3295 308.539 108.996 307.39 111.297 304.519 113.31 301.935 114.748 254.27 115.036 150.326L115.898-0.133267 136.029-0.133267 156.16-0.133267 157.598 151.188C158.461 234.17 160.186 303.37 161.337 304.806 162.775 305.955 189.232 307.677 220.291 308.539L276.945 309.975 277.808 323.757C278.383 331.51 277.233 339.55 275.22 341.847 272.344 345.293 250.2 345.867 137.755 345.867 64.1332 345.867 2.01503 344.719 0.00191361 343.283Z" fill="#43842F" fill-rule="evenodd" transform="matrix(1 0 0 -1 2810 2191)"/></g></svg>