<svg width="2475" height="2475" xmlns="http://www.w3.org/2000/svg" xmlns:xlink="http://www.w3.org/1999/xlink" overflow="hidden"><defs><clipPath id="clip0"><rect x="963" y="0" width="2475" height="2475"/></clipPath><clipPath id="clip1"><rect x="1479" y="240" width="1442" height="1995"/></clipPath><clipPath id="clip2"><rect x="1479" y="240" width="1442" height="1995"/></clipPath><clipPath id="clip3"><rect x="1479" y="240" width="1442" height="1995"/></clipPath></defs><g clip-path="url(#clip0)" transform="translate(-963 0)"><rect x="963" y="0" width="2475" height="2475" fill="#0D0D0D"/><g clip-path="url(#clip1)"><g clip-path="url(#clip2)"><g clip-path="url(#clip3)"><path d="M715.879 1939.69C710.917 1935.05 694.589 1918.72 679.541 1903.36 664.654 1887.99 641.922 1864.78 629.116 1851.81 616.469 1838.68 605.424 1827 604.784 1825.72 603.983 1824.6 603.663 1787.94 603.823 1744.56L604.303 1665.64 608.465 1665.16C616.149 1664.2 616.469 1668.52 616.309 1743.27L616.149 1811.31 620.952 1818.83C625.594 1826.2 631.357 1829.72 634.078 1827 635.039 1826.04 635.839 1795.14 636.159 1754 636.319 1714.62 637.12 1681.96 637.76 1681.32 638.4 1680.52 640.001 1681.48 641.282 1683.24 643.363 1685.97 643.683 1697.97 643.363 1762.48 643.043 1830.84 643.363 1839.16 645.764 1843.81 647.205 1846.69 648.966 1848.93 649.606 1848.93 654.889 1848.77 654.889 1847.01 654.729 1771.93 654.568 1689.65 654.408 1690.61 664.173 1692.85 674.899 1695.25 674.578 1692.69 675.539 1789.7L676.339 1876.94 685.784 1888.63C695.229 1900.15 696.83 1901.59 698.751 1898.55 699.391 1897.59 699.711 1855.65 699.551 1805.23 699.551 1754.96 699.871 1711.26 700.512 1708.38 701.312 1704.22 702.272 1703.25 704.994 1703.57L708.355 1704.06 709.156 1808.11C709.956 1909.44 710.116 1912.32 713.318 1917.76 715.879 1922.08 717.48 1923.37 721.322 1923.37L725.964 1923.37 726.765 1805.71C727.245 1741.03 727.885 1688.05 728.045 1687.89 728.205 1687.73 729.646 1686.29 731.247 1684.69 732.688 1682.92 744.053 1675.56 756.38 1668.04 768.706 1660.67 784.554 1651.23 791.597 1646.91 798.641 1642.74 804.884 1637.94 805.524 1636.5 806.004 1634.9 806.645 1532.61 806.645 1409.35 806.805 1231.66 806.325 1184.59 804.884 1183.31 800.882 1180.11 787.915 1178.35 784.874 1180.59 782.152 1182.67 781.992 1194.04 781.992 1401.02 781.992 1648.99 783.593 1623.69 767.265 1632.82 762.142 1635.7 747.255 1644.67 733.968 1652.83 702.913 1671.88 697.79 1674.44 690.106 1674.44 684.023 1674.44 660.331 1663.23 603.503 1633.3 572.607 1616.97 544.433 1602.4 518.98 1589.44 504.573 1582.23 490.646 1574.23 488.085 1571.83L483.443 1567.51 483.443 1538.85C483.122 1374.29 481.362 1236.46 479.601 1234.54 478.48 1233.42 471.757 1232.14 464.073 1231.66 456.709 1231.18 448.545 1230.06 445.824 1229.26 435.418 1225.9 412.847 1221.57 410.446 1222.53 406.924 1223.81 405.003 1229.9 405.003 1239.66 405.003 1253.11 407.244 1257.27 418.61 1264.63 447.585 1283.52 464.713 1326.75 457.189 1362.28 455.749 1368.85 454.628 1376.37 454.628 1378.77 454.628 1385.18 445.504 1405.35 436.379 1419.91 427.094 1434.32 410.766 1450.17 399.881 1455.29L391.877 1458.97 384.513 1455.13C372.187 1448.89 352.657 1427.44 342.732 1409.67 330.566 1387.74 327.845 1377.33 327.044 1350.6 325.924 1315.54 332.807 1291.85 348.655 1276 352.817 1271.84 360.981 1265.92 366.744 1262.55 373.627 1258.71 377.79 1255.35 378.43 1253.11 380.031 1246.87 379.55 1216.93 377.629 1212.77 376.669 1210.69 373.627 1207.81 370.746 1206.53 352.657 1197.88 340.811 1192.28 334.568 1189.4 330.566 1187.64 324.163 1184.11 320.161 1181.39 303.512 1170.51 299.35 1169.71 299.35 1177.23 299.35 1183.79 300.791 1185.71 309.916 1191.32 317.599 1195.96 319.52 1198.04 324.003 1207.81 332.167 1224.77 334.568 1240.94 331.847 1259.83 328.645 1281.28 322.882 1293.29 308.475 1307.54 293.427 1322.42 290.546 1323.38 281.421 1317.46 263.332 1305.78 250.206 1286.09 245.563 1263.67 243.322 1252.79 243.162 1248.95 244.923 1235.82 247.804 1213.57 252.927 1203.16 266.374 1192.6 272.297 1187.96 277.739 1182.99 278.54 1181.39 280.781 1177.23 280.461 1157.22 278.06 1153.22 276.939 1151.46 269.255 1143.77 260.771 1136.25 252.287 1128.57 241.081 1117.52 235.798 1111.44 222.352 1096.23 206.504 1074.14 206.504 1070.62 206.504 1065.01 212.267 1067.74 222.512 1078.3 247.644 1103.91 285.743 1131.77 317.759 1148.1 333.767 1156.1 373.467 1172.43 383.392 1174.83 386.914 1175.79 394.118 1177.55 399.4 1178.99 457.189 1194.36 530.506 1192.6 595.499 1174.51 615.669 1168.91 640.641 1158.66 660.331 1147.94 669.136 1143.13 678.741 1138.33 681.622 1137.05 689.626 1133.69 689.946 1130.49 682.583 1124.08 676.339 1118.64 672.658 1116.72 665.134 1114.8 662.092 1114 659.531 1115.44 652.648 1122 641.282 1132.73 625.114 1139.93 592.457 1148.74 584.133 1150.82 576.769 1153.06 575.969 1153.54 570.206 1157.06 510.016 1165.22 489.366 1165.38 476.879 1165.38 428.695 1160.1 412.207 1156.74 400.521 1154.5 390.116 1151.62 373.788 1146.02 368.505 1144.25 361.301 1142.01 357.78 1141.05 348.815 1138.49 309.275 1118.64 295.508 1109.84 263.012 1088.87 225.713 1057.17 225.713 1050.61 225.713 1046.61 229.555 1048.53 251.966 1063.73 295.989 1093.19 346.094 1112.88 397.64 1120.88 450.306 1128.89 528.745 1122.48 567.485 1106.96 572.767 1104.87 581.732 1101.35 587.495 1099.27 625.434 1085.18 626.714 1084.54 627.195 1080.06 627.515 1077.18 626.234 1074.3 622.392 1070.3 614.228 1061.49 610.706 1061.49 599.501 1070.3 589.736 1077.82 582.532 1081.5 568.765 1086.15 564.603 1087.43 559.641 1089.35 557.88 1090.15 556.119 1090.95 549.716 1092.87 543.473 1094.63 537.39 1096.39 529.386 1098.63 525.864 1099.59 505.214 1105.51 482.322 1107.92 447.585 1107.92 403.242 1107.92 398.76 1107.44 364.983 1099.43 330.406 1091.43 287.664 1072.86 257.249 1052.69 240.921 1041.8 236.118 1037.48 238.2 1035.4 239.32 1034.28 246.364 1036.84 259.65 1043.4 283.342 1054.93 298.39 1060.69 324.963 1068.38 348.495 1075.1 392.837 1082.14 412.687 1082.14 456.549 1082.3 521.702 1067.58 562.842 1048.37 566.524 1046.77 570.206 1045.32 571.327 1045.32 572.287 1045.32 575.809 1043.88 579.011 1042.12 582.372 1040.36 585.894 1038.92 586.854 1038.92 587.815 1038.92 589.576 1037.8 590.696 1036.52 592.297 1034.6 591.817 1032.52 588.135 1025.15 583.493 1016.03 569.726 1002.58 566.684 1004.5 565.884 1004.98 563.323 1008.67 560.921 1012.51 558.52 1016.83 553.878 1021.47 548.915 1024.51 536.909 1031.88 511.617 1041.8 497.85 1044.52 494.808 1045.16 489.045 1046.61 485.043 1047.73 465.834 1053.49 450.306 1054.93 410.446 1054.93 380.351 1054.93 368.345 1054.29 361.782 1052.53 356.979 1051.25 350.576 1050.13 347.855 1050.13 344.973 1050.13 339.851 1049.17 336.649 1047.89 333.287 1046.61 324.803 1044.04 317.759 1042.12 303.352 1038.12 280.461 1028.84 267.334 1021.63 257.089 1016.19 255.328 1011.71 261.571 1007.71 266.214 1004.66 270.056 1005.3 293.747 1012.99 340.011 1028.2 351.056 1030.12 397.8 1029.96 434.778 1029.96 439.26 1029.64 457.83 1025.63 481.201 1020.67 512.577 1010.43 536.109 999.862 545.234 995.86 553.878 992.498 555.319 992.498 562.842 992.498 563.963 981.453 558.04 968.486 554.198 960.162 551.637 957.28 548.115 957.28 547.155 957.28 541.392 961.282 535.309 966.085 521.382 977.29 501.212 986.895 474.638 995.379 429.496 1009.63 411.567 1012.19 368.985 1011.23 336.329 1010.43 315.198 1008.35 304.953 1004.66 301.431 1003.38 295.508 1001.94 291.826 1001.3 287.984 1000.66 284.943 999.542 284.943 998.741 284.943 996.66 301.591 997.14 316.159 999.702 323.202 1000.98 336.489 1002.1 345.773 1002.1 369.946 1002.1 417.009 995.54 434.618 989.617 437.339 988.656 445.984 985.775 453.828 983.213 468.875 978.091 488.405 969.927 497.85 964.484 500.891 962.723 509.536 958.561 517.059 955.199 541.872 944.154 541.712 944.154 543.313 937.59 544.433 933.108 544.113 929.586 542.192 923.183 540.751 918.381 539.471 912.778 539.471 910.697 539.471 905.734 535.309 899.651 531.787 899.651 530.346 899.651 524.743 903.974 519.461 909.096 506.334 922.063 468.715 944.954 444.223 954.879 409.165 969.286 375.388 976.01 331.847 977.611 305.113 978.571 302.552 978.411 301.591 975.85 300.311 972.648 306.394 965.765 316.959 958.401 324.323 953.278 326.724 952.638 354.578 949.436 368.985 947.676 376.989 945.915 397.8 939.832 409.165 936.63 437.5 926.385 441.822 923.824 443.102 923.183 449.345 919.982 455.429 916.62 461.672 913.418 472.717 906.535 480.241 901.252 487.765 895.97 498.97 888.286 505.053 884.284 517.38 876.12 526.184 867.635 528.425 861.712 529.226 859.631 529.866 854.669 529.866 850.827 529.866 842.503 532.107 840.422 546.354 836.42 553.398 834.339 556.279 834.179 557.56 835.459 559.641 837.54 562.522 847.945 565.884 865.234 572.127 897.09 593.418 946.555 614.228 977.611 623.513 991.538 636.479 1009.47 638.721 1011.71 639.201 1012.19 641.602 1015.07 644.163 1018.11 659.051 1036.36 690.266 1065.65 707.555 1077.66 731.887 1094.47 764.224 1112.4 787.115 1121.36 794.799 1124.56 802.643 1127.77 804.404 1128.57 807.285 1129.85 817.21 1132.73 837.22 1138.01 880.602 1149.7 953.599 1151.94 999.702 1142.97 1014.75 1140.09 1041.48 1132.41 1063.73 1124.72 1077.5 1120.08 1113.36 1102.31 1125.2 1094.31 1129.85 1091.11 1134.17 1088.55 1134.65 1088.55 1135.13 1088.55 1139.13 1085.82 1143.61 1082.46 1148.1 1079.1 1155.62 1073.98 1160.26 1071.1 1164.74 1068.22 1168.59 1065.33 1168.59 1064.69 1168.59 1064.21 1176.11 1057.33 1185.39 1049.49 1194.68 1041.64 1203.64 1033 1205.24 1030.28 1209.25 1024.03 1221.09 1012.35 1222.37 1013.63 1223.49 1014.91 1217.41 1026.76 1211.81 1034.12 1209.57 1037.16 1204.92 1043.4 1201.56 1047.73 1178.99 1077.82 1150.02 1105.03 1111.76 1131.93 1088.39 1148.42 1090.31 1145.69 1090.95 1163.46 1091.27 1172.11 1091.59 1187.96 1091.59 1199 1091.75 1210.05 1091.91 1223.33 1092.07 1228.62 1092.39 1240.62 1091.75 1351.08 1091.27 1385.82 1090.79 1416.23 1091.43 1414.95 1072.06 1424.39 1030.6 1444.56 1004.18 1457.21 988.976 1463.77 972.328 1470.98 971.528 1471.14 966.245 1468.9 963.203 1467.62 954.879 1462.01 947.676 1456.41 931.187 1443.6 919.982 1435.6 910.857 1430.16 906.855 1427.6 900.132 1422.63 895.81 1418.79 891.647 1414.95 887.485 1411.91 886.685 1411.91 885.885 1411.91 883.643 1408.87 881.722 1405.19L878.041 1398.3 877.56 1298.41C877.24 1229.74 876.6 1197.72 875.319 1196.28 872.758 1193.08 855.469 1193.56 854.189 1196.76 853.708 1198.2 853.228 1247.67 853.228 1306.9L853.228 1414.63 856.91 1420.07C858.831 1422.95 862.993 1427.28 866.195 1429.52 878.041 1437.68 893.889 1449.69 899.331 1454.33 904.774 1459.13 928.146 1475.78 943.674 1486.19 948.156 1489.23 953.919 1493.87 956.48 1496.75L961.282 1501.71 962.083 1530.05C963.043 1564.63 962.243 1802.34 961.122 1811.47 959.842 1822.03 960.482 1821.55 894.049 1858.85 870.677 1871.98 847.465 1884.47 786.795 1916.16 780.712 1919.36 771.587 1924.65 766.785 1927.69 752.858 1936.49 730.767 1948.18 727.725 1948.18 726.284 1948.18 721.002 1944.34 715.879 1939.69ZM690.587 1632.5C693.788 1627.86 693.788 1616.49 690.747 1610.41 688.826 1606.57 687.225 1605.61 683.063 1605.61 668.656 1605.45 609.746 1584.32 593.898 1573.59 591.657 1572.15 583.493 1567.51 575.489 1563.18 567.645 1559.02 550.997 1549.58 538.51 1542.21 508.095 1524.12 496.569 1519.48 493.848 1523.8 492.087 1526.85 491.607 1539.33 493.207 1544.13 494.968 1549.58 494.328 1549.26 553.078 1581.11 573.408 1592.16 594.538 1603.68 600.301 1606.89 627.515 1621.93 642.562 1627.86 665.134 1632.82 683.383 1636.82 687.705 1636.66 690.587 1632.5ZM689.946 1576.79C692.347 1574.39 693.148 1571.51 693.148 1564.95 693.148 1552.3 689.466 1548.46 673.938 1545.74 651.687 1541.73 630.396 1534.21 607.505 1522.52 581.572 1509.24 561.722 1498.35 558.52 1495.63 557.24 1494.67 543.793 1487.63 528.745 1479.94 494.488 1462.65 493.047 1462.65 493.047 1479.14L493.047 1490.19 501.852 1495.95C506.814 1498.99 511.136 1501.55 511.457 1501.55 511.937 1501.55 519.301 1505.4 527.785 1510.2 536.429 1514.84 549.556 1522.04 557.08 1525.89 564.603 1529.89 577.73 1537.57 586.374 1543.01 595.019 1548.3 602.382 1552.78 602.702 1552.78 603.023 1552.78 610.867 1556.46 620.151 1560.78 629.436 1565.27 638.24 1568.79 639.681 1568.79 640.962 1568.79 643.683 1569.59 645.444 1570.55 648.966 1572.47 664.493 1576.31 677.14 1578.39 681.142 1579.03 684.824 1579.67 685.624 1579.83 686.264 1579.83 688.185 1578.55 689.946 1576.79ZM690.587 1521.4C692.347 1519.64 693.148 1515.8 693.148 1508.76 693.148 1494.67 691.067 1492.75 673.138 1489.39 640.481 1483.3 623.833 1476.58 573.888 1449.21 507.775 1413.03 498.33 1408.23 495.449 1409.35 493.848 1409.83 492.887 1412.71 492.727 1417.83 492.407 1429.68 493.047 1433.36 495.929 1436.24 497.37 1437.68 514.498 1447.29 533.868 1457.53 553.238 1467.78 570.846 1477.38 573.088 1478.82 593.418 1491.95 632.637 1510.2 652.327 1515.64 662.092 1518.36 672.497 1521.24 675.539 1522.04 683.863 1524.44 687.865 1524.28 690.587 1521.4ZM688.986 1463.29C693.148 1458.65 693.948 1448.57 690.747 1441.84 688.505 1437.04 686.905 1435.92 682.102 1435.12 678.901 1434.64 673.138 1433.2 669.136 1432.08 665.134 1430.8 658.57 1429.2 654.248 1428.72 650.086 1428.08 646.244 1426.96 645.764 1426.16 645.284 1425.36 644.003 1424.71 642.723 1424.71 641.442 1424.71 634.238 1421.83 626.714 1418.31 619.191 1414.79 612.467 1411.91 611.827 1411.91 611.187 1411.91 604.944 1408.55 597.9 1404.54 590.857 1400.54 571.807 1390.3 555.479 1381.97 539.151 1373.49 525.063 1365.97 524.263 1365.33 520.581 1362.6 499.451 1352.68 497.049 1352.68 493.528 1352.68 491.927 1358.44 492.727 1369.17 493.368 1377.81 493.688 1378.61 499.13 1382.13 509.055 1388.22 519.141 1394.14 524.263 1396.38 526.984 1397.66 534.988 1401.98 541.872 1405.83 582.852 1429.04 619.991 1448.09 637.12 1454.65 649.766 1459.45 674.578 1465.86 681.302 1466.18 684.343 1466.34 687.385 1465.22 688.986 1463.29ZM990.897 1448.73C993.458 1446.97 997.621 1445.05 1000.34 1444.56 1008.51 1442.8 1010.75 1438.8 1010.59 1426 1010.43 1419.91 1009.63 1413.99 1008.67 1413.03 1006.1 1410.47 989.456 1416.55 984.174 1421.99 980.492 1425.84 980.012 1427.44 980.172 1436.56 980.332 1442.32 981.453 1447.77 982.733 1449.21 985.455 1452.57 985.455 1452.57 990.897 1448.73ZM1034.12 1427.76C1043.08 1423.91 1045 1420.39 1045.16 1406.79 1045.32 1393.98 1042.28 1392.38 1030.12 1399.26 1020.67 1404.54 1019.39 1406.79 1019.07 1419.59 1018.75 1431.92 1021.15 1433.36 1034.12 1427.76ZM1068.22 1411.43C1072.06 1409.35 1076.86 1407.27 1078.62 1406.63 1083.74 1405.35 1085.82 1398.46 1084.22 1387.1 1082.62 1375.09 1080.06 1374.29 1065.81 1381.97L1055.73 1387.42 1055.41 1398.94C1055.25 1407.27 1055.89 1410.95 1057.65 1412.71 1060.53 1415.75 1059.89 1415.75 1068.22 1411.43ZM688.986 1407.91C692.828 1404.06 693.948 1391.58 691.067 1385.5 688.505 1380.05 687.865 1379.89 662.733 1374.29 638.721 1369.01 619.511 1360.52 570.686 1334.27 556.599 1326.59 538.67 1316.5 530.666 1311.86 510.656 1300.01 498.49 1294.41 495.609 1295.53 491.927 1296.97 491.927 1320.98 495.609 1324.02 496.889 1325.15 508.255 1331.23 520.741 1337.47 546.194 1350.28 575.329 1365.97 585.094 1372.21 608.625 1386.94 633.598 1397.34 665.134 1405.51 686.104 1410.95 685.784 1410.95 688.986 1407.91ZM993.298 1399.74C1005.3 1393.98 1010.11 1388.06 1010.11 1378.93 1010.11 1369.17 1007.87 1365.49 1002.1 1365.49 995.219 1365.49 978.731 1374.29 977.451 1378.77 976.01 1384.37 976.33 1397.5 978.091 1400.86 980.332 1404.86 982.733 1404.7 993.298 1399.74ZM1034.76 1378.13C1039.56 1376.37 1043.88 1373.65 1044.36 1372.21 1045.96 1366.93 1044.84 1349.48 1042.76 1347.88 1040.36 1345.8 1022.11 1354.6 1020.67 1358.44 1019.39 1361.64 1019.39 1375.73 1020.67 1378.93 1021.95 1382.29 1024.19 1382.13 1034.76 1378.13ZM1071.1 1361.48C1084.22 1353 1083.74 1353.64 1083.74 1340.67L1083.74 1328.67 1079.26 1328.67C1076.7 1328.67 1073.34 1329.79 1071.58 1331.07 1069.98 1332.35 1067.26 1333.47 1065.81 1333.47 1060.21 1333.47 1057.01 1338.91 1056.05 1350.28 1054.93 1361.32 1056.53 1367.09 1060.37 1367.09 1061.65 1367.09 1066.46 1364.52 1071.1 1361.48ZM990.577 1352.68C992.978 1350.92 998.101 1347.88 1002.1 1345.96L1009.31 1342.27 1009.79 1329.79C1010.11 1319.54 1009.79 1317.3 1007.71 1316.34 1002.58 1314.42 980.812 1323.22 979.051 1327.87 977.771 1331.39 977.771 1353.48 979.211 1354.76 981.132 1356.84 986.255 1355.88 990.577 1352.68ZM691.227 1340.51C691.867 1324.82 690.426 1323.22 669.616 1319.22 640.161 1313.46 616.789 1303.37 571.487 1277.12 556.919 1268.64 534.188 1256.31 520.741 1249.59 491.607 1235.02 490.966 1235.18 492.407 1253.91 492.727 1260.15 493.688 1265.92 494.488 1266.72 495.128 1267.36 505.374 1272.8 517.22 1278.72 553.878 1297.45 575.009 1308.82 586.534 1315.7 616.149 1333.95 666.895 1352.68 684.343 1352.04L690.747 1351.88 691.227 1340.51ZM1032.52 1331.07C1036.84 1328.99 1041.48 1325.47 1042.76 1323.54 1046.12 1318.74 1046.12 1304.17 1042.76 1300.81 1039.56 1297.45 1039.88 1297.45 1029.8 1303.21 1019.87 1308.98 1018.11 1312.18 1019.23 1323.22 1020.51 1336.99 1020.67 1337.15 1032.52 1331.07ZM1067.9 1315.7C1079.74 1311.7 1086.63 1300.65 1084.54 1288.49 1083.26 1280.8 1080.22 1279.2 1073.5 1282.72 1070.78 1284 1066.94 1285.61 1065.17 1286.25 1058.77 1288.01 1056.05 1292.97 1055.41 1303.53 1055.09 1308.98 1055.25 1314.42 1055.73 1315.54 1056.69 1317.94 1060.85 1317.94 1067.9 1315.7ZM987.055 1307.86C988.016 1306.9 992.498 1304.33 997.3 1301.77 1010.11 1295.21 1012.03 1291.85 1010.59 1278.24 1008.99 1264.31 1007.71 1263.99 990.897 1272.32L978.891 1278.24 977.611 1288.65C975.85 1302.89 977.13 1309.46 981.773 1309.46 983.854 1309.46 986.255 1308.66 987.055 1307.86ZM688.185 1295.21C691.227 1293.29 693.148 1279.68 691.227 1273.12 689.626 1267.2 687.065 1265.76 674.739 1263.83 665.614 1262.55 654.568 1259.03 637.12 1251.99 630.556 1249.27 624.473 1247.03 623.833 1247.03 623.193 1247.03 614.869 1243.18 605.424 1238.7 588.936 1230.54 587.815 1230.38 576.289 1230.7 560.281 1231.18 553.238 1232.78 552.597 1236.46 551.957 1239.66 554.998 1242.38 564.603 1247.03 568.445 1248.79 579.171 1254.87 588.615 1260.47 608.305 1272 632.157 1283.68 639.361 1284.96 642.082 1285.45 646.084 1286.73 648.325 1287.85 650.566 1288.97 654.889 1290.25 657.93 1290.89 660.972 1291.37 667.855 1292.97 673.138 1294.09 684.984 1296.97 685.464 1296.97 688.185 1295.21ZM1035.4 1282.72C1045 1277.92 1045.64 1276.16 1045 1261.43 1044.52 1252.15 1044.2 1251.03 1041 1250.55 1036.36 1249.91 1025.63 1255.51 1021.47 1260.79 1018.91 1263.99 1018.11 1267.36 1018.11 1274.08 1018.11 1288.17 1021.47 1289.77 1035.4 1282.72ZM1069.66 1265.92C1080.38 1262.07 1083.26 1258.71 1084.7 1248.47 1086.63 1233.9 1081.18 1229.58 1068.06 1235.02 1057.17 1239.66 1055.25 1242.7 1055.25 1255.51 1055.25 1261.91 1055.57 1267.52 1056.05 1268.32 1057.17 1270.08 1059.41 1269.76 1069.66 1265.92ZM1002.1 1251.67C1010.27 1247.19 1012.19 1242.06 1010.59 1228.14 1009.63 1218.85 1007.39 1216.61 1001.62 1219.49 999.702 1220.45 995.219 1222.37 991.698 1223.81 980.332 1228.3 978.091 1231.66 978.091 1243.98 978.091 1253.27 978.571 1255.19 981.613 1257.27 985.294 1259.99 987.696 1259.35 1002.1 1251.67ZM689.946 1237.58C690.747 1235.82 691.547 1229.74 691.547 1224.13 691.547 1210.37 691.387 1210.21 666.735 1206.05 663.533 1205.4 658.25 1206.85 650.406 1210.05 644.003 1212.77 637.44 1215.01 635.839 1215.01 631.357 1215.01 628.155 1219.49 630.236 1222.69 631.837 1225.41 643.363 1230.38 653.128 1232.62 660.011 1234.06 673.138 1237.26 679.541 1239.02 687.065 1240.94 688.185 1240.78 689.946 1237.58ZM1033.64 1235.5C1045.16 1229.58 1045.64 1228.3 1045 1213.41 1044.52 1203.96 1044.2 1203 1040.84 1202.52 1036.04 1201.72 1023.71 1207.81 1020.83 1212.45 1017.31 1217.73 1016.67 1237.1 1019.71 1239.02 1022.91 1241.1 1022.27 1241.26 1033.64 1235.5ZM1072.7 1216.61C1078.62 1213.57 1082.78 1210.21 1083.74 1207.81 1085.5 1203.16 1084.38 1186.2 1082.14 1183.95 1081.18 1182.99 1077.34 1183.95 1070.94 1187 1056.37 1194.04 1054.93 1195.8 1054.93 1207.49 1054.93 1217.41 1056.69 1221.41 1060.85 1221.41 1062.13 1221.41 1067.42 1219.17 1072.7 1216.61ZM995.86 1205.89C1008.35 1199.48 1012.51 1194.68 1011.07 1188.76 1009.79 1183.63 1006.59 1182.67 997.621 1184.75 980.172 1188.92 979.051 1189.72 977.931 1197.4 976.81 1205.72 978.571 1211.81 981.933 1211.81 983.373 1211.81 989.456 1209.09 995.86 1205.89ZM1030.28 1190.04C1037.32 1187.16 1045.32 1180.27 1045.32 1177.07 1045.32 1172.43 1039.4 1171.63 1030.6 1175.15 1019.71 1179.47 1018.11 1180.75 1018.11 1186.2 1018.11 1193.4 1020.35 1194.2 1030.28 1190.04ZM1072.54 1169.07C1081.98 1164.74 1086.15 1159.78 1084.38 1154.98 1082.94 1151.62 1081.18 1151.94 1068.54 1158.66 1059.41 1163.62 1057.17 1165.54 1056.85 1169.07 1056.21 1174.83 1060.21 1174.83 1072.54 1169.07Z" fill="#EFB810" transform="matrix(1.00089 0 0 -1 1479 2234)"/><path d="M892.448 1123.92C868.756 1121.68 848.266 1117.52 819.611 1108.72 752.378 1088.07 684.664 1039.56 640.001 980.332 622.232 956.64 599.501 915.659 593.258 896.13 591.977 892.288 589.416 885.244 587.495 880.442 585.574 875.639 583.333 868.916 582.532 865.394 581.732 862.033 580.291 857.87 579.331 856.11 578.37 854.509 576.93 848.746 576.129 843.303 574.368 832.418 576.449 827.135 583.013 825.534 608.625 819.611 610.226 819.451 613.908 821.852 615.989 823.293 618.71 827.615 619.991 831.937 631.197 867.155 640.802 888.286 660.011 919.021 685.624 960.162 725.644 1000.34 769.186 1028.84 784.394 1038.92 817.69 1055.25 833.218 1060.53 840.262 1062.93 847.145 1065.49 848.586 1066.3 850.027 1066.94 861.232 1070.14 873.558 1073.34 935.99 1089.19 996.82 1089.19 1058.93 1073.34 1096.39 1063.73 1154.34 1036.84 1175.79 1018.91 1185.23 1011.07 1201.08 1000.5 1202.04 1001.3 1203.8 1003.06 1177.71 1029.8 1161.22 1043.24 1157.86 1045.96 1152.9 1049.97 1150.18 1052.21 1138.49 1061.81 1109.2 1079.9 1091.27 1088.71 1065.33 1101.35 1012.03 1118.96 999.381 1118.96 997.461 1118.96 991.858 1119.92 987.215 1121.2 976.97 1123.92 912.458 1125.68 892.448 1123.92Z" fill="#EFB810" transform="matrix(1.00089 0 0 -1 1479 2234)"/><path d="M918.861 1065.97C908.776 1064.37 896.45 1061.97 891.647 1060.69 872.918 1055.57 866.195 1053.49 862.993 1051.89 861.232 1050.93 858.351 1050.13 856.59 1050.13 854.829 1050.13 850.987 1049.01 848.106 1047.57 789.036 1019.55 769.026 1006.59 734.609 974.729 705.794 947.836 668.335 894.049 655.209 860.432 654.248 857.71 652.007 852.108 650.246 847.625 644.323 832.578 641.282 819.451 642.883 816.73 645.604 812.568 672.017 808.086 676.339 811.287 679.381 813.368 683.703 821.372 687.545 831.617 699.391 862.833 719.241 894.209 750.297 930.067 763.903 945.915 770.787 952.158 789.996 966.565 796.079 971.207 805.204 978.091 810.006 981.933 828.896 996.66 890.527 1024.67 916.46 1030.28 967.045 1041 965.925 1040.84 1009.95 1040.04 1048.53 1039.4 1052.21 1039.08 1074.14 1034.28 1100.23 1028.68 1108.88 1026.11 1123.76 1019.39 1129.37 1016.83 1138.33 1012.99 1143.77 1010.91 1149.06 1008.67 1161.22 1003.06 1170.67 998.101 1180.27 993.298 1188.28 989.296 1188.76 989.296 1196.12 989.296 1153.86 1019.39 1131.29 1030.28 1125.36 1033.16 1119.44 1036.2 1118.32 1037.16 1116.08 1039.08 1103.11 1044.52 1086.95 1050.45 1078.62 1053.49 1074.14 1054.77 1052.21 1060.53 1018.75 1069.34 956.32 1071.9 918.861 1065.97Z" fill="#EFB810" transform="matrix(1.00089 0 0 -1 1479 2234)"/><path d="M974.729 1015.71C974.249 1015.39 967.205 1014.27 958.881 1013.31 936.79 1010.91 906.375 1002.9 887.645 994.899 871.317 987.856 867.155 986.095 866.035 986.095 864.114 986.095 841.062 972.168 821.372 959.041 789.196 937.751 754.459 901.412 732.688 866.355 721.482 848.266 705.954 816.09 705.954 810.647 705.954 808.246 715.399 805.204 722.923 805.204 728.686 805.204 735.729 810.167 737.33 815.289 738.451 819.131 751.737 841.862 759.421 853.228 769.666 868.276 794.479 896.45 807.445 907.816 853.548 948.316 888.926 967.205 945.114 981.453 978.091 989.777 1020.19 993.939 1042.44 991.057 1049.81 990.097 1062.29 988.496 1070.14 987.536 1078.14 986.735 1088.55 984.814 1093.35 983.534 1098.15 982.093 1105.03 980.332 1108.56 979.532 1123.44 975.85 1156.1 963.844 1176.43 954.559 1181.23 952.318 1182.03 952.318 1184.43 954.879 1186.84 957.28 1186.52 958.081 1178.99 964.644 1170.35 972.328 1169.87 972.648 1142.65 986.415 1102.95 1006.59 1057.01 1016.51 1002.74 1016.51 987.696 1016.51 975.049 1016.19 974.729 1015.71Z" fill="#EFB810" transform="matrix(1.00089 0 0 -1 1479 2234)"/><path d="M1030.12 972.168C998.261 970.567 968.646 965.765 959.041 960.482 957.28 959.682 954.079 958.881 951.998 958.881 949.917 958.881 943.193 956.96 937.11 954.719 931.027 952.478 923.984 949.917 921.262 948.956 910.057 944.634 884.764 931.187 869.236 921.262 838.661 901.572 815.769 880.122 790.317 847.625 773.988 826.655 766.144 813.688 767.105 809.046 767.585 806.485 769.346 806.004 780.552 805.524 792.558 805.044 793.998 805.364 798.481 809.206 801.202 811.447 806.645 818.171 810.487 824.094 832.738 857.87 866.515 890.367 903.653 913.899 915.98 921.743 944.474 936.31 954.879 939.992 989.136 952.478 1011.39 957.761 1043.72 960.802 1065.65 962.883 1064.37 962.883 1093.83 961.122 1108.24 960.322 1114.16 960.642 1114.16 961.763 1114.16 965.124 1097.35 968.646 1074.14 970.087 1061.33 970.887 1048.05 971.848 1044.52 972.008 1041 972.328 1034.6 972.328 1030.12 972.168Z" fill="#EFB810" transform="matrix(1.00089 0 0 -1 1479 2234)"/><path d="M1047.73 934.869C972.328 922.703 909.897 889.566 858.511 834.819 850.507 826.335 843.623 818.01 843.143 816.41 841.862 811.127 845.384 809.846 855.789 811.767 860.912 812.728 868.756 814.169 872.918 814.809 881.242 816.41 887.805 820.572 899.651 831.617 914.859 846.025 943.033 865.554 964.804 876.76 985.935 887.645 1019.07 901.252 1024.83 901.252 1026.44 901.252 1029.96 902.213 1032.84 903.493 1041.8 907.335 1086.15 913.578 1112.4 914.699 1120.88 915.019 1129.21 915.98 1130.97 916.62 1135.29 918.221 1146.66 925.584 1148.1 927.666 1151.94 932.948 1136.57 935.509 1090.15 936.95 1070.94 937.59 1061.33 937.11 1047.73 934.869Z" fill="#EFB810" transform="matrix(1.00089 0 0 -1 1479 2234)"/><path d="M368.185 925.264C366.104 923.984 366.264 923.343 368.985 920.622 372.027 917.58 397.96 901.252 399.56 901.252 400.041 901.252 403.402 899.171 407.084 896.61 413.968 891.968 457.189 870.677 464.233 868.436 466.474 867.795 472.877 865.234 478.64 862.833 500.411 853.548 502.012 855.469 485.043 870.517 463.753 889.726 416.369 914.379 384.993 922.863 379.711 924.304 374.268 925.745 372.987 926.065 371.707 926.545 369.465 926.065 368.185 925.264Z" fill="#EFB810" transform="matrix(1.00089 0 0 -1 1479 2234)"/><path d="M1069.34 891.487C1021.63 881.562 976.01 863.313 948.156 842.503 928.946 828.416 933.428 827.295 966.405 838.021 978.571 841.862 992.498 846.665 997.3 848.426 1002.1 850.347 1008.19 852.428 1010.59 853.228 1013.15 854.029 1016.03 855.309 1016.99 856.11 1018.11 856.91 1020.67 858.191 1022.91 858.831 1032.36 861.712 1073.02 881.402 1079.9 886.365 1082.78 888.446 1081.82 893.408 1078.62 893.088 1077.5 892.928 1073.34 892.288 1069.34 891.487Z" fill="#EFB810" transform="matrix(1.00089 0 0 -1 1479 2234)"/><path d="M491.447 677.14C486.004 675.859 475.919 671.377 467.114 666.574 459.911 662.573 446.304 646.404 441.341 635.839 435.579 623.673 433.658 603.023 437.019 588.936 440.381 574.528 450.306 559.961 464.713 548.275 493.688 524.903 541.552 529.706 566.364 558.36 580.611 574.848 581.732 578.37 581.892 605.104 581.892 627.675 581.732 628.635 577.25 637.12 565.884 658.731 548.755 672.177 526.824 676.98 517.38 679.061 499.771 679.061 491.447 677.14ZM526.024 646.885C535.949 642.402 545.074 633.278 549.076 623.993 553.878 612.787 552.917 594.698 547.155 584.133 542.512 575.809 532.267 567.485 523.783 565.084 515.779 562.842 499.931 563.163 492.887 565.724 476.559 571.487 465.994 587.975 465.834 607.345 465.834 616.149 472.717 632.477 479.281 638.56 490.806 649.446 512.097 653.288 526.024 646.885Z" fill="#EFB810" transform="matrix(1.00089 0 0 -1 1479 2234)"/><path d="M118.139 675.859C109.815 675.539 106.934 674.739 105.973 672.658 105.173 671.217 104.693 640.962 104.693 605.744 104.853 554.198 105.333 540.911 107.094 538.83 110.295 534.988 131.906 535.149 133.827 539.151 134.628 540.591 135.588 557.72 136.068 577.09 137.029 620.792 137.029 620.792 156.238 593.898 163.442 583.813 171.446 572.287 173.847 568.285 178.009 561.722 183.772 553.558 193.057 541.552 196.899 536.429 197.379 536.269 209.545 536.269 219.15 536.269 222.672 536.909 224.273 538.83 225.873 540.911 226.514 554.838 226.674 605.744 226.834 642.723 226.354 671.057 225.553 672.818 224.273 675.059 221.711 675.539 211.146 675.539 202.342 675.539 198.179 674.899 197.699 673.618 197.379 672.497 196.739 655.369 196.258 635.519 195.938 615.669 195.458 599.341 195.458 599.181 195.298 598.861 193.857 598.7 192.256 598.7 188.735 598.7 183.292 605.904 158.64 643.523 149.195 658.09 140.07 671.057 138.309 672.497 134.307 675.859 131.106 676.499 118.139 675.859Z" fill="#EFB810" transform="matrix(1.00089 0 0 -1 1479 2234)"/><path d="M268.135 676.019C263.812 675.539 259.33 674.578 258.21 673.618 255.488 671.377 255.168 544.273 257.729 539.311 259.17 536.749 261.251 536.269 270.376 536.269 278.7 536.269 281.901 536.909 283.502 538.99 285.263 540.911 285.903 549.876 286.544 574.528 287.344 605.264 287.504 607.505 290.386 607.505 292.627 607.505 295.828 601.742 304.473 581.092 323.362 537.07 322.722 538.19 328.965 536.429 332.487 535.469 336.649 535.469 339.851 536.429 344.813 537.71 345.773 539.151 352.177 554.358 355.859 563.323 360.661 574.368 362.582 578.69 364.503 583.173 368.185 591.177 370.586 596.779 375.068 606.704 379.55 609.746 381.632 604.143 382.112 602.702 382.592 588.135 382.592 571.647 382.592 550.196 383.232 540.911 384.673 539.151 385.954 537.39 390.276 536.109 397.319 535.469 413.648 533.708 412.687 529.546 412.367 607.185 412.047 656.169 411.406 672.978 409.966 674.418 407.244 677.14 376.509 676.66 373.788 673.618 372.667 672.497 369.786 666.895 367.384 661.132 364.983 655.369 362.422 649.446 361.461 647.685 360.661 646.084 359.06 641.762 357.94 638.08 356.819 634.558 351.536 622.232 346.414 611.027 334.728 585.574 333.127 585.094 325.283 605.104 315.038 630.877 313.437 634.719 310.396 641.922 308.635 645.924 304.793 654.889 302.072 661.932 295.668 677.62 294.708 677.94 268.135 676.019Z" fill="#EFB810" transform="matrix(1.00089 0 0 -1 1479 2234)"/><path d="M612.307 675.859C604.944 674.418 605.104 675.379 605.104 606.865 605.104 553.078 605.424 541.072 607.345 538.51 609.426 535.629 611.667 535.469 636.639 535.789 675.859 536.109 681.942 537.07 690.106 543.473 709.316 558.52 710.597 583.973 693.148 602.862 689.626 606.704 686.745 610.386 686.745 611.187 686.745 611.827 688.345 614.708 690.426 617.59 692.508 620.311 695.549 626.554 697.15 631.517 700.191 640.161 700.191 640.481 697.15 649.286 693.468 660.171 690.266 664.493 681.302 670.576L674.418 675.379 644.964 675.859C628.796 676.179 614.068 676.179 612.307 675.859ZM656.169 648.165C664.974 645.124 668.656 633.438 663.053 626.234 660.651 623.193 658.09 622.232 650.246 621.592 636.96 620.311 635.519 621.752 635.519 635.359 635.519 641.602 636.319 646.885 637.44 648.005 639.841 650.406 649.446 650.566 656.169 648.165ZM666.895 591.497C672.017 588.135 674.258 582.212 672.978 575.329 671.377 566.684 667.375 564.283 652.487 563.803 635.839 563.003 635.199 563.643 635.839 580.611L636.319 593.098 643.523 594.058C653.608 595.659 662.092 594.698 666.895 591.497Z" fill="#EFB810" transform="matrix(1.00089 0 0 -1 1479 2234)"/><path d="M726.925 674.098C723.403 670.576 723.403 670.416 723.883 605.904 724.363 550.836 724.684 540.911 726.765 538.99 729.646 536.109 747.415 534.188 750.777 536.269 752.858 537.55 753.178 547.315 753.658 604.623 753.818 641.442 753.338 672.497 752.698 673.618 751.897 674.739 746.615 676.019 740.852 676.66 731.567 677.46 729.966 677.14 726.925 674.098Z" fill="#EFB810" transform="matrix(1.00089 0 0 -1 1479 2234)"/><path d="M786.315 674.578C784.073 672.978 783.593 665.454 783.273 614.548 782.793 552.117 783.273 540.751 786.955 537.07 790.317 533.708 852.908 534.348 856.91 537.71 858.991 539.311 859.631 542.512 859.631 549.716 859.631 554.998 858.991 560.281 858.351 561.402 857.71 562.522 849.706 563.643 837.38 564.123 826.495 564.763 817.05 565.564 816.25 566.044 815.449 566.524 814.809 590.376 814.809 619.191 814.809 649.446 814.169 672.497 813.208 673.938 811.287 676.98 790.156 677.46 786.315 674.578Z" fill="#EFB810" transform="matrix(1.00089 0 0 -1 1479 2234)"/><path d="M882.043 675.859 878.041 674.578 877.56 608.305C877.08 531.147 875.96 536.269 893.248 536.269 901.092 536.269 904.614 536.909 906.215 538.83 908.936 542.032 909.256 671.377 906.535 674.098 904.454 676.179 887.485 677.46 882.043 675.859Z" fill="#EFB810" transform="matrix(1.00089 0 0 -1 1479 2234)"/><path d="M980.332 675.699C977.931 674.578 975.369 669.616 971.207 657.61 964.804 638.881 948.476 595.659 937.59 568.285 933.589 558.2 929.907 547.155 929.266 543.953 928.146 538.51 928.466 537.71 932.468 536.269 936.31 534.828 943.513 535.149 953.759 537.23 956.48 537.71 958.721 540.751 962.083 548.275 964.644 553.878 968.006 559.161 969.607 559.961 971.367 560.921 983.213 561.242 998.901 560.761 1023.55 559.961 1025.47 559.801 1028.04 556.439 1029.64 554.678 1030.92 551.157 1030.92 548.915 1030.92 539.311 1039.88 534.668 1056.05 535.949 1062.13 536.429 1064.69 537.39 1065.33 539.311 1065.65 540.751 1063.89 547.635 1061.17 554.678 1058.45 561.722 1054.61 571.807 1052.69 577.09 1050.61 582.372 1045.8 595.019 1042.12 605.104 1038.44 615.189 1033.8 627.835 1031.72 633.118 1021.31 661.132 1016.03 673.778 1014.27 674.418 1009.95 676.179 983.534 676.98 980.332 675.699ZM1003.06 627.515C1011.07 603.183 1013.63 593.898 1012.83 591.657 1012.03 589.576 1009.15 589.096 997.621 589.096 978.891 589.096 977.771 590.216 982.733 603.983 984.814 609.426 987.055 616.789 988.016 620.311 991.378 634.719 999.381 638.56 1003.06 627.515Z" fill="#EFB810" transform="matrix(1.00089 0 0 -1 1479 2234)"/><path d="M1094.15 676.019C1091.59 675.539 1088.39 674.578 1087.43 673.618 1085.82 672.337 1085.34 656.81 1085.34 605.744 1085.34 529.706 1083.74 536.269 1101.83 536.269 1108.88 536.269 1112.72 537.07 1114 538.51 1115.28 539.951 1115.92 547.315 1116.08 558.2 1116.08 583.493 1118.96 586.214 1128.09 570.046 1138.33 551.797 1148.42 537.71 1151.62 537.07 1153.38 536.749 1160.42 535.949 1167.15 535.469 1177.07 534.668 1179.79 534.828 1181.87 537.07 1185.07 540.111 1184.11 542.672 1176.59 553.078 1166.51 567.005 1158.98 580.611 1158.98 584.773 1158.98 587.655 1160.58 590.056 1164.26 592.617 1183.95 606.544 1190.04 628.155 1180.11 649.126 1174.99 660.011 1166.67 668.015 1155.94 672.818 1149.7 675.539 1144.57 676.179 1123.76 676.499 1110.16 676.66 1096.87 676.499 1094.15 676.019ZM1140.41 646.084C1152.9 640.962 1156.58 627.195 1147.94 617.59 1143.77 612.787 1142.33 612.307 1131.77 611.827 1124.56 611.347 1119.6 611.827 1118.48 612.948 1116.24 615.189 1115.44 639.201 1117.36 644.483 1118.64 647.845 1119.92 648.325 1126.97 648.325 1131.45 648.325 1137.37 647.365 1140.41 646.084Z" fill="#EFB810" transform="matrix(1.00089 0 0 -1 1479 2234)"/><path d="M1219.01 675.859C1213.73 675.539 1208.93 674.418 1208.29 673.458 1207.65 672.337 1207.01 642.242 1207.01 606.544 1207.01 553.558 1207.49 541.072 1209.25 538.67 1211.01 536.109 1213.25 535.629 1221.57 535.949 1238.38 536.589 1237.26 531.307 1236.3 606.384 1235.98 642.242 1235.34 672.337 1235.02 673.298 1234.22 675.699 1230.22 676.499 1219.01 675.859Z" fill="#EFB810" transform="matrix(1.00089 0 0 -1 1479 2234)"/><path d="M1313.46 675.699C1305.13 674.418 1305.94 676.019 1284.48 617.91 1281.28 609.586 1277.44 598.38 1275.52 593.098 1273.76 587.815 1271.04 580.611 1269.44 577.09 1263.03 563.323 1257.75 547.955 1257.59 542.672L1257.43 537.07 1270.08 536.589C1284.96 536.109 1287.21 537.39 1291.21 549.396 1295.37 562.042 1297.13 562.522 1327.55 560.921L1353.48 559.481 1359.08 548.275C1365.97 534.668 1369.65 533.228 1389.18 537.23 1394.46 538.35 1393.82 541.712 1383.73 567.165 1378.77 579.651 1372.69 595.979 1370.13 603.503 1363.88 622.552 1356.2 643.363 1353.48 649.446 1352.2 652.167 1351.08 655.049 1351.08 656.009 1351.08 658.731 1344.83 671.857 1342.75 673.458 1340.03 675.699 1321.62 676.98 1313.46 675.699ZM1333.79 615.349C1342.75 589.096 1342.75 589.096 1322.9 589.096 1311.86 589.096 1310.9 589.416 1309.3 592.938 1307.86 595.979 1308.18 598.22 1310.9 604.303 1312.82 608.465 1314.26 613.108 1314.26 614.548 1314.26 615.989 1315.38 618.55 1316.66 620.151 1317.94 621.912 1319.06 624.633 1319.06 626.074 1319.06 629.436 1323.54 634.238 1326.11 633.438 1327.07 633.118 1330.59 625.114 1333.79 615.349Z" fill="#EFB810" transform="matrix(1.00089 0 0 -1 1479 2234)"/><path d="M48.3443 672.818C46.5834 668.175 46.9035 539.951 48.8245 538.03 51.3858 535.469 71.5559 535.149 73.9571 537.55 76.6785 540.271 79.5599 643.843 77.4789 662.412L76.0382 674.739 62.7515 675.219C51.3858 675.539 49.4648 675.219 48.3443 672.818Z" fill="#EFB810" transform="matrix(1.00089 0 0 -1 1479 2234)"/><path d="M369.946 481.041 363.382 473.838 363.382 454.308C363.382 443.423 363.863 433.017 364.343 431.096 365.784 425.814 376.189 419.41 385.313 418.45 394.598 417.329 400.841 419.891 407.244 427.575 416.209 438.14 407.404 445.023 397.319 435.418 386.594 425.173 377.309 430.936 375.228 449.185 373.788 463.433 376.349 471.757 383.072 474.638 388.515 476.879 391.396 476.399 396.199 472.237 402.282 466.954 406.604 465.354 409.165 467.595 412.847 470.636 411.887 473.358 404.523 481.041 397.64 488.085 397.479 488.245 387.074 488.245 376.669 488.245 376.509 488.085 369.946 481.041Z" fill="#EFB810" transform="matrix(1.00089 0 0 -1 1479 2234)"/><path d="M432.377 483.122C424.053 474.958 422.292 469.035 422.932 449.345L423.412 432.057 429.976 425.814C441.822 414.768 460.551 415.889 469.836 428.055 473.518 432.857 473.838 434.778 474.158 451.587 474.478 472.557 472.717 477.52 463.112 484.243 458.31 487.445 455.108 488.245 447.425 488.245 438.62 488.245 437.179 487.765 432.377 483.122ZM453.508 475.279C455.749 474.318 458.31 471.757 459.27 469.516 461.512 464.873 461.672 441.021 459.431 437.179 457.51 433.337 449.185 429.976 444.543 431.256 439.26 432.537 437.339 437.5 436.219 453.508 435.258 467.435 435.258 467.595 440.061 472.237 445.183 477.52 447.585 478 453.508 475.279Z" fill="#EFB810" transform="matrix(1.00089 0 0 -1 1479 2234)"/><path d="M490.326 487.124C488.725 486.644 488.245 478.32 488.245 453.828 488.245 423.733 488.405 421.011 491.126 419.571 493.368 418.45 495.128 418.61 497.53 420.371 500.731 422.612 501.051 424.213 501.051 439.901 501.051 454.788 502.652 463.593 504.733 461.031 505.053 460.551 509.055 452.387 513.698 442.622 523.783 421.812 526.984 417.81 533.868 417.81 541.872 417.81 542.512 421.492 541.872 454.628 541.392 470.476 540.751 484.243 540.271 485.043 539.471 486.484 531.787 487.445 531.307 486.324 531.147 486.004 530.666 477.199 530.026 466.634 529.226 451.106 528.585 447.425 526.664 447.425 525.384 447.425 522.982 449.986 521.542 453.027 520.101 456.069 516.419 463.593 513.538 469.676 506.814 483.603 502.492 488.245 496.729 488.085 494.328 488.085 491.287 487.605 490.326 487.124Z" fill="#EFB810" transform="matrix(1.00089 0 0 -1 1479 2234)"/><path d="M567.165 485.043C557.4 479.12 554.518 467.755 560.281 458.31 563.963 452.067 569.726 448.865 580.131 447.425 591.977 445.664 597.1 438.94 591.177 433.017 588.936 430.776 586.694 430.456 578.05 431.256 558.68 433.177 558.36 433.177 556.439 430.296 553.718 425.814 559.641 421.171 571.167 419.09 590.056 415.569 604.143 421.972 607.505 435.739 610.066 445.664 600.141 455.749 585.734 458.47 573.888 460.551 566.844 471.276 574.528 475.439 578.53 477.52 589.256 477.52 594.859 475.439 603.343 472.237 606.865 482.002 598.7 486.164 592.297 489.366 573.248 488.725 567.165 485.043Z" fill="#EFB810" transform="matrix(1.00089 0 0 -1 1479 2234)"/><path d="M610.546 484.883C607.665 481.682 607.665 481.522 610.706 479.281 612.307 478 616.309 477.039 619.671 477.039 622.873 477.039 626.394 476.079 627.355 474.798 628.635 473.358 629.436 463.433 629.916 447.585 630.236 433.818 631.037 421.812 631.517 421.011 632.798 418.93 639.841 418.93 641.122 421.011 641.762 421.972 642.242 433.818 642.242 447.264 642.242 460.711 642.883 472.717 643.523 473.998 644.323 475.118 648.325 476.399 652.648 476.879 658.25 477.68 660.491 478.64 660.812 480.721 662.092 487.285 658.731 488.245 635.519 488.245 615.349 488.245 613.428 487.925 610.546 484.883Z" fill="#EFB810" transform="matrix(1.00089 0 0 -1 1479 2234)"/><path d="M672.337 485.203C671.377 483.283 670.737 469.836 670.737 452.547 670.737 420.371 671.377 417.97 679.541 420.051 683.223 421.011 683.543 421.812 683.543 430.456 683.543 442.462 684.503 445.023 689.146 445.023 692.027 445.023 694.268 442.622 699.391 433.017 706.114 421.011 709.476 417.81 715.559 417.81 721.162 417.81 721.162 422.452 715.879 432.217 709.796 443.262 709.476 447.585 714.599 451.587 723.883 458.95 722.763 477.68 712.357 484.723 707.715 487.765 704.994 488.245 690.587 488.245 675.859 488.245 673.938 487.925 672.337 485.203ZM704.834 471.917C708.195 467.915 708.195 467.114 704.514 462.472 700.992 458.15 690.587 457.189 686.104 460.871 683.063 463.433 682.743 471.116 685.624 473.518 690.747 477.68 700.351 476.879 704.834 471.917Z" fill="#EFB810" transform="matrix(1.00089 0 0 -1 1479 2234)"/><path d="M735.089 486.324C733.808 485.043 733.168 476.559 733.168 458.47 733.168 432.537 733.168 432.377 737.49 427.254 749.496 413.007 773.668 414.928 781.512 430.616 783.913 435.258 784.394 440.541 784.394 461.352 784.394 484.403 784.073 486.484 781.352 487.445 777.19 488.725 773.348 486.804 772.388 482.802 772.067 481.041 771.427 469.996 771.267 458.31 770.787 434.618 769.986 432.857 760.061 431.096 755.259 430.456 753.498 430.936 750.136 434.298 746.134 438.3 745.974 439.1 745.974 459.27 745.974 470.636 745.334 481.842 744.374 484.083 742.773 488.565 738.29 489.526 735.089 486.324Z" fill="#EFB810" transform="matrix(1.00089 0 0 -1 1479 2234)"/><path d="M807.125 483.443C797.52 476.559 796.56 473.838 796.56 452.867 796.4 432.057 797.52 428.695 806.325 422.612 813.208 417.97 825.534 417.169 833.218 421.011 838.501 423.733 845.544 433.177 844.904 436.859 843.943 441.502 837.38 440.701 831.297 435.418 826.655 431.256 824.574 430.456 820.572 431.256 811.767 433.017 810.006 437.019 810.006 454.628 810.006 469.836 810.167 470.476 814.169 473.678 820.252 478.48 823.293 477.84 831.617 470.636 835.619 467.114 839.781 464.233 840.582 464.233 841.382 464.233 842.823 465.994 843.783 468.075 845.224 471.116 844.904 472.877 841.862 477.52 836.74 485.203 830.977 488.245 821.532 488.245 815.289 488.245 812.248 487.285 807.125 483.443Z" fill="#EFB810" transform="matrix(1.00089 0 0 -1 1479 2234)"/><path d="M852.428 485.684C847.945 481.041 850.667 478.48 862.033 475.919L868.436 474.638 869.236 448.705C869.716 432.537 870.677 422.132 871.797 421.011 872.918 419.891 875.319 419.41 877.4 419.731 881.242 420.211 881.242 420.371 882.043 447.264L882.843 474.318 886.845 475.599C889.086 476.239 892.768 477.199 895.329 477.68 898.531 478.48 899.651 479.601 899.651 482.482 899.651 484.563 898.531 486.804 897.09 487.285 895.649 487.765 885.724 488.245 874.839 488.245 858.831 488.245 854.509 487.765 852.428 485.684Z" fill="#EFB810" transform="matrix(1.00089 0 0 -1 1479 2234)"/><path d="M918.701 484.403C909.576 478.16 907.335 470.956 907.976 450.146 908.296 435.258 908.936 431.737 911.818 427.895 918.861 418.45 933.428 415.248 944.794 420.851 955.68 425.974 958.081 431.416 958.241 451.427 958.401 471.116 955.519 479.761 947.035 485.043 939.351 489.686 926.225 489.526 918.701 484.403ZM940.152 473.838C945.114 469.836 946.875 461.352 945.274 447.905 943.834 435.418 939.031 429.656 931.187 431.256 922.383 433.017 920.462 437.019 920.462 454.148 920.462 467.915 920.782 469.516 924.464 473.037 929.106 477.84 934.709 478.16 940.152 473.838Z" fill="#EFB810" transform="matrix(1.00089 0 0 -1 1479 2234)"/><path d="M975.209 486.164C972.808 483.283 971.207 453.508 972.488 436.059 973.448 423.573 974.089 420.691 976.65 419.41 981.613 416.689 986.095 422.612 986.095 431.897 986.095 440.061 989.136 446.304 992.338 444.383 993.298 443.743 995.54 440.541 997.461 437.339 1001.62 429.656 1008.19 420.691 1010.59 419.09 1013.79 417.169 1019.23 417.65 1021.31 420.211 1022.75 421.972 1021.95 424.533 1017.15 433.498L1011.07 444.543 1016.19 452.227C1020.35 458.63 1021.31 461.512 1021.31 468.715 1021.31 476.399 1020.67 478 1015.87 482.802L1010.43 488.245 993.619 488.245C982.093 488.245 976.33 487.605 975.209 486.164ZM1004.98 474.478C1012.35 469.356 1008.19 459.751 997.781 458.31 992.498 457.67 990.577 458.15 987.856 460.871 983.694 465.033 983.534 469.676 987.696 473.838 991.538 477.68 1000.02 478 1004.98 474.478Z" fill="#EFB810" transform="matrix(1.00089 0 0 -1 1479 2234)"/><path d="M1053.33 481.522C1051.57 478.64 1048.21 471.276 1045.96 465.033 1043.56 458.95 1038.92 446.784 1035.56 438.14 1032.04 429.335 1029.8 421.652 1030.28 420.851 1032.2 417.65 1039.72 419.571 1044.84 424.533 1049.81 429.335 1051.25 429.816 1059.89 429.816 1068.86 429.816 1069.98 429.335 1073.82 424.533 1076.86 421.011 1079.58 419.41 1082.62 419.41 1088.23 419.41 1089.35 422.292 1086.15 428.375 1084.86 430.936 1083.74 433.818 1083.74 434.938 1083.74 436.059 1082.62 439.26 1081.5 442.142 1080.22 445.023 1077.18 452.547 1074.78 458.63 1066.14 481.522 1063.25 486.644 1059.73 486.644 1057.81 486.644 1055.25 484.563 1053.33 481.522ZM1062.61 455.909C1065.49 453.027 1065.01 443.583 1061.97 442.302 1055.89 440.061 1051.41 447.905 1054.93 454.468 1056.85 458.31 1059.73 458.79 1062.61 455.909Z" fill="#EFB810" transform="matrix(1.00089 0 0 -1 1479 2234)"/><path d="M101.971 469.035C45.4628 468.075 49.6249 469.836 49.6249 447.585 49.785 424.053 32.3362 426.614 189.535 426.134 303.672 425.814 324.803 426.134 326.404 428.055 327.524 429.335 328.325 437.179 328.645 447.104 328.965 460.391 328.485 464.553 326.564 466.474 324.483 468.555 311.676 468.875 236.919 469.356 188.895 469.676 128.224 469.516 101.971 469.035Z" fill="#EFB810" transform="matrix(1.00089 0 0 -1 1479 2234)"/><path d="M1220.61 469.035 1118.32 468.235 1117.2 464.233C1115.76 459.11 1115.44 431.737 1116.72 428.375 1117.68 426.134 1130.97 425.814 1251.83 425.814 1329.31 425.814 1387.74 426.454 1389.98 427.254 1392.7 428.375 1394.46 430.776 1395.9 436.059 1398.46 445.183 1397.34 461.832 1393.98 465.193 1391.1 468.075 1361.64 470.796 1338.27 470.156 1329.95 469.996 1276.96 469.516 1220.61 469.035Z" fill="#EFB810" transform="matrix(1.00089 0 0 -1 1479 2234)"/><path d="M173.207 339.851C167.284 339.05 165.363 336.489 159.44 321.761 157.039 315.999 154.478 310.076 153.517 308.475 150.796 303.672 139.27 276.459 139.27 274.858 139.27 273.577 126.303 241.721 120.861 229.715 117.019 221.391 105.653 193.697 105.653 193.057 105.653 192.096 83.2418 140.711 76.9986 127.264 69.4749 111.096 55.3878 77.1587 53.6269 71.0757 53.1467 68.8345 53.787 66.5934 55.2277 64.9926 57.6289 62.7515 65.6329 62.4313 125.663 62.4313L193.697 62.4313 196.258 66.4333C198.34 69.6349 198.66 73.9571 198.179 90.4454 197.699 108.374 197.379 110.936 194.658 113.017 192.256 114.778 185.693 115.258 167.924 115.258 148.234 115.258 143.912 115.738 141.671 117.819 140.07 119.42 139.59 121.501 140.23 123.102 140.871 124.542 142.151 128.865 143.272 132.867 144.392 136.869 148.074 145.833 151.276 152.877 154.478 159.92 160.4 173.687 164.402 183.292 168.244 193.057 173.207 204.583 175.128 208.905 178.49 216.108 184.413 230.836 189.215 244.122 193.697 256.449 198.179 256.129 204.102 243.002 212.106 224.913 214.187 220.271 218.99 208.104 221.711 201.541 226.354 189.855 229.555 182.331 232.757 174.808 235.318 167.604 235.318 166.484 235.318 165.523 236.439 162.642 237.719 160.4 240.761 154.478 258.37 112.056 265.253 93.647 269.255 82.9216 277.099 67.3938 279.82 65.3128 281.421 63.8721 290.546 63.0716 310.556 62.7515 334.728 62.2712 339.05 62.5914 340.811 64.6725 343.212 67.5539 343.052 68.1942 334.088 88.8446 331.526 95.0877 328.805 101.491 328.005 103.252 325.443 109.815 315.358 132.867 303.512 160.08 296.629 175.448 290.546 189.535 289.745 191.296 278.7 217.869 266.374 247.004 264.133 252.127 262.532 255.648 257.089 268.935 252.127 281.741 247.004 294.548 242.522 305.753 241.881 306.554 241.241 307.514 238.36 314.238 235.318 321.761 232.437 329.285 229.075 336.489 227.794 337.77 226.033 339.69 220.751 340.171 202.021 340.331 189.055 340.491 176.088 340.171 173.207 339.851Z" fill="#EFB810" transform="matrix(1.00089 0 0 -1 1479 2234)"/><path d="M301.111 338.73C300.151 337.449 299.83 335.368 300.471 333.607 301.751 330.406 324.483 295.348 329.926 288.145 331.526 285.903 338.09 275.818 344.493 265.733 359.06 242.362 371.867 222.512 379.23 211.626 389.475 196.579 393.477 189.855 398.44 179.93L403.402 170.165 403.402 118.94C403.402 79.8801 403.883 67.2337 405.483 65.9531 406.444 65.1527 419.41 64.0321 434.138 63.5519 458.47 62.7515 461.352 62.9116 464.553 65.6329L468.235 68.5144 468.395 120.38C468.555 180.09 466.474 171.126 488.725 206.984 504.093 231.796 505.374 233.877 506.814 236.759 508.575 240.12 530.666 273.577 537.55 283.342 541.072 288.145 545.394 295.188 547.315 298.87 549.236 302.552 552.757 307.995 555.159 310.876 557.72 313.757 562.362 320.641 565.724 326.244 574.528 340.811 574.208 340.971 540.431 340.971 502.172 340.971 502.332 340.971 494.648 329.445 491.126 324.163 488.245 319.52 488.245 319.2 488.245 318.4 459.911 271.336 451.747 258.53 442.782 244.603 438.78 240.12 435.418 240.12 432.537 240.12 423.252 253.247 411.406 273.737 407.565 280.301 400.361 292.627 395.398 300.951 390.436 309.275 383.392 321.281 379.711 327.524 375.388 334.888 371.867 339.37 369.465 340.011 367.384 340.491 351.696 340.971 334.408 340.971 309.755 340.971 302.552 340.491 301.111 338.73Z" fill="#EFB810" transform="matrix(1.00089 0 0 -1 1479 2234)"/><path d="M863.313 339.05C861.392 338.09 859.631 336.169 859.311 334.728 858.991 333.287 858.831 272.457 859.151 199.3 859.471 78.9196 859.791 66.2733 862.033 64.6725 863.954 63.2317 875.319 62.9116 903.333 63.2317 924.624 63.5519 968.166 63.712 1000.02 63.8721 1050.29 64.0321 1058.29 64.3523 1060.37 66.5934 1062.45 68.5144 1062.93 73.1567 1062.93 90.6055 1062.93 109.975 1062.61 112.376 1059.73 115.258 1056.69 118.299 1054.45 118.459 993.619 118.459 941.753 118.459 930.067 118.78 927.505 120.701 924.624 122.942 924.464 125.503 924.944 212.427 925.584 315.038 924.784 337.129 920.462 338.57 915.179 340.171 866.835 340.651 863.313 339.05Z" fill="#EFB810" transform="matrix(1.00089 0 0 -1 1479 2234)"/><path d="M1222.21 339.851C1215.49 338.09 1216.13 339.37 1197.08 294.548 1179.31 252.767 1174.03 240.12 1169.39 228.114 1167.15 222.031 1159.94 205.063 1153.7 190.496 1147.46 175.928 1139.93 158.319 1136.89 151.276 1134.01 144.232 1129.53 134.147 1127.13 128.865 1124.56 123.582 1120.24 113.177 1117.36 105.653 1114.48 98.1292 1109.68 86.2833 1106.8 79.3998 1102.63 69.795 1101.83 66.2733 1103.11 64.5124 1104.55 62.9116 1118.16 62.4313 1174.19 62.4313 1257.59 62.4313 1249.43 59.5499 1249.43 89.0047 1249.43 115.418 1250.71 114.297 1219.33 114.938 1205.56 115.258 1194.2 116.218 1193.08 117.179 1189.88 119.74 1190.52 122.942 1196.6 137.669 1199.64 145.033 1202.2 151.916 1202.2 152.877 1202.36 153.677 1203.64 157.359 1205.4 160.881 1207.17 164.402 1208.45 168.084 1208.61 169.205 1208.61 170.165 1211.33 177.049 1214.85 184.413 1219.81 195.138 1232.78 224.913 1242.22 247.804 1244.46 253.087 1249.59 252.287 1252.95 246.204 1255.67 240.921 1258.87 233.077 1261.27 225.713 1262.07 223.472 1264.47 217.709 1266.72 212.907 1268.96 208.104 1272.32 200.1 1274.24 195.298 1276 190.496 1278.24 185.053 1279.04 183.292 1281.76 177.049 1292.17 151.116 1295.05 142.952 1296.65 138.309 1299.05 132.226 1300.49 129.345 1301.77 126.463 1305.46 117.659 1308.66 109.655 1320.5 80.8406 1324.18 72.3563 1327.23 67.5539L1330.27 62.4313 1359.88 62.4313C1395.42 62.4313 1394.78 62.1112 1387.9 79.2398 1380.05 98.9296 1371.89 119.1 1370.29 122.461 1369.49 124.222 1364.36 136.068 1358.92 148.875 1353.48 161.681 1347.88 174.968 1346.28 178.49 1340.51 191.296 1336.35 201.061 1332.67 210.666 1330.75 215.948 1327.23 224.273 1324.98 229.075 1318.74 242.682 1314.26 253.247 1314.26 254.528 1314.26 255.328 1311.86 261.091 1308.82 267.654 1305.78 274.058 1300.49 286.544 1296.97 295.348 1287.37 319.68 1278.72 337.609 1276 338.73 1272.8 340.171 1226.54 341.131 1222.21 339.851Z" fill="#EFB810" transform="matrix(1.00089 0 0 -1 1479 2234)"/><path d="M640.161 331.847C638.24 327.524 635.359 321.281 633.758 317.599 631.997 313.918 630.716 310.236 630.716 309.435 630.716 308.635 628.635 303.512 625.914 298.07 623.353 292.627 621.112 287.664 621.112 287.184 621.112 286.384 610.226 260.131 605.904 250.526 598.06 232.917 589.096 210.986 589.096 209.385 589.096 208.585 586.534 202.502 583.493 195.938 580.451 189.375 577.89 183.452 577.89 182.972 577.89 182.331 573.888 172.727 568.925 161.681 563.963 150.636 558.84 139.11 557.4 136.068 556.119 133.027 554.358 129.185 553.558 127.424 552.757 125.823 548.915 116.859 545.074 107.414 541.232 98.1292 535.949 85.1627 533.228 78.5994 529.386 69.6349 528.585 66.2733 530.026 64.6725 531.467 62.9116 544.273 62.4313 599.341 62.4313 636.319 62.4313 667.535 63.0716 668.656 63.712 672.337 66.1132 673.938 74.1172 673.938 91.4059 673.938 115.578 674.418 115.258 645.284 115.258 626.394 115.258 622.552 115.738 619.511 118.139 615.989 121.021 615.989 121.021 618.71 130.465 621.752 140.711 622.392 142.471 631.517 163.282 634.719 170.806 638.56 179.45 639.841 182.492 641.122 185.533 643.043 190.336 644.323 192.897 645.444 195.618 647.525 200.581 648.806 204.102 652.167 213.067 660.812 234.518 665.294 244.603 671.377 258.53 675.699 257.729 681.942 240.921 687.065 226.994 694.589 208.104 697.15 202.502 706.274 182.331 709.156 175.768 709.156 174.968 709.156 174.488 710.917 170.005 712.998 165.043 715.239 160.08 719.401 149.675 722.443 141.671 725.644 133.827 730.286 122.301 733.008 116.378 735.729 110.295 737.97 104.532 737.97 103.412 737.97 101.011 748.696 76.0382 752.057 70.4353 756.86 62.5914 757.82 62.4313 786.955 62.4313 821.852 62.4313 822.493 62.9116 812.248 83.722 810.006 88.3643 806.645 96.0482 804.884 100.851 801.522 109.975 797.84 118.62 791.597 132.066 787.595 140.871 773.828 173.207 764.384 196.098 756.54 214.988 738.29 258.85 735.569 264.933 734.449 267.654 729.326 279.5 724.363 291.346 719.401 303.192 713.638 316.639 711.877 320.961 709.956 325.443 707.075 331.366 705.474 334.248L702.432 339.37 672.978 339.37 643.523 339.37 640.161 331.847Z" fill="#EFB810" transform="matrix(1.00089 0 0 -1 1479 2234)"/></g></g></g></g></svg>